<?xml version="1.0" encoding="UTF-8" standalone="no"?>
<!DOCTYPE svg PUBLIC "-//W3C//DTD SVG 1.1//EN"
 "http://www.w3.org/Graphics/SVG/1.1/DTD/svg11.dtd">
<!-- Generated by graphviz version 2.36.0 (20140111.2315)
 -->
<!-- Title: rbd::MultiBodyGraph::Node Pages: 1 -->
<svg width="219pt" height="256pt"
 viewBox="0.00 0.00 219.00 256.00" xmlns="http://www.w3.org/2000/svg" xmlns:xlink="http://www.w3.org/1999/xlink">
<g id="graph0" class="graph" transform="scale(1 1) rotate(0) translate(4 252)">
<title>rbd::MultiBodyGraph::Node</title>
<polygon fill="white" stroke="none" points="-4,4 -4,-252 215,-252 215,4 -4,4"/>
<!-- Node1 -->
<g id="node1" class="node"><title>Node1</title>
<polygon fill="#bfbfbf" stroke="black" points="100,-1 100,-31 206,-31 206,-1 100,-1"/>
<text text-anchor="start" x="108" y="-19" font-family="Helvetica,sans-Serif" font-size="10.00">rbd::MultiBodyGraph</text>
<text text-anchor="middle" x="153" y="-8" font-family="Helvetica,sans-Serif" font-size="10.00">::Node</text>
</g>
<!-- Node2 -->
<g id="node2" class="node"><title>Node2</title>
<polygon fill="white" stroke="#bfbfbf" points="-0.5,-81 -0.5,-111 134.5,-111 134.5,-81 -0.5,-81"/>
<text text-anchor="start" x="7.5" y="-99" font-family="Helvetica,sans-Serif" font-size="10.00">std::vector&lt; rbd::MultiBody</text>
<text text-anchor="middle" x="67" y="-88" font-family="Helvetica,sans-Serif" font-size="10.00">Graph::Arc &gt;</text>
</g>
<!-- Node2&#45;&gt;Node1 -->
<g id="edge1" class="edge"><title>Node2&#45;&gt;Node1</title>
<path fill="none" stroke="#9a32cd" stroke-dasharray="5,2" d="M90.5745,-73.6185C105.454,-60.123 124.263,-43.0639 137.326,-31.2157"/>
<polygon fill="#9a32cd" stroke="#9a32cd" points="87.8296,-71.3829 82.7737,-80.6936 92.5323,-76.5679 87.8296,-71.3829"/>
<text text-anchor="middle" x="127" y="-53.5" font-family="Helvetica,sans-Serif" font-size="10.00"> arcs</text>
</g>
<!-- Node3 -->
<g id="node3" class="node"><title>Node3</title>
<g id="a_node3"><a xlink:href="a00001.html" target="_top" xlink:title=".Arc of the multibody graph. ">
<polygon fill="white" stroke="black" points="3.5,-160.5 3.5,-179.5 130.5,-179.5 130.5,-160.5 3.5,-160.5"/>
<text text-anchor="middle" x="67" y="-167.5" font-family="Helvetica,sans-Serif" font-size="10.00">rbd::MultiBodyGraph::Arc</text>
</a>
</g>
</g>
<!-- Node3&#45;&gt;Node2 -->
<g id="edge2" class="edge"><title>Node3&#45;&gt;Node2</title>
<path fill="none" stroke="#9a32cd" stroke-dasharray="5,2" d="M67,-150.085C67,-137.915 67,-122.354 67,-111.232"/>
<polygon fill="#9a32cd" stroke="#9a32cd" points="63.5001,-150.458 67,-160.458 70.5001,-150.458 63.5001,-150.458"/>
<text text-anchor="middle" x="88.5" y="-133.5" font-family="Helvetica,sans-Serif" font-size="10.00"> elements</text>
</g>
<!-- Node4 -->
<g id="node4" class="node"><title>Node4</title>
<g id="a_node4"><a xlink:href="a00013.html" target="_top" xlink:title="Joint representation. ">
<polygon fill="white" stroke="black" points="38.5,-228.5 38.5,-247.5 95.5,-247.5 95.5,-228.5 38.5,-228.5"/>
<text text-anchor="middle" x="67" y="-235.5" font-family="Helvetica,sans-Serif" font-size="10.00">rbd::Joint</text>
</a>
</g>
</g>
<!-- Node4&#45;&gt;Node3 -->
<g id="edge3" class="edge"><title>Node4&#45;&gt;Node3</title>
<path fill="none" stroke="#9a32cd" stroke-dasharray="5,2" d="M67,-218.041C67,-205.472 67,-189.563 67,-179.841"/>
<polygon fill="#9a32cd" stroke="#9a32cd" points="63.5001,-218.372 67,-228.372 70.5001,-218.372 63.5001,-218.372"/>
<text text-anchor="middle" x="78" y="-201.5" font-family="Helvetica,sans-Serif" font-size="10.00"> joint</text>
</g>
<!-- Node5 -->
<g id="node5" class="node"><title>Node5</title>
<g id="a_node5"><a xlink:href="a00002.html" target="_top" xlink:title="Body representation. ">
<polygon fill="white" stroke="black" points="152.5,-86.5 152.5,-105.5 211.5,-105.5 211.5,-86.5 152.5,-86.5"/>
<text text-anchor="middle" x="182" y="-93.5" font-family="Helvetica,sans-Serif" font-size="10.00">rbd::Body</text>
</a>
</g>
</g>
<!-- Node5&#45;&gt;Node1 -->
<g id="edge4" class="edge"><title>Node5&#45;&gt;Node1</title>
<path fill="none" stroke="#9a32cd" stroke-dasharray="5,2" d="M175.265,-76.8856C170.096,-62.9816 163.059,-44.054 158.29,-31.227"/>
<polygon fill="#9a32cd" stroke="#9a32cd" points="172.02,-78.2012 178.786,-86.3546 178.581,-75.7617 172.02,-78.2012"/>
<text text-anchor="middle" x="181.5" y="-53.5" font-family="Helvetica,sans-Serif" font-size="10.00"> body</text>
</g>
</g>
</svg>
