<?xml version="1.0" encoding="UTF-8" standalone="no"?>
<!DOCTYPE svg PUBLIC "-//W3C//DTD SVG 1.1//EN"
 "http://www.w3.org/Graphics/SVG/1.1/DTD/svg11.dtd">
<!-- Generated by graphviz version 2.36.0 (20140111.2315)
 -->
<!-- Title: MultiBodyConfig.h Pages: 1 -->
<svg width="939pt" height="252pt"
 viewBox="0.00 0.00 939.14 252.00" xmlns="http://www.w3.org/2000/svg" xmlns:xlink="http://www.w3.org/1999/xlink">
<g id="graph0" class="graph" transform="scale(1 1) rotate(0) translate(4 248)">
<title>MultiBodyConfig.h</title>
<polygon fill="white" stroke="none" points="-4,4 -4,-248 935.14,-248 935.14,4 -4,4"/>
<!-- Node1 -->
<g id="node1" class="node"><title>Node1</title>
<polygon fill="#bfbfbf" stroke="black" points="784.5,-224.5 784.5,-243.5 881.5,-243.5 881.5,-224.5 784.5,-224.5"/>
<text text-anchor="middle" x="833" y="-231.5" font-family="Helvetica,sans-Serif" font-size="10.00">MultiBodyConfig.h</text>
</g>
<!-- Node2 -->
<g id="node2" class="node"><title>Node2</title>
<polygon fill="white" stroke="#bfbfbf" points="684,-56.5 684,-75.5 728,-75.5 728,-56.5 684,-56.5"/>
<text text-anchor="middle" x="706" y="-63.5" font-family="Helvetica,sans-Serif" font-size="10.00">vector</text>
</g>
<!-- Node1&#45;&gt;Node2 -->
<g id="edge1" class="edge"><title>Node1&#45;&gt;Node2</title>
<path fill="none" stroke="midnightblue" d="M842.201,-224.259C863.342,-203.125 911.455,-148.323 883,-112 843.718,-61.8549 805.323,-90.3294 738.404,-76.0323"/>
<polygon fill="midnightblue" stroke="midnightblue" points="738.863,-72.5425 728.321,-73.5981 737.22,-79.347 738.863,-72.5425"/>
</g>
<!-- Node3 -->
<g id="node3" class="node"><title>Node3</title>
<polygon fill="white" stroke="#bfbfbf" points="746.5,-56.5 746.5,-75.5 805.5,-75.5 805.5,-56.5 746.5,-56.5"/>
<text text-anchor="middle" x="776" y="-63.5" font-family="Helvetica,sans-Serif" font-size="10.00">stdexcept</text>
</g>
<!-- Node1&#45;&gt;Node3 -->
<g id="edge2" class="edge"><title>Node1&#45;&gt;Node3</title>
<path fill="none" stroke="midnightblue" d="M865.986,-224.438C884.463,-217.769 905.952,-206.453 917,-188 934.352,-159.02 936.925,-139.275 917,-112 894.022,-80.5464 848.815,-70.5645 815.762,-67.6543"/>
<polygon fill="midnightblue" stroke="midnightblue" points="815.721,-64.143 805.502,-66.9397 815.234,-71.1261 815.721,-64.143"/>
</g>
<!-- Node4 -->
<g id="node4" class="node"><title>Node4</title>
<g id="a_node4"><a doxygen="/usr/local/share/doc/SpaceVecAlg/doxygen-html/SpaceVecAlg.doxytag:/usr/local/share/doc/SpaceVecAlg/doxygen-html/" xlink:href="/usr/local/share/doc/SpaceVecAlg/doxygen-html/a00016.html" target="_top" xlink:title="SpaceVecAlg/SpaceVecAlg">
<polygon fill="white" stroke="black" points="336,-56.5 336,-75.5 474,-75.5 474,-56.5 336,-56.5"/>
<text text-anchor="middle" x="405" y="-63.5" font-family="Helvetica,sans-Serif" font-size="10.00">SpaceVecAlg/SpaceVecAlg</text>
</a>
</g>
</g>
<!-- Node1&#45;&gt;Node4 -->
<g id="edge3" class="edge"><title>Node1&#45;&gt;Node4</title>
<path fill="none" stroke="midnightblue" d="M784.19,-232.784C704.276,-229.956 544.298,-213.625 443,-132 427.766,-119.724 417.356,-99.5843 411.337,-84.9719"/>
<polygon fill="midnightblue" stroke="midnightblue" points="414.558,-83.596 407.723,-75.5002 408.017,-86.091 414.558,-83.596"/>
</g>
<!-- Node14 -->
<g id="node14" class="node"><title>Node14</title>
<g id="a_node14"><a xlink:href="a00033.html" target="_top" xlink:title="MultiBody.h">
<polygon fill="white" stroke="black" points="624,-168.5 624,-187.5 692,-187.5 692,-168.5 624,-168.5"/>
<text text-anchor="middle" x="658" y="-175.5" font-family="Helvetica,sans-Serif" font-size="10.00">MultiBody.h</text>
</a>
</g>
</g>
<!-- Node1&#45;&gt;Node14 -->
<g id="edge13" class="edge"><title>Node1&#45;&gt;Node14</title>
<path fill="none" stroke="midnightblue" d="M805.271,-224.444C775.574,-215.28 728.284,-200.688 695.331,-190.519"/>
<polygon fill="midnightblue" stroke="midnightblue" points="696.187,-187.121 685.6,-187.516 694.123,-193.809 696.187,-187.121"/>
</g>
<!-- Node21 -->
<g id="node21" class="node"><title>Node21</title>
<polygon fill="white" stroke="#bfbfbf" points="791.5,-112.5 791.5,-131.5 874.5,-131.5 874.5,-112.5 791.5,-112.5"/>
<text text-anchor="middle" x="833" y="-119.5" font-family="Helvetica,sans-Serif" font-size="10.00">rbdyn/config.hh</text>
</g>
<!-- Node1&#45;&gt;Node21 -->
<g id="edge29" class="edge"><title>Node1&#45;&gt;Node21</title>
<path fill="none" stroke="midnightblue" d="M833,-224.368C833,-206.617 833,-165.666 833,-141.597"/>
<polygon fill="midnightblue" stroke="midnightblue" points="836.5,-141.591 833,-131.591 829.5,-141.591 836.5,-141.591"/>
</g>
<!-- Node5 -->
<g id="node5" class="node"><title>Node5</title>
<g id="a_node5"><a doxygen="/usr/local/share/doc/SpaceVecAlg/doxygen-html/SpaceVecAlg.doxytag:/usr/local/share/doc/SpaceVecAlg/doxygen-html/" xlink:href="/usr/local/share/doc/SpaceVecAlg/doxygen-html/a00008.html" target="_top" xlink:title="EigenTypedef.h">
<polygon fill="white" stroke="black" points="-0.5,-0.5 -0.5,-19.5 84.5,-19.5 84.5,-0.5 -0.5,-0.5"/>
<text text-anchor="middle" x="42" y="-7.5" font-family="Helvetica,sans-Serif" font-size="10.00">EigenTypedef.h</text>
</a>
</g>
</g>
<!-- Node4&#45;&gt;Node5 -->
<g id="edge4" class="edge"><title>Node4&#45;&gt;Node5</title>
<path fill="none" stroke="midnightblue" d="M341.867,-56.4872C280.998,-48.145 186.021,-34.7763 94.5436,-20.2104"/>
<polygon fill="midnightblue" stroke="midnightblue" points="94.9872,-16.737 84.5599,-18.6136 93.8816,-23.6491 94.9872,-16.737"/>
</g>
<!-- Node6 -->
<g id="node6" class="node"><title>Node6</title>
<g id="a_node6"><a doxygen="/usr/local/share/doc/SpaceVecAlg/doxygen-html/SpaceVecAlg.doxytag:/usr/local/share/doc/SpaceVecAlg/doxygen-html/" xlink:href="/usr/local/share/doc/SpaceVecAlg/doxygen-html/a00009.html" target="_top" xlink:title="EigenUtility.h">
<polygon fill="white" stroke="black" points="102.5,-0.5 102.5,-19.5 177.5,-19.5 177.5,-0.5 102.5,-0.5"/>
<text text-anchor="middle" x="140" y="-7.5" font-family="Helvetica,sans-Serif" font-size="10.00">EigenUtility.h</text>
</a>
</g>
</g>
<!-- Node4&#45;&gt;Node6 -->
<g id="edge5" class="edge"><title>Node4&#45;&gt;Node6</title>
<path fill="none" stroke="midnightblue" d="M363.01,-56.4435C315.222,-46.7057 237.346,-30.8366 187.412,-20.6614"/>
<polygon fill="midnightblue" stroke="midnightblue" points="188.006,-17.2106 177.509,-18.6433 186.609,-24.0696 188.006,-17.2106"/>
</g>
<!-- Node7 -->
<g id="node7" class="node"><title>Node7</title>
<g id="a_node7"><a doxygen="/usr/local/share/doc/SpaceVecAlg/doxygen-html/SpaceVecAlg.doxytag:/usr/local/share/doc/SpaceVecAlg/doxygen-html/" xlink:href="/usr/local/share/doc/SpaceVecAlg/doxygen-html/a00011.html" target="_top" xlink:title="MathFunc.h">
<polygon fill="white" stroke="black" points="196,-0.5 196,-19.5 264,-19.5 264,-0.5 196,-0.5"/>
<text text-anchor="middle" x="230" y="-7.5" font-family="Helvetica,sans-Serif" font-size="10.00">MathFunc.h</text>
</a>
</g>
</g>
<!-- Node4&#45;&gt;Node7 -->
<g id="edge6" class="edge"><title>Node4&#45;&gt;Node7</title>
<path fill="none" stroke="midnightblue" d="M377.271,-56.4435C347.574,-47.2801 300.284,-32.6876 267.331,-22.5192"/>
<polygon fill="midnightblue" stroke="midnightblue" points="268.187,-19.1206 257.6,-19.5164 266.123,-25.8094 268.187,-19.1206"/>
</g>
<!-- Node8 -->
<g id="node8" class="node"><title>Node8</title>
<g id="a_node8"><a doxygen="/usr/local/share/doc/SpaceVecAlg/doxygen-html/SpaceVecAlg.doxytag:/usr/local/share/doc/SpaceVecAlg/doxygen-html/" xlink:href="/usr/local/share/doc/SpaceVecAlg/doxygen-html/a00012.html" target="_top" xlink:title="MotionVec.h">
<polygon fill="white" stroke="black" points="282.5,-0.5 282.5,-19.5 353.5,-19.5 353.5,-0.5 282.5,-0.5"/>
<text text-anchor="middle" x="318" y="-7.5" font-family="Helvetica,sans-Serif" font-size="10.00">MotionVec.h</text>
</a>
</g>
</g>
<!-- Node4&#45;&gt;Node8 -->
<g id="edge7" class="edge"><title>Node4&#45;&gt;Node8</title>
<path fill="none" stroke="midnightblue" d="M391.022,-56.324C377.45,-47.9002 356.62,-34.9709 340.675,-25.0741"/>
<polygon fill="midnightblue" stroke="midnightblue" points="342.286,-21.9544 331.943,-19.6545 338.594,-27.9019 342.286,-21.9544"/>
</g>
<!-- Node9 -->
<g id="node9" class="node"><title>Node9</title>
<g id="a_node9"><a doxygen="/usr/local/share/doc/SpaceVecAlg/doxygen-html/SpaceVecAlg.doxytag:/usr/local/share/doc/SpaceVecAlg/doxygen-html/" xlink:href="/usr/local/share/doc/SpaceVecAlg/doxygen-html/a00010.html" target="_top" xlink:title="ForceVec.h">
<polygon fill="white" stroke="black" points="371.5,-0.5 371.5,-19.5 438.5,-19.5 438.5,-0.5 371.5,-0.5"/>
<text text-anchor="middle" x="405" y="-7.5" font-family="Helvetica,sans-Serif" font-size="10.00">ForceVec.h</text>
</a>
</g>
</g>
<!-- Node4&#45;&gt;Node9 -->
<g id="edge8" class="edge"><title>Node4&#45;&gt;Node9</title>
<path fill="none" stroke="midnightblue" d="M405,-56.083C405,-49.0059 405,-38.8611 405,-29.9865"/>
<polygon fill="midnightblue" stroke="midnightblue" points="408.5,-29.751 405,-19.7511 401.5,-29.7511 408.5,-29.751"/>
</g>
<!-- Node10 -->
<g id="node10" class="node"><title>Node10</title>
<g id="a_node10"><a doxygen="/usr/local/share/doc/SpaceVecAlg/doxygen-html/SpaceVecAlg.doxytag:/usr/local/share/doc/SpaceVecAlg/doxygen-html/" xlink:href="/usr/local/share/doc/SpaceVecAlg/doxygen-html/a00015.html" target="_top" xlink:title="RBInertia.h">
<polygon fill="white" stroke="black" points="457,-0.5 457,-19.5 523,-19.5 523,-0.5 457,-0.5"/>
<text text-anchor="middle" x="490" y="-7.5" font-family="Helvetica,sans-Serif" font-size="10.00">RBInertia.h</text>
</a>
</g>
</g>
<!-- Node4&#45;&gt;Node10 -->
<g id="edge9" class="edge"><title>Node4&#45;&gt;Node10</title>
<path fill="none" stroke="midnightblue" d="M418.657,-56.324C431.916,-47.9002 452.268,-34.9709 467.846,-25.0741"/>
<polygon fill="midnightblue" stroke="midnightblue" points="469.813,-27.9711 476.377,-19.6545 466.06,-22.0626 469.813,-27.9711"/>
</g>
<!-- Node11 -->
<g id="node11" class="node"><title>Node11</title>
<g id="a_node11"><a doxygen="/usr/local/share/doc/SpaceVecAlg/doxygen-html/SpaceVecAlg.doxytag:/usr/local/share/doc/SpaceVecAlg/doxygen-html/" xlink:href="/usr/local/share/doc/SpaceVecAlg/doxygen-html/a00006.html" target="_top" xlink:title="ABInertia.h">
<polygon fill="white" stroke="black" points="541.5,-0.5 541.5,-19.5 606.5,-19.5 606.5,-0.5 541.5,-0.5"/>
<text text-anchor="middle" x="574" y="-7.5" font-family="Helvetica,sans-Serif" font-size="10.00">ABInertia.h</text>
</a>
</g>
</g>
<!-- Node4&#45;&gt;Node11 -->
<g id="edge10" class="edge"><title>Node4&#45;&gt;Node11</title>
<path fill="none" stroke="midnightblue" d="M431.779,-56.4435C460.333,-47.3196 505.733,-32.8133 537.537,-22.6509"/>
<polygon fill="midnightblue" stroke="midnightblue" points="538.886,-25.8941 547.347,-19.5164 536.756,-19.2262 538.886,-25.8941"/>
</g>
<!-- Node12 -->
<g id="node12" class="node"><title>Node12</title>
<g id="a_node12"><a doxygen="/usr/local/share/doc/SpaceVecAlg/doxygen-html/SpaceVecAlg.doxytag:/usr/local/share/doc/SpaceVecAlg/doxygen-html/" xlink:href="/usr/local/share/doc/SpaceVecAlg/doxygen-html/a00014.html" target="_top" xlink:title="PTransform.h">
<polygon fill="white" stroke="black" points="625,-0.5 625,-19.5 701,-19.5 701,-0.5 625,-0.5"/>
<text text-anchor="middle" x="663" y="-7.5" font-family="Helvetica,sans-Serif" font-size="10.00">PTransform.h</text>
</a>
</g>
</g>
<!-- Node4&#45;&gt;Node12 -->
<g id="edge11" class="edge"><title>Node4&#45;&gt;Node12</title>
<path fill="none" stroke="midnightblue" d="M445.881,-56.4435C491.779,-46.837 566.184,-31.2637 614.857,-21.0763"/>
<polygon fill="midnightblue" stroke="midnightblue" points="615.763,-24.4628 624.834,-18.9883 614.329,-17.6113 615.763,-24.4628"/>
</g>
<!-- Node13 -->
<g id="node13" class="node"><title>Node13</title>
<g id="a_node13"><a doxygen="/usr/local/share/doc/SpaceVecAlg/doxygen-html/SpaceVecAlg.doxytag:/usr/local/share/doc/SpaceVecAlg/doxygen-html/" xlink:href="/usr/local/share/doc/SpaceVecAlg/doxygen-html/a00013.html" target="_top" xlink:title="Operators.h">
<polygon fill="white" stroke="black" points="719,-0.5 719,-19.5 787,-19.5 787,-0.5 719,-0.5"/>
<text text-anchor="middle" x="753" y="-7.5" font-family="Helvetica,sans-Serif" font-size="10.00">Operators.h</text>
</a>
</g>
</g>
<!-- Node4&#45;&gt;Node13 -->
<g id="edge12" class="edge"><title>Node4&#45;&gt;Node13</title>
<path fill="none" stroke="midnightblue" d="M470.63,-56.4727C530.285,-48.4584 620.956,-35.6223 708.892,-20.1129"/>
<polygon fill="midnightblue" stroke="midnightblue" points="709.535,-23.5535 718.768,-18.3575 708.31,-16.6615 709.535,-23.5535"/>
</g>
<!-- Node14&#45;&gt;Node2 -->
<g id="edge16" class="edge"><title>Node14&#45;&gt;Node2</title>
<path fill="none" stroke="midnightblue" d="M652.058,-168.124C644.186,-155.158 632.359,-130.565 642,-112 649.153,-98.2262 662.671,-87.783 675.447,-80.4413"/>
<polygon fill="midnightblue" stroke="midnightblue" points="677.317,-83.412 684.517,-75.6403 674.042,-77.2252 677.317,-83.412"/>
</g>
<!-- Node14&#45;&gt;Node3 -->
<g id="edge14" class="edge"><title>Node14&#45;&gt;Node3</title>
<path fill="none" stroke="midnightblue" d="M683.279,-168.39C701.701,-161.073 726.261,-149.028 743,-132 756.009,-118.767 764.941,-99.3692 770.2,-85.2098"/>
<polygon fill="midnightblue" stroke="midnightblue" points="773.565,-86.1866 773.511,-75.5919 766.946,-83.9077 773.565,-86.1866"/>
</g>
<!-- Node14&#45;&gt;Node4 -->
<g id="edge17" class="edge"><title>Node14&#45;&gt;Node4</title>
<path fill="none" stroke="midnightblue" d="M623.898,-173.931C585.474,-169.313 522.112,-158.141 474,-132 451.516,-119.784 430.89,-98.4291 418.16,-83.5432"/>
<polygon fill="midnightblue" stroke="midnightblue" points="420.695,-81.1163 411.623,-75.644 415.302,-85.5794 420.695,-81.1163"/>
</g>
<!-- Node15 -->
<g id="node15" class="node"><title>Node15</title>
<polygon fill="white" stroke="#bfbfbf" points="651.5,-112.5 651.5,-131.5 734.5,-131.5 734.5,-112.5 651.5,-112.5"/>
<text text-anchor="middle" x="693" y="-119.5" font-family="Helvetica,sans-Serif" font-size="10.00">unordered_map</text>
</g>
<!-- Node14&#45;&gt;Node15 -->
<g id="edge15" class="edge"><title>Node14&#45;&gt;Node15</title>
<path fill="none" stroke="midnightblue" d="M663.78,-168.083C668.672,-160.534 675.827,-149.495 681.833,-140.23"/>
<polygon fill="midnightblue" stroke="midnightblue" points="684.826,-142.046 687.328,-131.751 678.952,-138.239 684.826,-142.046"/>
</g>
<!-- Node16 -->
<g id="node16" class="node"><title>Node16</title>
<g id="a_node16"><a xlink:href="a00018.html" target="_top" xlink:title="Body.h">
<polygon fill="white" stroke="black" points="483.5,-112.5 483.5,-131.5 530.5,-131.5 530.5,-112.5 483.5,-112.5"/>
<text text-anchor="middle" x="507" y="-119.5" font-family="Helvetica,sans-Serif" font-size="10.00">Body.h</text>
</a>
</g>
</g>
<!-- Node14&#45;&gt;Node16 -->
<g id="edge18" class="edge"><title>Node14&#45;&gt;Node16</title>
<path fill="none" stroke="midnightblue" d="M634.074,-168.444C608.781,-159.399 568.698,-145.064 540.32,-134.916"/>
<polygon fill="midnightblue" stroke="midnightblue" points="541.409,-131.588 530.814,-131.516 539.052,-138.179 541.409,-131.588"/>
</g>
<!-- Node18 -->
<g id="node18" class="node"><title>Node18</title>
<g id="a_node18"><a xlink:href="a00031.html" target="_top" xlink:title="Joint.h">
<polygon fill="white" stroke="black" points="549,-112.5 549,-131.5 595,-131.5 595,-112.5 549,-112.5"/>
<text text-anchor="middle" x="572" y="-119.5" font-family="Helvetica,sans-Serif" font-size="10.00">Joint.h</text>
</a>
</g>
</g>
<!-- Node14&#45;&gt;Node18 -->
<g id="edge21" class="edge"><title>Node14&#45;&gt;Node18</title>
<path fill="none" stroke="midnightblue" d="M644.183,-168.324C630.767,-159.9 610.176,-146.971 594.414,-137.074"/>
<polygon fill="midnightblue" stroke="midnightblue" points="596.113,-134.008 585.783,-131.655 592.391,-139.936 596.113,-134.008"/>
</g>
<!-- Node14&#45;&gt;Node21 -->
<g id="edge28" class="edge"><title>Node14&#45;&gt;Node21</title>
<path fill="none" stroke="midnightblue" d="M685.729,-168.444C715.426,-159.28 762.716,-144.688 795.669,-134.519"/>
<polygon fill="midnightblue" stroke="midnightblue" points="796.877,-137.809 805.4,-131.516 794.813,-131.121 796.877,-137.809"/>
</g>
<!-- Node16&#45;&gt;Node4 -->
<g id="edge20" class="edge"><title>Node16&#45;&gt;Node4</title>
<path fill="none" stroke="midnightblue" d="M490.612,-112.324C474.329,-103.703 449.133,-90.3643 430.284,-80.3855"/>
<polygon fill="midnightblue" stroke="midnightblue" points="431.823,-77.2402 421.347,-75.6545 428.548,-83.4267 431.823,-77.2402"/>
</g>
<!-- Node17 -->
<g id="node17" class="node"><title>Node17</title>
<polygon fill="white" stroke="#bfbfbf" points="492.5,-56.5 492.5,-75.5 533.5,-75.5 533.5,-56.5 492.5,-56.5"/>
<text text-anchor="middle" x="513" y="-63.5" font-family="Helvetica,sans-Serif" font-size="10.00">string</text>
</g>
<!-- Node16&#45;&gt;Node17 -->
<g id="edge19" class="edge"><title>Node16&#45;&gt;Node17</title>
<path fill="none" stroke="midnightblue" d="M507.991,-112.083C508.786,-104.927 509.929,-94.6353 510.923,-85.6911"/>
<polygon fill="midnightblue" stroke="midnightblue" points="514.402,-86.0765 512.028,-75.7511 507.445,-85.3034 514.402,-86.0765"/>
</g>
<!-- Node18&#45;&gt;Node2 -->
<g id="edge26" class="edge"><title>Node18&#45;&gt;Node2</title>
<path fill="none" stroke="midnightblue" d="M593.233,-112.444C615.384,-103.517 650.319,-89.4387 675.436,-79.3168"/>
<polygon fill="midnightblue" stroke="midnightblue" points="676.9,-82.5006 684.867,-75.5164 674.283,-76.0079 676.9,-82.5006"/>
</g>
<!-- Node18&#45;&gt;Node3 -->
<g id="edge24" class="edge"><title>Node18&#45;&gt;Node3</title>
<path fill="none" stroke="midnightblue" d="M595.005,-114.91C629.275,-105.839 694.199,-88.6532 736.256,-77.5205"/>
<polygon fill="midnightblue" stroke="midnightblue" points="737.391,-80.8406 746.163,-74.8981 735.6,-74.0737 737.391,-80.8406"/>
</g>
<!-- Node18&#45;&gt;Node4 -->
<g id="edge27" class="edge"><title>Node18&#45;&gt;Node4</title>
<path fill="none" stroke="midnightblue" d="M548.779,-113.492C520.839,-104.457 473.619,-89.1881 440.956,-78.6263"/>
<polygon fill="midnightblue" stroke="midnightblue" points="441.915,-75.2583 431.323,-75.5118 439.762,-81.9188 441.915,-75.2583"/>
</g>
<!-- Node18&#45;&gt;Node17 -->
<g id="edge25" class="edge"><title>Node18&#45;&gt;Node17</title>
<path fill="none" stroke="midnightblue" d="M562.521,-112.324C553.799,-104.341 540.657,-92.3128 530.102,-82.6529"/>
<polygon fill="midnightblue" stroke="midnightblue" points="532.392,-80.0036 522.652,-75.8339 527.666,-85.1674 532.392,-80.0036"/>
</g>
<!-- Node19 -->
<g id="node19" class="node"><title>Node19</title>
<polygon fill="white" stroke="#bfbfbf" points="552,-56.5 552,-75.5 596,-75.5 596,-56.5 552,-56.5"/>
<text text-anchor="middle" x="574" y="-63.5" font-family="Helvetica,sans-Serif" font-size="10.00">cmath</text>
</g>
<!-- Node18&#45;&gt;Node19 -->
<g id="edge22" class="edge"><title>Node18&#45;&gt;Node19</title>
<path fill="none" stroke="midnightblue" d="M572.33,-112.083C572.592,-105.006 572.968,-94.8611 573.297,-85.9865"/>
<polygon fill="midnightblue" stroke="midnightblue" points="576.803,-85.8738 573.676,-75.7511 569.808,-85.6147 576.803,-85.8738"/>
</g>
<!-- Node20 -->
<g id="node20" class="node"><title>Node20</title>
<polygon fill="white" stroke="#bfbfbf" points="614,-56.5 614,-75.5 666,-75.5 666,-56.5 614,-56.5"/>
<text text-anchor="middle" x="640" y="-63.5" font-family="Helvetica,sans-Serif" font-size="10.00">sstream</text>
</g>
<!-- Node18&#45;&gt;Node20 -->
<g id="edge23" class="edge"><title>Node18&#45;&gt;Node20</title>
<path fill="none" stroke="midnightblue" d="M582.925,-112.324C593.175,-104.185 608.721,-91.8395 621.001,-82.0874"/>
<polygon fill="midnightblue" stroke="midnightblue" points="623.221,-84.7937 628.876,-75.8339 618.868,-79.3119 623.221,-84.7937"/>
</g>
</g>
</svg>
