<?xml version="1.0" encoding="UTF-8" standalone="no"?>
<!DOCTYPE svg PUBLIC "-//W3C//DTD SVG 1.1//EN"
 "http://www.w3.org/Graphics/SVG/1.1/DTD/svg11.dtd">
<!-- Generated by graphviz version 2.36.0 (20140111.2315)
 -->
<!-- Title: rbd::MultiBodyConfig Pages: 1 -->
<svg width="582pt" height="266pt"
 viewBox="0.00 0.00 582.00 266.00" xmlns="http://www.w3.org/2000/svg" xmlns:xlink="http://www.w3.org/1999/xlink">
<g id="graph0" class="graph" transform="scale(1 1) rotate(0) translate(4 262)">
<title>rbd::MultiBodyConfig</title>
<polygon fill="white" stroke="none" points="-4,4 -4,-262 578,-262 578,4 -4,4"/>
<!-- Node1 -->
<g id="node1" class="node"><title>Node1</title>
<polygon fill="#bfbfbf" stroke="black" points="466,-93.5 466,-112.5 574,-112.5 574,-93.5 466,-93.5"/>
<text text-anchor="middle" x="520" y="-100.5" font-family="Helvetica,sans-Serif" font-size="10.00">rbd::MultiBodyConfig</text>
</g>
<!-- Node2 -->
<g id="node2" class="node"><title>Node2</title>
<polygon fill="white" stroke="#bfbfbf" points="220.5,-216.5 220.5,-257.5 327.5,-257.5 327.5,-216.5 220.5,-216.5"/>
<text text-anchor="start" x="228.5" y="-245.5" font-family="Helvetica,sans-Serif" font-size="10.00">std::vector&lt; Eigen</text>
<text text-anchor="start" x="228.5" y="-234.5" font-family="Helvetica,sans-Serif" font-size="10.00">::Matrix&lt; double, 6,</text>
<text text-anchor="middle" x="274" y="-223.5" font-family="Helvetica,sans-Serif" font-size="10.00"> Eigen::Dynamic &gt; &gt;</text>
</g>
<!-- Node2&#45;&gt;Node1 -->
<g id="edge1" class="edge"><title>Node2&#45;&gt;Node1</title>
<path fill="none" stroke="#9a32cd" stroke-dasharray="5,2" d="M337.808,-240.633C372.724,-239.773 415.54,-233.702 448,-213 486.52,-188.433 508.321,-134.632 515.91,-112.649"/>
<polygon fill="#9a32cd" stroke="#9a32cd" points="337.677,-237.134 327.717,-240.744 337.755,-244.134 337.677,-237.134"/>
<text text-anchor="middle" x="410" y="-240" font-family="Helvetica,sans-Serif" font-size="10.00"> motionSubspace</text>
</g>
<!-- Node3 -->
<g id="node3" class="node"><title>Node3</title>
<polygon fill="white" stroke="#bfbfbf" points="212.5,-155 212.5,-185 335.5,-185 335.5,-155 212.5,-155"/>
<text text-anchor="start" x="220.5" y="-173" font-family="Helvetica,sans-Serif" font-size="10.00">std::vector&lt; sva::Motion</text>
<text text-anchor="middle" x="274" y="-162" font-family="Helvetica,sans-Serif" font-size="10.00">Vecd &gt;</text>
</g>
<!-- Node3&#45;&gt;Node1 -->
<g id="edge2" class="edge"><title>Node3&#45;&gt;Node1</title>
<path fill="none" stroke="#9a32cd" stroke-dasharray="5,2" d="M345.918,-167.977C377.871,-165.307 415.613,-159.664 448,-148 470.792,-139.791 493.879,-123.307 507.295,-112.731"/>
<polygon fill="#9a32cd" stroke="#9a32cd" points="345.469,-164.5 335.761,-168.743 345.996,-171.481 345.469,-164.5"/>
<text text-anchor="middle" x="410" y="-201" font-family="Helvetica,sans-Serif" font-size="10.00"> bodyAccB</text>
<text text-anchor="middle" x="410" y="-190" font-family="Helvetica,sans-Serif" font-size="10.00">bodyVelB</text>
<text text-anchor="middle" x="410" y="-179" font-family="Helvetica,sans-Serif" font-size="10.00">bodyVelW</text>
<text text-anchor="middle" x="410" y="-168" font-family="Helvetica,sans-Serif" font-size="10.00">jointVelocity</text>
</g>
<!-- Node4 -->
<g id="node4" class="node"><title>Node4</title>
<g id="a_node4"><a doxygen="/usr/local/share/doc/SpaceVecAlg/doxygen-html/SpaceVecAlg.doxytag:/usr/local/share/doc/SpaceVecAlg/doxygen-html/" xlink:href="/usr/local/share/doc/SpaceVecAlg/doxygen-html/a00003.html" target="_top" xlink:title="sva::MotionVec\&lt; T \&gt;">
<polygon fill="white" stroke="black" points="2.5,-160.5 2.5,-179.5 111.5,-179.5 111.5,-160.5 2.5,-160.5"/>
<text text-anchor="middle" x="57" y="-167.5" font-family="Helvetica,sans-Serif" font-size="10.00">sva::MotionVec&lt; T &gt;</text>
</a>
</g>
</g>
<!-- Node4&#45;&gt;Node3 -->
<g id="edge3" class="edge"><title>Node4&#45;&gt;Node3</title>
<path fill="none" stroke="#9a32cd" stroke-dasharray="5,2" d="M122.001,-170C150.622,-170 184.192,-170 212.402,-170"/>
<polygon fill="#9a32cd" stroke="#9a32cd" points="121.699,-166.5 111.699,-170 121.699,-173.5 121.699,-166.5"/>
<text text-anchor="middle" x="154" y="-173" font-family="Helvetica,sans-Serif" font-size="10.00"> elements</text>
</g>
<!-- Node5 -->
<g id="node5" class="node"><title>Node5</title>
<polygon fill="white" stroke="#bfbfbf" points="214.5,-88 214.5,-118 333.5,-118 333.5,-88 214.5,-88"/>
<text text-anchor="start" x="222.5" y="-106" font-family="Helvetica,sans-Serif" font-size="10.00">std::vector&lt; std::vector</text>
<text text-anchor="middle" x="274" y="-95" font-family="Helvetica,sans-Serif" font-size="10.00">&lt; double &gt; &gt;</text>
</g>
<!-- Node5&#45;&gt;Node1 -->
<g id="edge4" class="edge"><title>Node5&#45;&gt;Node1</title>
<path fill="none" stroke="#9a32cd" stroke-dasharray="5,2" d="M343.886,-103C382.52,-103 429.985,-103 465.748,-103"/>
<polygon fill="#9a32cd" stroke="#9a32cd" points="343.755,-99.5001 333.755,-103 343.755,-106.5 343.755,-99.5001"/>
<text text-anchor="middle" x="410" y="-139" font-family="Helvetica,sans-Serif" font-size="10.00"> jointTorque</text>
<text text-anchor="middle" x="410" y="-128" font-family="Helvetica,sans-Serif" font-size="10.00">alphaD</text>
<text text-anchor="middle" x="410" y="-117" font-family="Helvetica,sans-Serif" font-size="10.00">alpha</text>
<text text-anchor="middle" x="410" y="-106" font-family="Helvetica,sans-Serif" font-size="10.00">q</text>
</g>
<!-- Node6 -->
<g id="node6" class="node"><title>Node6</title>
<polygon fill="white" stroke="#bfbfbf" points="2,-93.5 2,-112.5 112,-112.5 112,-93.5 2,-93.5"/>
<text text-anchor="middle" x="57" y="-100.5" font-family="Helvetica,sans-Serif" font-size="10.00">std::vector&lt; double &gt;</text>
</g>
<!-- Node6&#45;&gt;Node5 -->
<g id="edge5" class="edge"><title>Node6&#45;&gt;Node5</title>
<path fill="none" stroke="#9a32cd" stroke-dasharray="5,2" d="M122.341,-103C151.511,-103 185.764,-103 214.233,-103"/>
<polygon fill="#9a32cd" stroke="#9a32cd" points="122.254,-99.5001 112.254,-103 122.254,-106.5 122.254,-99.5001"/>
<text text-anchor="middle" x="154" y="-106" font-family="Helvetica,sans-Serif" font-size="10.00"> elements</text>
</g>
<!-- Node7 -->
<g id="node7" class="node"><title>Node7</title>
<polygon fill="white" stroke="#bfbfbf" points="194.5,-38.5 194.5,-57.5 353.5,-57.5 353.5,-38.5 194.5,-38.5"/>
<text text-anchor="middle" x="274" y="-45.5" font-family="Helvetica,sans-Serif" font-size="10.00">std::vector&lt; sva::PTransformd &gt;</text>
</g>
<!-- Node7&#45;&gt;Node1 -->
<g id="edge6" class="edge"><title>Node7&#45;&gt;Node1</title>
<path fill="none" stroke="#9a32cd" stroke-dasharray="5,2" d="M363.718,-50.7969C391.164,-53.3654 421.214,-57.9473 448,-66 468.899,-72.2829 490.868,-84.7756 504.734,-93.4984"/>
<polygon fill="#9a32cd" stroke="#9a32cd" points="363.998,-47.3082 353.735,-49.939 363.399,-54.2825 363.998,-47.3082"/>
<text text-anchor="middle" x="410" y="-91" font-family="Helvetica,sans-Serif" font-size="10.00"> jointConfig</text>
<text text-anchor="middle" x="410" y="-80" font-family="Helvetica,sans-Serif" font-size="10.00">bodyPosW</text>
<text text-anchor="middle" x="410" y="-69" font-family="Helvetica,sans-Serif" font-size="10.00">parentToSon</text>
</g>
<!-- Node8 -->
<g id="node8" class="node"><title>Node8</title>
<g id="a_node8"><a doxygen="/usr/local/share/doc/SpaceVecAlg/doxygen-html/SpaceVecAlg.doxytag:/usr/local/share/doc/SpaceVecAlg/doxygen-html/" xlink:href="/usr/local/share/doc/SpaceVecAlg/doxygen-html/a00004.html" target="_top" xlink:title="sva::PTransform\&lt; T \&gt;">
<polygon fill="white" stroke="black" points="0.5,-38.5 0.5,-57.5 113.5,-57.5 113.5,-38.5 0.5,-38.5"/>
<text text-anchor="middle" x="57" y="-45.5" font-family="Helvetica,sans-Serif" font-size="10.00">sva::PTransform&lt; T &gt;</text>
</a>
</g>
</g>
<!-- Node8&#45;&gt;Node7 -->
<g id="edge7" class="edge"><title>Node8&#45;&gt;Node7</title>
<path fill="none" stroke="#9a32cd" stroke-dasharray="5,2" d="M123.947,-48C146.106,-48 171.049,-48 194.1,-48"/>
<polygon fill="#9a32cd" stroke="#9a32cd" points="123.647,-44.5001 113.647,-48 123.647,-51.5001 123.647,-44.5001"/>
<text text-anchor="middle" x="154" y="-51" font-family="Helvetica,sans-Serif" font-size="10.00"> elements</text>
</g>
<!-- Node9 -->
<g id="node9" class="node"><title>Node9</title>
<polygon fill="white" stroke="#bfbfbf" points="199,-0.5 199,-19.5 349,-19.5 349,-0.5 199,-0.5"/>
<text text-anchor="middle" x="274" y="-7.5" font-family="Helvetica,sans-Serif" font-size="10.00">std::vector&lt; sva::ForceVecd &gt;</text>
</g>
<!-- Node9&#45;&gt;Node1 -->
<g id="edge8" class="edge"><title>Node9&#45;&gt;Node1</title>
<path fill="none" stroke="#9a32cd" stroke-dasharray="5,2" d="M359.587,-13.1499C388.73,-16.8029 420.846,-23.8205 448,-37 475.858,-50.5214 500.349,-78.7015 511.921,-93.4832"/>
<polygon fill="#9a32cd" stroke="#9a32cd" points="359.747,-9.64558 349.415,-11.9935 358.956,-16.6008 359.747,-9.64558"/>
<text text-anchor="middle" x="410" y="-40" font-family="Helvetica,sans-Serif" font-size="10.00"> force</text>
</g>
<!-- Node10 -->
<g id="node10" class="node"><title>Node10</title>
<g id="a_node10"><a doxygen="/usr/local/share/doc/SpaceVecAlg/doxygen-html/SpaceVecAlg.doxytag:/usr/local/share/doc/SpaceVecAlg/doxygen-html/" xlink:href="/usr/local/share/doc/SpaceVecAlg/doxygen-html/a00002.html" target="_top" xlink:title="sva::ForceVec\&lt; T \&gt;">
<polygon fill="white" stroke="black" points="5,-0.5 5,-19.5 109,-19.5 109,-0.5 5,-0.5"/>
<text text-anchor="middle" x="57" y="-7.5" font-family="Helvetica,sans-Serif" font-size="10.00">sva::ForceVec&lt; T &gt;</text>
</a>
</g>
</g>
<!-- Node10&#45;&gt;Node9 -->
<g id="edge9" class="edge"><title>Node10&#45;&gt;Node9</title>
<path fill="none" stroke="#9a32cd" stroke-dasharray="5,2" d="M119.239,-10C144.072,-10 172.976,-10 198.976,-10"/>
<polygon fill="#9a32cd" stroke="#9a32cd" points="119.225,-6.5001 109.225,-10 119.225,-13.5001 119.225,-6.5001"/>
<text text-anchor="middle" x="154" y="-13" font-family="Helvetica,sans-Serif" font-size="10.00"> elements</text>
</g>
</g>
</svg>
