<?xml version="1.0" encoding="UTF-8" standalone="no"?>
<!DOCTYPE svg PUBLIC "-//W3C//DTD SVG 1.1//EN"
 "http://www.w3.org/Graphics/SVG/1.1/DTD/svg11.dtd">
<!-- Generated by graphviz version 2.36.0 (20140111.2315)
 -->
<!-- Title: CoM.h Pages: 1 -->
<svg width="795pt" height="308pt"
 viewBox="0.00 0.00 795.00 308.00" xmlns="http://www.w3.org/2000/svg" xmlns:xlink="http://www.w3.org/1999/xlink">
<g id="graph0" class="graph" transform="scale(1 1) rotate(0) translate(4 304)">
<title>CoM.h</title>
<polygon fill="white" stroke="none" points="-4,4 -4,-304 791,-304 791,4 -4,4"/>
<!-- Node1 -->
<g id="node1" class="node"><title>Node1</title>
<polygon fill="#bfbfbf" stroke="black" points="433,-280.5 433,-299.5 479,-299.5 479,-280.5 433,-280.5"/>
<text text-anchor="middle" x="456" y="-287.5" font-family="Helvetica,sans-Serif" font-size="10.00">CoM.h</text>
</g>
<!-- Node2 -->
<g id="node2" class="node"><title>Node2</title>
<polygon fill="white" stroke="#bfbfbf" points="5,-56.5 5,-75.5 49,-75.5 49,-56.5 5,-56.5"/>
<text text-anchor="middle" x="27" y="-63.5" font-family="Helvetica,sans-Serif" font-size="10.00">vector</text>
</g>
<!-- Node1&#45;&gt;Node2 -->
<g id="edge1" class="edge"><title>Node1&#45;&gt;Node2</title>
<path fill="none" stroke="midnightblue" d="M432.604,-280.795C375.064,-260.126 222.987,-202.504 108,-132 84.3956,-117.527 59.9638,-97.0289 44.1907,-82.9417"/>
<polygon fill="midnightblue" stroke="midnightblue" points="46.1367,-79.9814 36.3789,-75.854 41.433,-85.1656 46.1367,-79.9814"/>
</g>
<!-- Node3 -->
<g id="node3" class="node"><title>Node3</title>
<polygon fill="white" stroke="#bfbfbf" points="514.5,-224.5 514.5,-243.5 579.5,-243.5 579.5,-224.5 514.5,-224.5"/>
<text text-anchor="middle" x="547" y="-231.5" font-family="Helvetica,sans-Serif" font-size="10.00">Eigen/Core</text>
</g>
<!-- Node1&#45;&gt;Node3 -->
<g id="edge2" class="edge"><title>Node1&#45;&gt;Node3</title>
<path fill="none" stroke="midnightblue" d="M470.621,-280.324C484.949,-271.822 507.013,-258.729 523.749,-248.797"/>
<polygon fill="midnightblue" stroke="midnightblue" points="525.602,-251.768 532.416,-243.655 522.03,-245.748 525.602,-251.768"/>
</g>
<!-- Node4 -->
<g id="node4" class="node"><title>Node4</title>
<g id="a_node4"><a xlink:href="a00030.html" target="_top" xlink:title="Jacobian.h">
<polygon fill="white" stroke="black" points="394,-224.5 394,-243.5 458,-243.5 458,-224.5 394,-224.5"/>
<text text-anchor="middle" x="426" y="-231.5" font-family="Helvetica,sans-Serif" font-size="10.00">Jacobian.h</text>
</a>
</g>
</g>
<!-- Node1&#45;&gt;Node4 -->
<g id="edge3" class="edge"><title>Node1&#45;&gt;Node4</title>
<path fill="none" stroke="midnightblue" d="M451.046,-280.083C446.896,-272.613 440.847,-261.724 435.733,-252.52"/>
<polygon fill="midnightblue" stroke="midnightblue" points="438.778,-250.793 430.862,-243.751 432.659,-254.192 438.778,-250.793"/>
</g>
<!-- Node23 -->
<g id="node23" class="node"><title>Node23</title>
<polygon fill="white" stroke="#bfbfbf" points="470.5,-112.5 470.5,-131.5 553.5,-131.5 553.5,-112.5 470.5,-112.5"/>
<text text-anchor="middle" x="512" y="-119.5" font-family="Helvetica,sans-Serif" font-size="10.00">rbdyn/config.hh</text>
</g>
<!-- Node1&#45;&gt;Node23 -->
<g id="edge30" class="edge"><title>Node1&#45;&gt;Node23</title>
<path fill="none" stroke="midnightblue" d="M459.011,-280.075C467.864,-253.832 493.937,-176.545 505.888,-141.117"/>
<polygon fill="midnightblue" stroke="midnightblue" points="509.229,-142.162 509.11,-131.568 502.597,-139.925 509.229,-142.162"/>
</g>
<!-- Node5 -->
<g id="node5" class="node"><title>Node5</title>
<g id="a_node5"><a xlink:href="a00033.html" target="_top" xlink:title="MultiBody.h">
<polygon fill="white" stroke="black" points="280,-168.5 280,-187.5 348,-187.5 348,-168.5 280,-168.5"/>
<text text-anchor="middle" x="314" y="-175.5" font-family="Helvetica,sans-Serif" font-size="10.00">MultiBody.h</text>
</a>
</g>
</g>
<!-- Node4&#45;&gt;Node5 -->
<g id="edge4" class="edge"><title>Node4&#45;&gt;Node5</title>
<path fill="none" stroke="midnightblue" d="M408.005,-224.324C389.962,-215.625 361.953,-202.12 341.197,-192.113"/>
<polygon fill="midnightblue" stroke="midnightblue" points="342.478,-188.845 331.95,-187.655 339.438,-195.15 342.478,-188.845"/>
</g>
<!-- Node4&#45;&gt;Node23 -->
<g id="edge29" class="edge"><title>Node4&#45;&gt;Node23</title>
<path fill="none" stroke="midnightblue" d="M431.663,-224.367C440.069,-211.705 456.523,-187.486 472,-168 479.802,-158.178 489.078,-147.676 496.733,-139.291"/>
<polygon fill="midnightblue" stroke="midnightblue" points="499.518,-141.434 503.732,-131.713 494.376,-136.684 499.518,-141.434"/>
</g>
<!-- Node5&#45;&gt;Node2 -->
<g id="edge7" class="edge"><title>Node5&#45;&gt;Node2</title>
<path fill="none" stroke="midnightblue" d="M279.959,-169.508C247.123,-161.798 196.312,-148.587 154,-132 116.376,-117.251 75.1239,-94.8994 50.1506,-80.6271"/>
<polygon fill="midnightblue" stroke="midnightblue" points="51.8282,-77.5543 41.4179,-75.5854 48.3283,-83.6165 51.8282,-77.5543"/>
</g>
<!-- Node6 -->
<g id="node6" class="node"><title>Node6</title>
<polygon fill="white" stroke="#bfbfbf" points="199.5,-56.5 199.5,-75.5 258.5,-75.5 258.5,-56.5 199.5,-56.5"/>
<text text-anchor="middle" x="229" y="-63.5" font-family="Helvetica,sans-Serif" font-size="10.00">stdexcept</text>
</g>
<!-- Node5&#45;&gt;Node6 -->
<g id="edge5" class="edge"><title>Node5&#45;&gt;Node6</title>
<path fill="none" stroke="midnightblue" d="M298.883,-168.376C286.002,-160.372 267.759,-147.394 256,-132 245.348,-118.055 238.15,-99.3003 233.883,-85.5209"/>
<polygon fill="midnightblue" stroke="midnightblue" points="237.196,-84.3748 231.08,-75.7235 230.466,-86.3006 237.196,-84.3748"/>
</g>
<!-- Node7 -->
<g id="node7" class="node"><title>Node7</title>
<polygon fill="white" stroke="#bfbfbf" points="369.5,-112.5 369.5,-131.5 452.5,-131.5 452.5,-112.5 369.5,-112.5"/>
<text text-anchor="middle" x="411" y="-119.5" font-family="Helvetica,sans-Serif" font-size="10.00">unordered_map</text>
</g>
<!-- Node5&#45;&gt;Node7 -->
<g id="edge6" class="edge"><title>Node5&#45;&gt;Node7</title>
<path fill="none" stroke="midnightblue" d="M329.585,-168.324C344.999,-159.743 368.812,-146.486 386.71,-136.522"/>
<polygon fill="midnightblue" stroke="midnightblue" points="388.419,-139.577 395.454,-131.655 385.014,-133.461 388.419,-139.577"/>
</g>
<!-- Node8 -->
<g id="node8" class="node"><title>Node8</title>
<g id="a_node8"><a doxygen="/usr/local/share/doc/SpaceVecAlg/doxygen-html/SpaceVecAlg.doxytag:/usr/local/share/doc/SpaceVecAlg/doxygen-html/" xlink:href="/usr/local/share/doc/SpaceVecAlg/doxygen-html/a00016.html" target="_top" xlink:title="SpaceVecAlg/SpaceVecAlg">
<polygon fill="white" stroke="black" points="336,-56.5 336,-75.5 474,-75.5 474,-56.5 336,-56.5"/>
<text text-anchor="middle" x="405" y="-63.5" font-family="Helvetica,sans-Serif" font-size="10.00">SpaceVecAlg/SpaceVecAlg</text>
</a>
</g>
</g>
<!-- Node5&#45;&gt;Node8 -->
<g id="edge8" class="edge"><title>Node5&#45;&gt;Node8</title>
<path fill="none" stroke="midnightblue" d="M319.514,-168.245C327.733,-155.43 343.957,-131.023 360,-112 368.726,-101.654 379.405,-90.9053 388.169,-82.5085"/>
<polygon fill="midnightblue" stroke="midnightblue" points="390.691,-84.9419 395.57,-75.5373 385.891,-79.8466 390.691,-84.9419"/>
</g>
<!-- Node18 -->
<g id="node18" class="node"><title>Node18</title>
<g id="a_node18"><a xlink:href="a00018.html" target="_top" xlink:title="Body.h">
<polygon fill="white" stroke="black" points="265.5,-112.5 265.5,-131.5 312.5,-131.5 312.5,-112.5 265.5,-112.5"/>
<text text-anchor="middle" x="289" y="-119.5" font-family="Helvetica,sans-Serif" font-size="10.00">Body.h</text>
</a>
</g>
</g>
<!-- Node5&#45;&gt;Node18 -->
<g id="edge18" class="edge"><title>Node5&#45;&gt;Node18</title>
<path fill="none" stroke="midnightblue" d="M309.872,-168.083C306.486,-160.77 301.584,-150.181 297.381,-141.103"/>
<polygon fill="midnightblue" stroke="midnightblue" points="300.429,-139.355 293.051,-131.751 294.077,-142.296 300.429,-139.355"/>
</g>
<!-- Node20 -->
<g id="node20" class="node"><title>Node20</title>
<g id="a_node20"><a xlink:href="a00031.html" target="_top" xlink:title="Joint.h">
<polygon fill="white" stroke="black" points="163,-112.5 163,-131.5 209,-131.5 209,-112.5 163,-112.5"/>
<text text-anchor="middle" x="186" y="-119.5" font-family="Helvetica,sans-Serif" font-size="10.00">Joint.h</text>
</a>
</g>
</g>
<!-- Node5&#45;&gt;Node20 -->
<g id="edge21" class="edge"><title>Node5&#45;&gt;Node20</title>
<path fill="none" stroke="midnightblue" d="M293.718,-168.444C272.653,-159.557 239.483,-145.563 215.514,-135.451"/>
<polygon fill="midnightblue" stroke="midnightblue" points="216.761,-132.179 206.187,-131.516 214.04,-138.628 216.761,-132.179"/>
</g>
<!-- Node5&#45;&gt;Node23 -->
<g id="edge28" class="edge"><title>Node5&#45;&gt;Node23</title>
<path fill="none" stroke="midnightblue" d="M345.374,-168.444C379.263,-159.201 433.403,-144.436 470.724,-134.257"/>
<polygon fill="midnightblue" stroke="midnightblue" points="472.046,-137.524 480.773,-131.516 470.205,-130.771 472.046,-137.524"/>
</g>
<!-- Node9 -->
<g id="node9" class="node"><title>Node9</title>
<g id="a_node9"><a doxygen="/usr/local/share/doc/SpaceVecAlg/doxygen-html/SpaceVecAlg.doxytag:/usr/local/share/doc/SpaceVecAlg/doxygen-html/" xlink:href="/usr/local/share/doc/SpaceVecAlg/doxygen-html/a00008.html" target="_top" xlink:title="EigenTypedef.h">
<polygon fill="white" stroke="black" points="-0.5,-0.5 -0.5,-19.5 84.5,-19.5 84.5,-0.5 -0.5,-0.5"/>
<text text-anchor="middle" x="42" y="-7.5" font-family="Helvetica,sans-Serif" font-size="10.00">EigenTypedef.h</text>
</a>
</g>
</g>
<!-- Node8&#45;&gt;Node9 -->
<g id="edge9" class="edge"><title>Node8&#45;&gt;Node9</title>
<path fill="none" stroke="midnightblue" d="M341.867,-56.4872C280.998,-48.145 186.021,-34.7763 94.5436,-20.2104"/>
<polygon fill="midnightblue" stroke="midnightblue" points="94.9872,-16.737 84.5599,-18.6136 93.8816,-23.6491 94.9872,-16.737"/>
</g>
<!-- Node10 -->
<g id="node10" class="node"><title>Node10</title>
<g id="a_node10"><a doxygen="/usr/local/share/doc/SpaceVecAlg/doxygen-html/SpaceVecAlg.doxytag:/usr/local/share/doc/SpaceVecAlg/doxygen-html/" xlink:href="/usr/local/share/doc/SpaceVecAlg/doxygen-html/a00009.html" target="_top" xlink:title="EigenUtility.h">
<polygon fill="white" stroke="black" points="102.5,-0.5 102.5,-19.5 177.5,-19.5 177.5,-0.5 102.5,-0.5"/>
<text text-anchor="middle" x="140" y="-7.5" font-family="Helvetica,sans-Serif" font-size="10.00">EigenUtility.h</text>
</a>
</g>
</g>
<!-- Node8&#45;&gt;Node10 -->
<g id="edge10" class="edge"><title>Node8&#45;&gt;Node10</title>
<path fill="none" stroke="midnightblue" d="M363.01,-56.4435C315.222,-46.7057 237.346,-30.8366 187.412,-20.6614"/>
<polygon fill="midnightblue" stroke="midnightblue" points="188.006,-17.2106 177.509,-18.6433 186.609,-24.0696 188.006,-17.2106"/>
</g>
<!-- Node11 -->
<g id="node11" class="node"><title>Node11</title>
<g id="a_node11"><a doxygen="/usr/local/share/doc/SpaceVecAlg/doxygen-html/SpaceVecAlg.doxytag:/usr/local/share/doc/SpaceVecAlg/doxygen-html/" xlink:href="/usr/local/share/doc/SpaceVecAlg/doxygen-html/a00011.html" target="_top" xlink:title="MathFunc.h">
<polygon fill="white" stroke="black" points="196,-0.5 196,-19.5 264,-19.5 264,-0.5 196,-0.5"/>
<text text-anchor="middle" x="230" y="-7.5" font-family="Helvetica,sans-Serif" font-size="10.00">MathFunc.h</text>
</a>
</g>
</g>
<!-- Node8&#45;&gt;Node11 -->
<g id="edge11" class="edge"><title>Node8&#45;&gt;Node11</title>
<path fill="none" stroke="midnightblue" d="M377.271,-56.4435C347.574,-47.2801 300.284,-32.6876 267.331,-22.5192"/>
<polygon fill="midnightblue" stroke="midnightblue" points="268.187,-19.1206 257.6,-19.5164 266.123,-25.8094 268.187,-19.1206"/>
</g>
<!-- Node12 -->
<g id="node12" class="node"><title>Node12</title>
<g id="a_node12"><a doxygen="/usr/local/share/doc/SpaceVecAlg/doxygen-html/SpaceVecAlg.doxytag:/usr/local/share/doc/SpaceVecAlg/doxygen-html/" xlink:href="/usr/local/share/doc/SpaceVecAlg/doxygen-html/a00012.html" target="_top" xlink:title="MotionVec.h">
<polygon fill="white" stroke="black" points="282.5,-0.5 282.5,-19.5 353.5,-19.5 353.5,-0.5 282.5,-0.5"/>
<text text-anchor="middle" x="318" y="-7.5" font-family="Helvetica,sans-Serif" font-size="10.00">MotionVec.h</text>
</a>
</g>
</g>
<!-- Node8&#45;&gt;Node12 -->
<g id="edge12" class="edge"><title>Node8&#45;&gt;Node12</title>
<path fill="none" stroke="midnightblue" d="M391.022,-56.324C377.45,-47.9002 356.62,-34.9709 340.675,-25.0741"/>
<polygon fill="midnightblue" stroke="midnightblue" points="342.286,-21.9544 331.943,-19.6545 338.594,-27.9019 342.286,-21.9544"/>
</g>
<!-- Node13 -->
<g id="node13" class="node"><title>Node13</title>
<g id="a_node13"><a doxygen="/usr/local/share/doc/SpaceVecAlg/doxygen-html/SpaceVecAlg.doxytag:/usr/local/share/doc/SpaceVecAlg/doxygen-html/" xlink:href="/usr/local/share/doc/SpaceVecAlg/doxygen-html/a00010.html" target="_top" xlink:title="ForceVec.h">
<polygon fill="white" stroke="black" points="371.5,-0.5 371.5,-19.5 438.5,-19.5 438.5,-0.5 371.5,-0.5"/>
<text text-anchor="middle" x="405" y="-7.5" font-family="Helvetica,sans-Serif" font-size="10.00">ForceVec.h</text>
</a>
</g>
</g>
<!-- Node8&#45;&gt;Node13 -->
<g id="edge13" class="edge"><title>Node8&#45;&gt;Node13</title>
<path fill="none" stroke="midnightblue" d="M405,-56.083C405,-49.0059 405,-38.8611 405,-29.9865"/>
<polygon fill="midnightblue" stroke="midnightblue" points="408.5,-29.751 405,-19.7511 401.5,-29.7511 408.5,-29.751"/>
</g>
<!-- Node14 -->
<g id="node14" class="node"><title>Node14</title>
<g id="a_node14"><a doxygen="/usr/local/share/doc/SpaceVecAlg/doxygen-html/SpaceVecAlg.doxytag:/usr/local/share/doc/SpaceVecAlg/doxygen-html/" xlink:href="/usr/local/share/doc/SpaceVecAlg/doxygen-html/a00015.html" target="_top" xlink:title="RBInertia.h">
<polygon fill="white" stroke="black" points="457,-0.5 457,-19.5 523,-19.5 523,-0.5 457,-0.5"/>
<text text-anchor="middle" x="490" y="-7.5" font-family="Helvetica,sans-Serif" font-size="10.00">RBInertia.h</text>
</a>
</g>
</g>
<!-- Node8&#45;&gt;Node14 -->
<g id="edge14" class="edge"><title>Node8&#45;&gt;Node14</title>
<path fill="none" stroke="midnightblue" d="M418.657,-56.324C431.916,-47.9002 452.268,-34.9709 467.846,-25.0741"/>
<polygon fill="midnightblue" stroke="midnightblue" points="469.813,-27.9711 476.377,-19.6545 466.06,-22.0626 469.813,-27.9711"/>
</g>
<!-- Node15 -->
<g id="node15" class="node"><title>Node15</title>
<g id="a_node15"><a doxygen="/usr/local/share/doc/SpaceVecAlg/doxygen-html/SpaceVecAlg.doxytag:/usr/local/share/doc/SpaceVecAlg/doxygen-html/" xlink:href="/usr/local/share/doc/SpaceVecAlg/doxygen-html/a00006.html" target="_top" xlink:title="ABInertia.h">
<polygon fill="white" stroke="black" points="541.5,-0.5 541.5,-19.5 606.5,-19.5 606.5,-0.5 541.5,-0.5"/>
<text text-anchor="middle" x="574" y="-7.5" font-family="Helvetica,sans-Serif" font-size="10.00">ABInertia.h</text>
</a>
</g>
</g>
<!-- Node8&#45;&gt;Node15 -->
<g id="edge15" class="edge"><title>Node8&#45;&gt;Node15</title>
<path fill="none" stroke="midnightblue" d="M431.779,-56.4435C460.333,-47.3196 505.733,-32.8133 537.537,-22.6509"/>
<polygon fill="midnightblue" stroke="midnightblue" points="538.886,-25.8941 547.347,-19.5164 536.756,-19.2262 538.886,-25.8941"/>
</g>
<!-- Node16 -->
<g id="node16" class="node"><title>Node16</title>
<g id="a_node16"><a doxygen="/usr/local/share/doc/SpaceVecAlg/doxygen-html/SpaceVecAlg.doxytag:/usr/local/share/doc/SpaceVecAlg/doxygen-html/" xlink:href="/usr/local/share/doc/SpaceVecAlg/doxygen-html/a00014.html" target="_top" xlink:title="PTransform.h">
<polygon fill="white" stroke="black" points="625,-0.5 625,-19.5 701,-19.5 701,-0.5 625,-0.5"/>
<text text-anchor="middle" x="663" y="-7.5" font-family="Helvetica,sans-Serif" font-size="10.00">PTransform.h</text>
</a>
</g>
</g>
<!-- Node8&#45;&gt;Node16 -->
<g id="edge16" class="edge"><title>Node8&#45;&gt;Node16</title>
<path fill="none" stroke="midnightblue" d="M445.881,-56.4435C491.779,-46.837 566.184,-31.2637 614.857,-21.0763"/>
<polygon fill="midnightblue" stroke="midnightblue" points="615.763,-24.4628 624.834,-18.9883 614.329,-17.6113 615.763,-24.4628"/>
</g>
<!-- Node17 -->
<g id="node17" class="node"><title>Node17</title>
<g id="a_node17"><a doxygen="/usr/local/share/doc/SpaceVecAlg/doxygen-html/SpaceVecAlg.doxytag:/usr/local/share/doc/SpaceVecAlg/doxygen-html/" xlink:href="/usr/local/share/doc/SpaceVecAlg/doxygen-html/a00013.html" target="_top" xlink:title="Operators.h">
<polygon fill="white" stroke="black" points="719,-0.5 719,-19.5 787,-19.5 787,-0.5 719,-0.5"/>
<text text-anchor="middle" x="753" y="-7.5" font-family="Helvetica,sans-Serif" font-size="10.00">Operators.h</text>
</a>
</g>
</g>
<!-- Node8&#45;&gt;Node17 -->
<g id="edge17" class="edge"><title>Node8&#45;&gt;Node17</title>
<path fill="none" stroke="midnightblue" d="M470.63,-56.4727C530.285,-48.4584 620.956,-35.6223 708.892,-20.1129"/>
<polygon fill="midnightblue" stroke="midnightblue" points="709.535,-23.5535 718.768,-18.3575 708.31,-16.6615 709.535,-23.5535"/>
</g>
<!-- Node18&#45;&gt;Node8 -->
<g id="edge20" class="edge"><title>Node18&#45;&gt;Node8</title>
<path fill="none" stroke="midnightblue" d="M307.381,-112.444C326.216,-103.675 355.731,-89.9355 377.379,-79.8579"/>
<polygon fill="midnightblue" stroke="midnightblue" points="379.117,-82.9098 386.705,-75.5164 376.162,-76.5637 379.117,-82.9098"/>
</g>
<!-- Node19 -->
<g id="node19" class="node"><title>Node19</title>
<polygon fill="white" stroke="#bfbfbf" points="276.5,-56.5 276.5,-75.5 317.5,-75.5 317.5,-56.5 276.5,-56.5"/>
<text text-anchor="middle" x="297" y="-63.5" font-family="Helvetica,sans-Serif" font-size="10.00">string</text>
</g>
<!-- Node18&#45;&gt;Node19 -->
<g id="edge19" class="edge"><title>Node18&#45;&gt;Node19</title>
<path fill="none" stroke="midnightblue" d="M290.321,-112.083C291.381,-104.927 292.906,-94.6353 294.231,-85.6911"/>
<polygon fill="midnightblue" stroke="midnightblue" points="297.7,-86.1561 295.704,-75.7511 290.776,-85.1302 297.7,-86.1561"/>
</g>
<!-- Node20&#45;&gt;Node2 -->
<g id="edge26" class="edge"><title>Node20&#45;&gt;Node2</title>
<path fill="none" stroke="midnightblue" d="M162.88,-113.148C135.487,-103.845 89.694,-88.2923 58.9309,-77.8444"/>
<polygon fill="midnightblue" stroke="midnightblue" points="59.717,-74.4152 49.1226,-74.5133 57.4659,-81.0433 59.717,-74.4152"/>
</g>
<!-- Node20&#45;&gt;Node6 -->
<g id="edge24" class="edge"><title>Node20&#45;&gt;Node6</title>
<path fill="none" stroke="midnightblue" d="M193.101,-112.083C199.237,-104.377 208.27,-93.0333 215.739,-83.6531"/>
<polygon fill="midnightblue" stroke="midnightblue" points="218.54,-85.7542 222.032,-75.7511 213.064,-81.3936 218.54,-85.7542"/>
</g>
<!-- Node20&#45;&gt;Node8 -->
<g id="edge27" class="edge"><title>Node20&#45;&gt;Node8</title>
<path fill="none" stroke="midnightblue" d="M209.023,-115.323C244.859,-106.487 314.623,-89.2848 360.51,-77.9701"/>
<polygon fill="midnightblue" stroke="midnightblue" points="361.615,-81.3025 370.487,-75.5102 359.939,-74.5061 361.615,-81.3025"/>
</g>
<!-- Node20&#45;&gt;Node19 -->
<g id="edge25" class="edge"><title>Node20&#45;&gt;Node19</title>
<path fill="none" stroke="midnightblue" d="M203.834,-112.324C221.716,-103.625 249.475,-90.1202 270.046,-80.113"/>
<polygon fill="midnightblue" stroke="midnightblue" points="271.749,-83.1765 279.21,-75.6545 268.687,-76.8819 271.749,-83.1765"/>
</g>
<!-- Node21 -->
<g id="node21" class="node"><title>Node21</title>
<polygon fill="white" stroke="#bfbfbf" points="137,-56.5 137,-75.5 181,-75.5 181,-56.5 137,-56.5"/>
<text text-anchor="middle" x="159" y="-63.5" font-family="Helvetica,sans-Serif" font-size="10.00">cmath</text>
</g>
<!-- Node20&#45;&gt;Node21 -->
<g id="edge22" class="edge"><title>Node20&#45;&gt;Node21</title>
<path fill="none" stroke="midnightblue" d="M181.541,-112.083C177.846,-104.691 172.477,-93.9533 167.906,-84.8111"/>
<polygon fill="midnightblue" stroke="midnightblue" points="170.978,-83.1301 163.376,-75.7511 164.717,-86.2606 170.978,-83.1301"/>
</g>
<!-- Node22 -->
<g id="node22" class="node"><title>Node22</title>
<polygon fill="white" stroke="#bfbfbf" points="67,-56.5 67,-75.5 119,-75.5 119,-56.5 67,-56.5"/>
<text text-anchor="middle" x="93" y="-63.5" font-family="Helvetica,sans-Serif" font-size="10.00">sstream</text>
</g>
<!-- Node20&#45;&gt;Node22 -->
<g id="edge23" class="edge"><title>Node20&#45;&gt;Node22</title>
<path fill="none" stroke="midnightblue" d="M171.058,-112.324C156.415,-103.822 133.866,-90.7288 116.762,-80.7975"/>
<polygon fill="midnightblue" stroke="midnightblue" points="118.31,-77.6491 107.905,-75.6545 114.795,-83.7027 118.31,-77.6491"/>
</g>
</g>
</svg>
