<?xml version="1.0" encoding="UTF-8" standalone="no"?>
<!DOCTYPE svg PUBLIC "-//W3C//DTD SVG 1.1//EN"
 "http://www.w3.org/Graphics/SVG/1.1/DTD/svg11.dtd">
<!-- Generated by graphviz version 2.36.0 (20140111.2315)
 -->
<!-- Title: IS.h Pages: 1 -->
<svg width="843pt" height="308pt"
 viewBox="0.00 0.00 842.56 308.00" xmlns="http://www.w3.org/2000/svg" xmlns:xlink="http://www.w3.org/1999/xlink">
<g id="graph0" class="graph" transform="scale(1 1) rotate(0) translate(4 304)">
<title>IS.h</title>
<polygon fill="white" stroke="none" points="-4,4 -4,-304 838.564,-304 838.564,4 -4,4"/>
<!-- Node1 -->
<g id="node1" class="node"><title>Node1</title>
<polygon fill="#bfbfbf" stroke="black" points="672.5,-280.5 672.5,-299.5 707.5,-299.5 707.5,-280.5 672.5,-280.5"/>
<text text-anchor="middle" x="690" y="-287.5" font-family="Helvetica,sans-Serif" font-size="10.00">IS.h</text>
</g>
<!-- Node2 -->
<g id="node2" class="node"><title>Node2</title>
<polygon fill="white" stroke="#bfbfbf" points="762,-56.5 762,-75.5 806,-75.5 806,-56.5 762,-56.5"/>
<text text-anchor="middle" x="784" y="-63.5" font-family="Helvetica,sans-Serif" font-size="10.00">vector</text>
</g>
<!-- Node1&#45;&gt;Node2 -->
<g id="edge1" class="edge"><title>Node1&#45;&gt;Node2</title>
<path fill="none" stroke="midnightblue" d="M702.734,-280.24C732.353,-258.986 805.369,-201.298 832,-132 835.189,-123.703 835.534,-120.156 832,-112 826.732,-99.8399 816.38,-89.4594 806.635,-81.7429"/>
<polygon fill="midnightblue" stroke="midnightblue" points="808.501,-78.7707 798.37,-75.6698 804.356,-84.4116 808.501,-78.7707"/>
</g>
<!-- Node3 -->
<g id="node3" class="node"><title>Node3</title>
<g id="a_node3"><a doxygen="/usr/local/share/doc/SpaceVecAlg/doxygen-html/SpaceVecAlg.doxytag:/usr/local/share/doc/SpaceVecAlg/doxygen-html/" xlink:href="/usr/local/share/doc/SpaceVecAlg/doxygen-html/a00016.html" target="_top" xlink:title="SpaceVecAlg/SpaceVecAlg">
<polygon fill="white" stroke="black" points="336,-56.5 336,-75.5 474,-75.5 474,-56.5 336,-56.5"/>
<text text-anchor="middle" x="405" y="-63.5" font-family="Helvetica,sans-Serif" font-size="10.00">SpaceVecAlg/SpaceVecAlg</text>
</a>
</g>
</g>
<!-- Node1&#45;&gt;Node3 -->
<g id="edge2" class="edge"><title>Node1&#45;&gt;Node3</title>
<path fill="none" stroke="midnightblue" d="M672.327,-285.388C620.741,-273.798 470.1,-232.282 408,-132 399.543,-118.344 399.555,-99.8056 401.237,-86.0212"/>
<polygon fill="midnightblue" stroke="midnightblue" points="404.753,-86.2024 402.894,-75.772 397.843,-85.0855 404.753,-86.2024"/>
</g>
<!-- Node13 -->
<g id="node13" class="node"><title>Node13</title>
<g id="a_node13"><a xlink:href="a00030.html" target="_top" xlink:title="Jacobian.h">
<polygon fill="white" stroke="black" points="658,-224.5 658,-243.5 722,-243.5 722,-224.5 658,-224.5"/>
<text text-anchor="middle" x="690" y="-231.5" font-family="Helvetica,sans-Serif" font-size="10.00">Jacobian.h</text>
</a>
</g>
</g>
<!-- Node1&#45;&gt;Node13 -->
<g id="edge12" class="edge"><title>Node1&#45;&gt;Node13</title>
<path fill="none" stroke="midnightblue" d="M690,-280.083C690,-273.006 690,-262.861 690,-253.986"/>
<polygon fill="midnightblue" stroke="midnightblue" points="693.5,-253.751 690,-243.751 686.5,-253.751 693.5,-253.751"/>
</g>
<!-- Node4 -->
<g id="node4" class="node"><title>Node4</title>
<g id="a_node4"><a doxygen="/usr/local/share/doc/SpaceVecAlg/doxygen-html/SpaceVecAlg.doxytag:/usr/local/share/doc/SpaceVecAlg/doxygen-html/" xlink:href="/usr/local/share/doc/SpaceVecAlg/doxygen-html/a00008.html" target="_top" xlink:title="EigenTypedef.h">
<polygon fill="white" stroke="black" points="-0.5,-0.5 -0.5,-19.5 84.5,-19.5 84.5,-0.5 -0.5,-0.5"/>
<text text-anchor="middle" x="42" y="-7.5" font-family="Helvetica,sans-Serif" font-size="10.00">EigenTypedef.h</text>
</a>
</g>
</g>
<!-- Node3&#45;&gt;Node4 -->
<g id="edge3" class="edge"><title>Node3&#45;&gt;Node4</title>
<path fill="none" stroke="midnightblue" d="M341.867,-56.4872C280.998,-48.145 186.021,-34.7763 94.5436,-20.2104"/>
<polygon fill="midnightblue" stroke="midnightblue" points="94.9872,-16.737 84.5599,-18.6136 93.8816,-23.6491 94.9872,-16.737"/>
</g>
<!-- Node5 -->
<g id="node5" class="node"><title>Node5</title>
<g id="a_node5"><a doxygen="/usr/local/share/doc/SpaceVecAlg/doxygen-html/SpaceVecAlg.doxytag:/usr/local/share/doc/SpaceVecAlg/doxygen-html/" xlink:href="/usr/local/share/doc/SpaceVecAlg/doxygen-html/a00009.html" target="_top" xlink:title="EigenUtility.h">
<polygon fill="white" stroke="black" points="102.5,-0.5 102.5,-19.5 177.5,-19.5 177.5,-0.5 102.5,-0.5"/>
<text text-anchor="middle" x="140" y="-7.5" font-family="Helvetica,sans-Serif" font-size="10.00">EigenUtility.h</text>
</a>
</g>
</g>
<!-- Node3&#45;&gt;Node5 -->
<g id="edge4" class="edge"><title>Node3&#45;&gt;Node5</title>
<path fill="none" stroke="midnightblue" d="M363.01,-56.4435C315.222,-46.7057 237.346,-30.8366 187.412,-20.6614"/>
<polygon fill="midnightblue" stroke="midnightblue" points="188.006,-17.2106 177.509,-18.6433 186.609,-24.0696 188.006,-17.2106"/>
</g>
<!-- Node6 -->
<g id="node6" class="node"><title>Node6</title>
<g id="a_node6"><a doxygen="/usr/local/share/doc/SpaceVecAlg/doxygen-html/SpaceVecAlg.doxytag:/usr/local/share/doc/SpaceVecAlg/doxygen-html/" xlink:href="/usr/local/share/doc/SpaceVecAlg/doxygen-html/a00011.html" target="_top" xlink:title="MathFunc.h">
<polygon fill="white" stroke="black" points="196,-0.5 196,-19.5 264,-19.5 264,-0.5 196,-0.5"/>
<text text-anchor="middle" x="230" y="-7.5" font-family="Helvetica,sans-Serif" font-size="10.00">MathFunc.h</text>
</a>
</g>
</g>
<!-- Node3&#45;&gt;Node6 -->
<g id="edge5" class="edge"><title>Node3&#45;&gt;Node6</title>
<path fill="none" stroke="midnightblue" d="M377.271,-56.4435C347.574,-47.2801 300.284,-32.6876 267.331,-22.5192"/>
<polygon fill="midnightblue" stroke="midnightblue" points="268.187,-19.1206 257.6,-19.5164 266.123,-25.8094 268.187,-19.1206"/>
</g>
<!-- Node7 -->
<g id="node7" class="node"><title>Node7</title>
<g id="a_node7"><a doxygen="/usr/local/share/doc/SpaceVecAlg/doxygen-html/SpaceVecAlg.doxytag:/usr/local/share/doc/SpaceVecAlg/doxygen-html/" xlink:href="/usr/local/share/doc/SpaceVecAlg/doxygen-html/a00012.html" target="_top" xlink:title="MotionVec.h">
<polygon fill="white" stroke="black" points="282.5,-0.5 282.5,-19.5 353.5,-19.5 353.5,-0.5 282.5,-0.5"/>
<text text-anchor="middle" x="318" y="-7.5" font-family="Helvetica,sans-Serif" font-size="10.00">MotionVec.h</text>
</a>
</g>
</g>
<!-- Node3&#45;&gt;Node7 -->
<g id="edge6" class="edge"><title>Node3&#45;&gt;Node7</title>
<path fill="none" stroke="midnightblue" d="M391.022,-56.324C377.45,-47.9002 356.62,-34.9709 340.675,-25.0741"/>
<polygon fill="midnightblue" stroke="midnightblue" points="342.286,-21.9544 331.943,-19.6545 338.594,-27.9019 342.286,-21.9544"/>
</g>
<!-- Node8 -->
<g id="node8" class="node"><title>Node8</title>
<g id="a_node8"><a doxygen="/usr/local/share/doc/SpaceVecAlg/doxygen-html/SpaceVecAlg.doxytag:/usr/local/share/doc/SpaceVecAlg/doxygen-html/" xlink:href="/usr/local/share/doc/SpaceVecAlg/doxygen-html/a00010.html" target="_top" xlink:title="ForceVec.h">
<polygon fill="white" stroke="black" points="371.5,-0.5 371.5,-19.5 438.5,-19.5 438.5,-0.5 371.5,-0.5"/>
<text text-anchor="middle" x="405" y="-7.5" font-family="Helvetica,sans-Serif" font-size="10.00">ForceVec.h</text>
</a>
</g>
</g>
<!-- Node3&#45;&gt;Node8 -->
<g id="edge7" class="edge"><title>Node3&#45;&gt;Node8</title>
<path fill="none" stroke="midnightblue" d="M405,-56.083C405,-49.0059 405,-38.8611 405,-29.9865"/>
<polygon fill="midnightblue" stroke="midnightblue" points="408.5,-29.751 405,-19.7511 401.5,-29.7511 408.5,-29.751"/>
</g>
<!-- Node9 -->
<g id="node9" class="node"><title>Node9</title>
<g id="a_node9"><a doxygen="/usr/local/share/doc/SpaceVecAlg/doxygen-html/SpaceVecAlg.doxytag:/usr/local/share/doc/SpaceVecAlg/doxygen-html/" xlink:href="/usr/local/share/doc/SpaceVecAlg/doxygen-html/a00015.html" target="_top" xlink:title="RBInertia.h">
<polygon fill="white" stroke="black" points="457,-0.5 457,-19.5 523,-19.5 523,-0.5 457,-0.5"/>
<text text-anchor="middle" x="490" y="-7.5" font-family="Helvetica,sans-Serif" font-size="10.00">RBInertia.h</text>
</a>
</g>
</g>
<!-- Node3&#45;&gt;Node9 -->
<g id="edge8" class="edge"><title>Node3&#45;&gt;Node9</title>
<path fill="none" stroke="midnightblue" d="M418.657,-56.324C431.916,-47.9002 452.268,-34.9709 467.846,-25.0741"/>
<polygon fill="midnightblue" stroke="midnightblue" points="469.813,-27.9711 476.377,-19.6545 466.06,-22.0626 469.813,-27.9711"/>
</g>
<!-- Node10 -->
<g id="node10" class="node"><title>Node10</title>
<g id="a_node10"><a doxygen="/usr/local/share/doc/SpaceVecAlg/doxygen-html/SpaceVecAlg.doxytag:/usr/local/share/doc/SpaceVecAlg/doxygen-html/" xlink:href="/usr/local/share/doc/SpaceVecAlg/doxygen-html/a00006.html" target="_top" xlink:title="ABInertia.h">
<polygon fill="white" stroke="black" points="541.5,-0.5 541.5,-19.5 606.5,-19.5 606.5,-0.5 541.5,-0.5"/>
<text text-anchor="middle" x="574" y="-7.5" font-family="Helvetica,sans-Serif" font-size="10.00">ABInertia.h</text>
</a>
</g>
</g>
<!-- Node3&#45;&gt;Node10 -->
<g id="edge9" class="edge"><title>Node3&#45;&gt;Node10</title>
<path fill="none" stroke="midnightblue" d="M431.779,-56.4435C460.333,-47.3196 505.733,-32.8133 537.537,-22.6509"/>
<polygon fill="midnightblue" stroke="midnightblue" points="538.886,-25.8941 547.347,-19.5164 536.756,-19.2262 538.886,-25.8941"/>
</g>
<!-- Node11 -->
<g id="node11" class="node"><title>Node11</title>
<g id="a_node11"><a doxygen="/usr/local/share/doc/SpaceVecAlg/doxygen-html/SpaceVecAlg.doxytag:/usr/local/share/doc/SpaceVecAlg/doxygen-html/" xlink:href="/usr/local/share/doc/SpaceVecAlg/doxygen-html/a00014.html" target="_top" xlink:title="PTransform.h">
<polygon fill="white" stroke="black" points="625,-0.5 625,-19.5 701,-19.5 701,-0.5 625,-0.5"/>
<text text-anchor="middle" x="663" y="-7.5" font-family="Helvetica,sans-Serif" font-size="10.00">PTransform.h</text>
</a>
</g>
</g>
<!-- Node3&#45;&gt;Node11 -->
<g id="edge10" class="edge"><title>Node3&#45;&gt;Node11</title>
<path fill="none" stroke="midnightblue" d="M445.881,-56.4435C491.779,-46.837 566.184,-31.2637 614.857,-21.0763"/>
<polygon fill="midnightblue" stroke="midnightblue" points="615.763,-24.4628 624.834,-18.9883 614.329,-17.6113 615.763,-24.4628"/>
</g>
<!-- Node12 -->
<g id="node12" class="node"><title>Node12</title>
<g id="a_node12"><a doxygen="/usr/local/share/doc/SpaceVecAlg/doxygen-html/SpaceVecAlg.doxytag:/usr/local/share/doc/SpaceVecAlg/doxygen-html/" xlink:href="/usr/local/share/doc/SpaceVecAlg/doxygen-html/a00013.html" target="_top" xlink:title="Operators.h">
<polygon fill="white" stroke="black" points="719,-0.5 719,-19.5 787,-19.5 787,-0.5 719,-0.5"/>
<text text-anchor="middle" x="753" y="-7.5" font-family="Helvetica,sans-Serif" font-size="10.00">Operators.h</text>
</a>
</g>
</g>
<!-- Node3&#45;&gt;Node12 -->
<g id="edge11" class="edge"><title>Node3&#45;&gt;Node12</title>
<path fill="none" stroke="midnightblue" d="M470.63,-56.4727C530.285,-48.4584 620.956,-35.6223 708.892,-20.1129"/>
<polygon fill="midnightblue" stroke="midnightblue" points="709.535,-23.5535 718.768,-18.3575 708.31,-16.6615 709.535,-23.5535"/>
</g>
<!-- Node14 -->
<g id="node14" class="node"><title>Node14</title>
<g id="a_node14"><a xlink:href="a00033.html" target="_top" xlink:title="MultiBody.h">
<polygon fill="white" stroke="black" points="613,-168.5 613,-187.5 681,-187.5 681,-168.5 613,-168.5"/>
<text text-anchor="middle" x="647" y="-175.5" font-family="Helvetica,sans-Serif" font-size="10.00">MultiBody.h</text>
</a>
</g>
</g>
<!-- Node13&#45;&gt;Node14 -->
<g id="edge13" class="edge"><title>Node13&#45;&gt;Node14</title>
<path fill="none" stroke="midnightblue" d="M682.899,-224.083C676.763,-216.377 667.73,-205.033 660.261,-195.653"/>
<polygon fill="midnightblue" stroke="midnightblue" points="662.936,-193.394 653.968,-187.751 657.46,-197.754 662.936,-193.394"/>
</g>
<!-- Node22 -->
<g id="node22" class="node"><title>Node22</title>
<polygon fill="white" stroke="#bfbfbf" points="740.5,-112.5 740.5,-131.5 823.5,-131.5 823.5,-112.5 740.5,-112.5"/>
<text text-anchor="middle" x="782" y="-119.5" font-family="Helvetica,sans-Serif" font-size="10.00">rbdyn/config.hh</text>
</g>
<!-- Node13&#45;&gt;Node22 -->
<g id="edge29" class="edge"><title>Node13&#45;&gt;Node22</title>
<path fill="none" stroke="midnightblue" d="M697.219,-224.368C712.536,-206.055 748.505,-163.049 768.315,-139.362"/>
<polygon fill="midnightblue" stroke="midnightblue" points="771.084,-141.508 774.814,-131.591 765.714,-137.017 771.084,-141.508"/>
</g>
<!-- Node14&#45;&gt;Node2 -->
<g id="edge16" class="edge"><title>Node14&#45;&gt;Node2</title>
<path fill="none" stroke="midnightblue" d="M657.75,-168.368C680.959,-149.733 736.01,-105.532 765.151,-82.1338"/>
<polygon fill="midnightblue" stroke="midnightblue" points="767.693,-84.5814 773.3,-75.5914 763.311,-79.1231 767.693,-84.5814"/>
</g>
<!-- Node14&#45;&gt;Node3 -->
<g id="edge17" class="edge"><title>Node14&#45;&gt;Node3</title>
<path fill="none" stroke="midnightblue" d="M612.615,-174.358C557.084,-169.408 451.129,-156.909 424,-132 411.164,-120.214 406.822,-100.287 405.442,-85.5962"/>
<polygon fill="midnightblue" stroke="midnightblue" points="408.936,-85.3889 404.872,-75.6046 401.947,-85.7877 408.936,-85.3889"/>
</g>
<!-- Node15 -->
<g id="node15" class="node"><title>Node15</title>
<polygon fill="white" stroke="#bfbfbf" points="684.5,-56.5 684.5,-75.5 743.5,-75.5 743.5,-56.5 684.5,-56.5"/>
<text text-anchor="middle" x="714" y="-63.5" font-family="Helvetica,sans-Serif" font-size="10.00">stdexcept</text>
</g>
<!-- Node14&#45;&gt;Node15 -->
<g id="edge14" class="edge"><title>Node14&#45;&gt;Node15</title>
<path fill="none" stroke="midnightblue" d="M652.257,-168.368C663.265,-150.296 688.92,-108.176 703.458,-84.3074"/>
<polygon fill="midnightblue" stroke="midnightblue" points="706.554,-85.9526 708.767,-75.5914 700.576,-82.3112 706.554,-85.9526"/>
</g>
<!-- Node16 -->
<g id="node16" class="node"><title>Node16</title>
<polygon fill="white" stroke="#bfbfbf" points="433.5,-112.5 433.5,-131.5 516.5,-131.5 516.5,-112.5 433.5,-112.5"/>
<text text-anchor="middle" x="475" y="-119.5" font-family="Helvetica,sans-Serif" font-size="10.00">unordered_map</text>
</g>
<!-- Node14&#45;&gt;Node16 -->
<g id="edge15" class="edge"><title>Node14&#45;&gt;Node16</title>
<path fill="none" stroke="midnightblue" d="M619.746,-168.444C590.559,-159.28 544.079,-144.688 511.691,-134.519"/>
<polygon fill="midnightblue" stroke="midnightblue" points="512.716,-131.173 502.126,-131.516 510.619,-137.851 512.716,-131.173"/>
</g>
<!-- Node17 -->
<g id="node17" class="node"><title>Node17</title>
<g id="a_node17"><a xlink:href="a00018.html" target="_top" xlink:title="Body.h">
<polygon fill="white" stroke="black" points="534.5,-112.5 534.5,-131.5 581.5,-131.5 581.5,-112.5 534.5,-112.5"/>
<text text-anchor="middle" x="558" y="-119.5" font-family="Helvetica,sans-Serif" font-size="10.00">Body.h</text>
</a>
</g>
</g>
<!-- Node14&#45;&gt;Node17 -->
<g id="edge18" class="edge"><title>Node14&#45;&gt;Node17</title>
<path fill="none" stroke="midnightblue" d="M632.701,-168.324C618.817,-159.9 597.508,-146.971 581.196,-137.074"/>
<polygon fill="midnightblue" stroke="midnightblue" points="582.629,-133.85 572.264,-131.655 578.998,-139.834 582.629,-133.85"/>
</g>
<!-- Node19 -->
<g id="node19" class="node"><title>Node19</title>
<g id="a_node19"><a xlink:href="a00031.html" target="_top" xlink:title="Joint.h">
<polygon fill="white" stroke="black" points="600,-112.5 600,-131.5 646,-131.5 646,-112.5 600,-112.5"/>
<text text-anchor="middle" x="623" y="-119.5" font-family="Helvetica,sans-Serif" font-size="10.00">Joint.h</text>
</a>
</g>
</g>
<!-- Node14&#45;&gt;Node19 -->
<g id="edge21" class="edge"><title>Node14&#45;&gt;Node19</title>
<path fill="none" stroke="midnightblue" d="M643.037,-168.083C639.787,-160.77 635.081,-150.181 631.046,-141.103"/>
<polygon fill="midnightblue" stroke="midnightblue" points="634.149,-139.468 626.889,-131.751 627.752,-142.311 634.149,-139.468"/>
</g>
<!-- Node14&#45;&gt;Node22 -->
<g id="edge28" class="edge"><title>Node14&#45;&gt;Node22</title>
<path fill="none" stroke="midnightblue" d="M668.391,-168.444C690.707,-159.517 725.903,-145.439 751.208,-135.317"/>
<polygon fill="midnightblue" stroke="midnightblue" points="752.724,-138.48 760.709,-131.516 750.124,-131.981 752.724,-138.48"/>
</g>
<!-- Node17&#45;&gt;Node3 -->
<g id="edge20" class="edge"><title>Node17&#45;&gt;Node3</title>
<path fill="none" stroke="midnightblue" d="M534.429,-112.681C508.86,-103.656 467.817,-89.1709 438.814,-78.9345"/>
<polygon fill="midnightblue" stroke="midnightblue" points="439.698,-75.5347 429.103,-75.5069 437.368,-82.1356 439.698,-75.5347"/>
</g>
<!-- Node18 -->
<g id="node18" class="node"><title>Node18</title>
<polygon fill="white" stroke="#bfbfbf" points="492.5,-56.5 492.5,-75.5 533.5,-75.5 533.5,-56.5 492.5,-56.5"/>
<text text-anchor="middle" x="513" y="-63.5" font-family="Helvetica,sans-Serif" font-size="10.00">string</text>
</g>
<!-- Node17&#45;&gt;Node18 -->
<g id="edge19" class="edge"><title>Node17&#45;&gt;Node18</title>
<path fill="none" stroke="midnightblue" d="M550.569,-112.083C544.147,-104.377 534.694,-93.0333 526.878,-83.6531"/>
<polygon fill="midnightblue" stroke="midnightblue" points="529.383,-81.1927 520.293,-75.7511 524.006,-85.674 529.383,-81.1927"/>
</g>
<!-- Node19&#45;&gt;Node2 -->
<g id="edge26" class="edge"><title>Node19&#45;&gt;Node2</title>
<path fill="none" stroke="midnightblue" d="M646.067,-113.263C673.92,-103.921 720.912,-88.1598 752.193,-77.6683"/>
<polygon fill="midnightblue" stroke="midnightblue" points="753.384,-80.9603 761.752,-74.4619 751.158,-74.3236 753.384,-80.9603"/>
</g>
<!-- Node19&#45;&gt;Node3 -->
<g id="edge27" class="edge"><title>Node19&#45;&gt;Node3</title>
<path fill="none" stroke="midnightblue" d="M599.943,-114.624C596.611,-113.728 593.22,-112.831 590,-112 542.897,-99.8506 488.814,-86.7988 451.341,-77.8969"/>
<polygon fill="midnightblue" stroke="midnightblue" points="451.77,-74.4016 441.232,-75.5004 450.155,-81.2128 451.77,-74.4016"/>
</g>
<!-- Node19&#45;&gt;Node15 -->
<g id="edge24" class="edge"><title>Node19&#45;&gt;Node15</title>
<path fill="none" stroke="midnightblue" d="M637.621,-112.324C651.949,-103.822 674.013,-90.7288 690.749,-80.7975"/>
<polygon fill="midnightblue" stroke="midnightblue" points="692.602,-83.7677 699.416,-75.6545 689.03,-77.7478 692.602,-83.7677"/>
</g>
<!-- Node19&#45;&gt;Node18 -->
<g id="edge25" class="edge"><title>Node19&#45;&gt;Node18</title>
<path fill="none" stroke="midnightblue" d="M605.327,-112.324C587.606,-103.625 560.097,-90.1202 539.712,-80.113"/>
<polygon fill="midnightblue" stroke="midnightblue" points="541.149,-76.9195 530.63,-75.6545 538.064,-83.2031 541.149,-76.9195"/>
</g>
<!-- Node20 -->
<g id="node20" class="node"><title>Node20</title>
<polygon fill="white" stroke="#bfbfbf" points="622,-56.5 622,-75.5 666,-75.5 666,-56.5 622,-56.5"/>
<text text-anchor="middle" x="644" y="-63.5" font-family="Helvetica,sans-Serif" font-size="10.00">cmath</text>
</g>
<!-- Node19&#45;&gt;Node20 -->
<g id="edge22" class="edge"><title>Node19&#45;&gt;Node20</title>
<path fill="none" stroke="midnightblue" d="M626.468,-112.083C629.312,-104.77 633.429,-94.1814 636.96,-85.1034"/>
<polygon fill="midnightblue" stroke="midnightblue" points="640.234,-86.3397 640.597,-75.7511 633.71,-83.8025 640.234,-86.3397"/>
</g>
<!-- Node21 -->
<g id="node21" class="node"><title>Node21</title>
<polygon fill="white" stroke="#bfbfbf" points="552,-56.5 552,-75.5 604,-75.5 604,-56.5 552,-56.5"/>
<text text-anchor="middle" x="578" y="-63.5" font-family="Helvetica,sans-Serif" font-size="10.00">sstream</text>
</g>
<!-- Node19&#45;&gt;Node21 -->
<g id="edge23" class="edge"><title>Node19&#45;&gt;Node21</title>
<path fill="none" stroke="midnightblue" d="M615.569,-112.083C609.147,-104.377 599.694,-93.0333 591.878,-83.6531"/>
<polygon fill="midnightblue" stroke="midnightblue" points="594.383,-81.1927 585.293,-75.7511 589.006,-85.674 594.383,-81.1927"/>
</g>
</g>
</svg>
