<?xml version="1.0" encoding="UTF-8" standalone="no"?>
<!DOCTYPE svg PUBLIC "-//W3C//DTD SVG 1.1//EN"
 "http://www.w3.org/Graphics/SVG/1.1/DTD/svg11.dtd">
<!-- Generated by graphviz version 2.36.0 (20140111.2315)
 -->
<!-- Title: MultiBody.h Pages: 1 -->
<svg width="316pt" height="140pt"
 viewBox="0.00 0.00 316.00 140.00" xmlns="http://www.w3.org/2000/svg" xmlns:xlink="http://www.w3.org/1999/xlink">
<g id="graph0" class="graph" transform="scale(1 1) rotate(0) translate(4 136)">
<title>MultiBody.h</title>
<polygon fill="white" stroke="none" points="-4,4 -4,-136 312,-136 312,4 -4,4"/>
<!-- Node1 -->
<g id="node1" class="node"><title>Node1</title>
<polygon fill="#bfbfbf" stroke="black" points="129,-112.5 129,-131.5 197,-131.5 197,-112.5 129,-112.5"/>
<text text-anchor="middle" x="163" y="-119.5" font-family="Helvetica,sans-Serif" font-size="10.00">MultiBody.h</text>
</g>
<!-- Node2 -->
<g id="node2" class="node"><title>Node2</title>
<g id="a_node2"><a xlink:href="a00030.html" target="_top" xlink:title="Jacobian.h">
<polygon fill="white" stroke="black" points="50,-56.5 50,-75.5 114,-75.5 114,-56.5 50,-56.5"/>
<text text-anchor="middle" x="82" y="-63.5" font-family="Helvetica,sans-Serif" font-size="10.00">Jacobian.h</text>
</a>
</g>
</g>
<!-- Node1&#45;&gt;Node2 -->
<g id="edge1" class="edge"><title>Node1&#45;&gt;Node2</title>
<path fill="none" stroke="midnightblue" d="M141.433,-106.622C126.636,-96.7574 107.488,-83.9919 94.9818,-75.6545"/>
<polygon fill="midnightblue" stroke="midnightblue" points="139.724,-109.689 149.986,-112.324 143.607,-103.865 139.724,-109.689"/>
</g>
<!-- Node6 -->
<g id="node6" class="node"><title>Node6</title>
<g id="a_node6"><a xlink:href="a00025.html" target="_top" xlink:title="Hessian.h">
<polygon fill="white" stroke="black" points="132.5,-56.5 132.5,-75.5 193.5,-75.5 193.5,-56.5 132.5,-56.5"/>
<text text-anchor="middle" x="163" y="-63.5" font-family="Helvetica,sans-Serif" font-size="10.00">Hessian.h</text>
</a>
</g>
</g>
<!-- Node1&#45;&gt;Node6 -->
<g id="edge5" class="edge"><title>Node1&#45;&gt;Node6</title>
<path fill="none" stroke="midnightblue" d="M163,-101.805C163,-92.9102 163,-82.7798 163,-75.7511"/>
<polygon fill="midnightblue" stroke="midnightblue" points="159.5,-102.083 163,-112.083 166.5,-102.083 159.5,-102.083"/>
</g>
<!-- Node7 -->
<g id="node7" class="node"><title>Node7</title>
<g id="a_node7"><a xlink:href="a00034.html" target="_top" xlink:title="MultiBodyConfig.h">
<polygon fill="white" stroke="black" points="211.5,-56.5 211.5,-75.5 308.5,-75.5 308.5,-56.5 211.5,-56.5"/>
<text text-anchor="middle" x="260" y="-63.5" font-family="Helvetica,sans-Serif" font-size="10.00">MultiBodyConfig.h</text>
</a>
</g>
</g>
<!-- Node1&#45;&gt;Node7 -->
<g id="edge6" class="edge"><title>Node1&#45;&gt;Node7</title>
<path fill="none" stroke="midnightblue" d="M187.335,-107.453C205.243,-97.4835 229.054,-84.2279 244.454,-75.6545"/>
<polygon fill="midnightblue" stroke="midnightblue" points="185.62,-104.402 178.585,-112.324 189.025,-110.518 185.62,-104.402"/>
</g>
<!-- Node3 -->
<g id="node3" class="node"><title>Node3</title>
<g id="a_node3"><a xlink:href="a00019.html" target="_top" xlink:title="CoM.h">
<polygon fill="white" stroke="black" points="0,-0.5 0,-19.5 46,-19.5 46,-0.5 0,-0.5"/>
<text text-anchor="middle" x="23" y="-7.5" font-family="Helvetica,sans-Serif" font-size="10.00">CoM.h</text>
</a>
</g>
</g>
<!-- Node2&#45;&gt;Node3 -->
<g id="edge2" class="edge"><title>Node2&#45;&gt;Node3</title>
<path fill="none" stroke="midnightblue" d="M65.1055,-49.5372C54.5855,-39.9087 41.4313,-27.8694 32.6519,-19.8339"/>
<polygon fill="midnightblue" stroke="midnightblue" points="62.7808,-52.1542 72.5206,-56.324 67.5069,-46.9905 62.7808,-52.1542"/>
</g>
<!-- Node4 -->
<g id="node4" class="node"><title>Node4</title>
<g id="a_node4"><a xlink:href="a00028.html" target="_top" xlink:title="IK.h">
<polygon fill="white" stroke="black" points="64.5,-0.5 64.5,-19.5 99.5,-19.5 99.5,-0.5 64.5,-0.5"/>
<text text-anchor="middle" x="82" y="-7.5" font-family="Helvetica,sans-Serif" font-size="10.00">IK.h</text>
</a>
</g>
</g>
<!-- Node2&#45;&gt;Node4 -->
<g id="edge3" class="edge"><title>Node2&#45;&gt;Node4</title>
<path fill="none" stroke="midnightblue" d="M82,-45.8045C82,-36.9102 82,-26.7798 82,-19.7511"/>
<polygon fill="midnightblue" stroke="midnightblue" points="78.5001,-46.083 82,-56.083 85.5001,-46.083 78.5001,-46.083"/>
</g>
<!-- Node5 -->
<g id="node5" class="node"><title>Node5</title>
<g id="a_node5"><a xlink:href="a00029.html" target="_top" xlink:title="IS.h">
<polygon fill="white" stroke="black" points="117.5,-0.5 117.5,-19.5 152.5,-19.5 152.5,-0.5 117.5,-0.5"/>
<text text-anchor="middle" x="135" y="-7.5" font-family="Helvetica,sans-Serif" font-size="10.00">IS.h</text>
</a>
</g>
</g>
<!-- Node2&#45;&gt;Node5 -->
<g id="edge4" class="edge"><title>Node2&#45;&gt;Node5</title>
<path fill="none" stroke="midnightblue" d="M97.9809,-48.7175C107.322,-39.1997 118.746,-27.5608 126.411,-19.7511"/>
<polygon fill="midnightblue" stroke="midnightblue" points="95.2587,-46.4945 90.7519,-56.083 100.254,-51.3978 95.2587,-46.4945"/>
</g>
</g>
</svg>
