<?xml version="1.0" encoding="UTF-8" standalone="no"?>
<!DOCTYPE svg PUBLIC "-//W3C//DTD SVG 1.1//EN"
 "http://www.w3.org/Graphics/SVG/1.1/DTD/svg11.dtd">
<!-- Generated by graphviz version 2.36.0 (20140111.2315)
 -->
<!-- Title: MultiBodyGraph.h Pages: 1 -->
<svg width="795pt" height="196pt"
 viewBox="0.00 0.00 795.00 196.00" xmlns="http://www.w3.org/2000/svg" xmlns:xlink="http://www.w3.org/1999/xlink">
<g id="graph0" class="graph" transform="scale(1 1) rotate(0) translate(4 192)">
<title>MultiBodyGraph.h</title>
<polygon fill="white" stroke="none" points="-4,4 -4,-192 791,-192 791,4 -4,4"/>
<!-- Node1 -->
<g id="node1" class="node"><title>Node1</title>
<polygon fill="#bfbfbf" stroke="black" points="353.5,-168.5 353.5,-187.5 448.5,-187.5 448.5,-168.5 353.5,-168.5"/>
<text text-anchor="middle" x="401" y="-175.5" font-family="Helvetica,sans-Serif" font-size="10.00">MultiBodyGraph.h</text>
</g>
<!-- Node2 -->
<g id="node2" class="node"><title>Node2</title>
<polygon fill="white" stroke="#bfbfbf" points="229.5,-112.5 229.5,-131.5 264.5,-131.5 264.5,-112.5 229.5,-112.5"/>
<text text-anchor="middle" x="247" y="-119.5" font-family="Helvetica,sans-Serif" font-size="10.00">map</text>
</g>
<!-- Node1&#45;&gt;Node2 -->
<g id="edge1" class="edge"><title>Node1&#45;&gt;Node2</title>
<path fill="none" stroke="midnightblue" d="M376.598,-168.444C348.679,-158.654 303.088,-142.667 274.09,-132.499"/>
<polygon fill="midnightblue" stroke="midnightblue" points="275.176,-129.171 264.581,-129.165 272.86,-135.777 275.176,-129.171"/>
</g>
<!-- Node3 -->
<g id="node3" class="node"><title>Node3</title>
<polygon fill="white" stroke="#bfbfbf" points="283,-112.5 283,-131.5 335,-131.5 335,-112.5 283,-112.5"/>
<text text-anchor="middle" x="309" y="-119.5" font-family="Helvetica,sans-Serif" font-size="10.00">memory</text>
</g>
<!-- Node1&#45;&gt;Node3 -->
<g id="edge2" class="edge"><title>Node1&#45;&gt;Node3</title>
<path fill="none" stroke="midnightblue" d="M386.219,-168.324C371.733,-159.822 349.427,-146.729 332.507,-136.797"/>
<polygon fill="midnightblue" stroke="midnightblue" points="334.141,-133.698 323.745,-131.655 330.597,-139.735 334.141,-133.698"/>
</g>
<!-- Node4 -->
<g id="node4" class="node"><title>Node4</title>
<polygon fill="white" stroke="#bfbfbf" points="274,-56.5 274,-75.5 318,-75.5 318,-56.5 274,-56.5"/>
<text text-anchor="middle" x="296" y="-63.5" font-family="Helvetica,sans-Serif" font-size="10.00">vector</text>
</g>
<!-- Node1&#45;&gt;Node4 -->
<g id="edge3" class="edge"><title>Node1&#45;&gt;Node4</title>
<path fill="none" stroke="midnightblue" d="M393.878,-168.349C383.333,-155.665 362.783,-131.418 344,-112 334.172,-101.84 322.629,-90.9872 313.326,-82.4857"/>
<polygon fill="midnightblue" stroke="midnightblue" points="315.589,-79.813 305.827,-75.6964 310.891,-85.0024 315.589,-79.813"/>
</g>
<!-- Node5 -->
<g id="node5" class="node"><title>Node5</title>
<g id="a_node5"><a doxygen="/usr/local/share/doc/SpaceVecAlg/doxygen-html/SpaceVecAlg.doxytag:/usr/local/share/doc/SpaceVecAlg/doxygen-html/" xlink:href="/usr/local/share/doc/SpaceVecAlg/doxygen-html/a00016.html" target="_top" xlink:title="SpaceVecAlg/SpaceVecAlg">
<polygon fill="white" stroke="black" points="336,-56.5 336,-75.5 474,-75.5 474,-56.5 336,-56.5"/>
<text text-anchor="middle" x="405" y="-63.5" font-family="Helvetica,sans-Serif" font-size="10.00">SpaceVecAlg/SpaceVecAlg</text>
</a>
</g>
</g>
<!-- Node1&#45;&gt;Node5 -->
<g id="edge4" class="edge"><title>Node1&#45;&gt;Node5</title>
<path fill="none" stroke="midnightblue" d="M401.314,-168.368C401.959,-150.617 403.448,-109.666 404.324,-85.5974"/>
<polygon fill="midnightblue" stroke="midnightblue" points="407.822,-85.712 404.688,-75.5914 400.826,-85.4576 407.822,-85.712"/>
</g>
<!-- Node15 -->
<g id="node15" class="node"><title>Node15</title>
<g id="a_node15"><a xlink:href="a00018.html" target="_top" xlink:title="Body.h">
<polygon fill="white" stroke="black" points="429.5,-112.5 429.5,-131.5 476.5,-131.5 476.5,-112.5 429.5,-112.5"/>
<text text-anchor="middle" x="453" y="-119.5" font-family="Helvetica,sans-Serif" font-size="10.00">Body.h</text>
</a>
</g>
</g>
<!-- Node1&#45;&gt;Node15 -->
<g id="edge14" class="edge"><title>Node1&#45;&gt;Node15</title>
<path fill="none" stroke="midnightblue" d="M409.587,-168.083C417.159,-160.22 428.378,-148.569 437.514,-139.081"/>
<polygon fill="midnightblue" stroke="midnightblue" points="440.158,-141.382 444.573,-131.751 435.115,-136.527 440.158,-141.382"/>
</g>
<!-- Node17 -->
<g id="node17" class="node"><title>Node17</title>
<g id="a_node17"><a xlink:href="a00031.html" target="_top" xlink:title="Joint.h">
<polygon fill="white" stroke="black" points="495,-112.5 495,-131.5 541,-131.5 541,-112.5 495,-112.5"/>
<text text-anchor="middle" x="518" y="-119.5" font-family="Helvetica,sans-Serif" font-size="10.00">Joint.h</text>
</a>
</g>
</g>
<!-- Node1&#45;&gt;Node17 -->
<g id="edge17" class="edge"><title>Node1&#45;&gt;Node17</title>
<path fill="none" stroke="midnightblue" d="M419.539,-168.444C438.623,-159.636 468.575,-145.812 490.436,-135.722"/>
<polygon fill="midnightblue" stroke="midnightblue" points="491.935,-138.885 499.548,-131.516 489.001,-132.529 491.935,-138.885"/>
</g>
<!-- Node21 -->
<g id="node21" class="node"><title>Node21</title>
<polygon fill="white" stroke="#bfbfbf" points="559.5,-112.5 559.5,-131.5 642.5,-131.5 642.5,-112.5 559.5,-112.5"/>
<text text-anchor="middle" x="601" y="-119.5" font-family="Helvetica,sans-Serif" font-size="10.00">rbdyn/config.hh</text>
</g>
<!-- Node1&#45;&gt;Node21 -->
<g id="edge24" class="edge"><title>Node1&#45;&gt;Node21</title>
<path fill="none" stroke="midnightblue" d="M432.691,-168.444C467.068,-159.162 522.077,-144.309 559.789,-134.127"/>
<polygon fill="midnightblue" stroke="midnightblue" points="560.716,-137.502 569.458,-131.516 558.891,-130.744 560.716,-137.502"/>
</g>
<!-- Node6 -->
<g id="node6" class="node"><title>Node6</title>
<g id="a_node6"><a doxygen="/usr/local/share/doc/SpaceVecAlg/doxygen-html/SpaceVecAlg.doxytag:/usr/local/share/doc/SpaceVecAlg/doxygen-html/" xlink:href="/usr/local/share/doc/SpaceVecAlg/doxygen-html/a00008.html" target="_top" xlink:title="EigenTypedef.h">
<polygon fill="white" stroke="black" points="-0.5,-0.5 -0.5,-19.5 84.5,-19.5 84.5,-0.5 -0.5,-0.5"/>
<text text-anchor="middle" x="42" y="-7.5" font-family="Helvetica,sans-Serif" font-size="10.00">EigenTypedef.h</text>
</a>
</g>
</g>
<!-- Node5&#45;&gt;Node6 -->
<g id="edge5" class="edge"><title>Node5&#45;&gt;Node6</title>
<path fill="none" stroke="midnightblue" d="M341.867,-56.4872C280.998,-48.145 186.021,-34.7763 94.5436,-20.2104"/>
<polygon fill="midnightblue" stroke="midnightblue" points="94.9872,-16.737 84.5599,-18.6136 93.8816,-23.6491 94.9872,-16.737"/>
</g>
<!-- Node7 -->
<g id="node7" class="node"><title>Node7</title>
<g id="a_node7"><a doxygen="/usr/local/share/doc/SpaceVecAlg/doxygen-html/SpaceVecAlg.doxytag:/usr/local/share/doc/SpaceVecAlg/doxygen-html/" xlink:href="/usr/local/share/doc/SpaceVecAlg/doxygen-html/a00009.html" target="_top" xlink:title="EigenUtility.h">
<polygon fill="white" stroke="black" points="102.5,-0.5 102.5,-19.5 177.5,-19.5 177.5,-0.5 102.5,-0.5"/>
<text text-anchor="middle" x="140" y="-7.5" font-family="Helvetica,sans-Serif" font-size="10.00">EigenUtility.h</text>
</a>
</g>
</g>
<!-- Node5&#45;&gt;Node7 -->
<g id="edge6" class="edge"><title>Node5&#45;&gt;Node7</title>
<path fill="none" stroke="midnightblue" d="M363.01,-56.4435C315.222,-46.7057 237.346,-30.8366 187.412,-20.6614"/>
<polygon fill="midnightblue" stroke="midnightblue" points="188.006,-17.2106 177.509,-18.6433 186.609,-24.0696 188.006,-17.2106"/>
</g>
<!-- Node8 -->
<g id="node8" class="node"><title>Node8</title>
<g id="a_node8"><a doxygen="/usr/local/share/doc/SpaceVecAlg/doxygen-html/SpaceVecAlg.doxytag:/usr/local/share/doc/SpaceVecAlg/doxygen-html/" xlink:href="/usr/local/share/doc/SpaceVecAlg/doxygen-html/a00011.html" target="_top" xlink:title="MathFunc.h">
<polygon fill="white" stroke="black" points="196,-0.5 196,-19.5 264,-19.5 264,-0.5 196,-0.5"/>
<text text-anchor="middle" x="230" y="-7.5" font-family="Helvetica,sans-Serif" font-size="10.00">MathFunc.h</text>
</a>
</g>
</g>
<!-- Node5&#45;&gt;Node8 -->
<g id="edge7" class="edge"><title>Node5&#45;&gt;Node8</title>
<path fill="none" stroke="midnightblue" d="M377.271,-56.4435C347.574,-47.2801 300.284,-32.6876 267.331,-22.5192"/>
<polygon fill="midnightblue" stroke="midnightblue" points="268.187,-19.1206 257.6,-19.5164 266.123,-25.8094 268.187,-19.1206"/>
</g>
<!-- Node9 -->
<g id="node9" class="node"><title>Node9</title>
<g id="a_node9"><a doxygen="/usr/local/share/doc/SpaceVecAlg/doxygen-html/SpaceVecAlg.doxytag:/usr/local/share/doc/SpaceVecAlg/doxygen-html/" xlink:href="/usr/local/share/doc/SpaceVecAlg/doxygen-html/a00012.html" target="_top" xlink:title="MotionVec.h">
<polygon fill="white" stroke="black" points="282.5,-0.5 282.5,-19.5 353.5,-19.5 353.5,-0.5 282.5,-0.5"/>
<text text-anchor="middle" x="318" y="-7.5" font-family="Helvetica,sans-Serif" font-size="10.00">MotionVec.h</text>
</a>
</g>
</g>
<!-- Node5&#45;&gt;Node9 -->
<g id="edge8" class="edge"><title>Node5&#45;&gt;Node9</title>
<path fill="none" stroke="midnightblue" d="M391.022,-56.324C377.45,-47.9002 356.62,-34.9709 340.675,-25.0741"/>
<polygon fill="midnightblue" stroke="midnightblue" points="342.286,-21.9544 331.943,-19.6545 338.594,-27.9019 342.286,-21.9544"/>
</g>
<!-- Node10 -->
<g id="node10" class="node"><title>Node10</title>
<g id="a_node10"><a doxygen="/usr/local/share/doc/SpaceVecAlg/doxygen-html/SpaceVecAlg.doxytag:/usr/local/share/doc/SpaceVecAlg/doxygen-html/" xlink:href="/usr/local/share/doc/SpaceVecAlg/doxygen-html/a00010.html" target="_top" xlink:title="ForceVec.h">
<polygon fill="white" stroke="black" points="371.5,-0.5 371.5,-19.5 438.5,-19.5 438.5,-0.5 371.5,-0.5"/>
<text text-anchor="middle" x="405" y="-7.5" font-family="Helvetica,sans-Serif" font-size="10.00">ForceVec.h</text>
</a>
</g>
</g>
<!-- Node5&#45;&gt;Node10 -->
<g id="edge9" class="edge"><title>Node5&#45;&gt;Node10</title>
<path fill="none" stroke="midnightblue" d="M405,-56.083C405,-49.0059 405,-38.8611 405,-29.9865"/>
<polygon fill="midnightblue" stroke="midnightblue" points="408.5,-29.751 405,-19.7511 401.5,-29.7511 408.5,-29.751"/>
</g>
<!-- Node11 -->
<g id="node11" class="node"><title>Node11</title>
<g id="a_node11"><a doxygen="/usr/local/share/doc/SpaceVecAlg/doxygen-html/SpaceVecAlg.doxytag:/usr/local/share/doc/SpaceVecAlg/doxygen-html/" xlink:href="/usr/local/share/doc/SpaceVecAlg/doxygen-html/a00015.html" target="_top" xlink:title="RBInertia.h">
<polygon fill="white" stroke="black" points="457,-0.5 457,-19.5 523,-19.5 523,-0.5 457,-0.5"/>
<text text-anchor="middle" x="490" y="-7.5" font-family="Helvetica,sans-Serif" font-size="10.00">RBInertia.h</text>
</a>
</g>
</g>
<!-- Node5&#45;&gt;Node11 -->
<g id="edge10" class="edge"><title>Node5&#45;&gt;Node11</title>
<path fill="none" stroke="midnightblue" d="M418.657,-56.324C431.916,-47.9002 452.268,-34.9709 467.846,-25.0741"/>
<polygon fill="midnightblue" stroke="midnightblue" points="469.813,-27.9711 476.377,-19.6545 466.06,-22.0626 469.813,-27.9711"/>
</g>
<!-- Node12 -->
<g id="node12" class="node"><title>Node12</title>
<g id="a_node12"><a doxygen="/usr/local/share/doc/SpaceVecAlg/doxygen-html/SpaceVecAlg.doxytag:/usr/local/share/doc/SpaceVecAlg/doxygen-html/" xlink:href="/usr/local/share/doc/SpaceVecAlg/doxygen-html/a00006.html" target="_top" xlink:title="ABInertia.h">
<polygon fill="white" stroke="black" points="541.5,-0.5 541.5,-19.5 606.5,-19.5 606.5,-0.5 541.5,-0.5"/>
<text text-anchor="middle" x="574" y="-7.5" font-family="Helvetica,sans-Serif" font-size="10.00">ABInertia.h</text>
</a>
</g>
</g>
<!-- Node5&#45;&gt;Node12 -->
<g id="edge11" class="edge"><title>Node5&#45;&gt;Node12</title>
<path fill="none" stroke="midnightblue" d="M431.779,-56.4435C460.333,-47.3196 505.733,-32.8133 537.537,-22.6509"/>
<polygon fill="midnightblue" stroke="midnightblue" points="538.886,-25.8941 547.347,-19.5164 536.756,-19.2262 538.886,-25.8941"/>
</g>
<!-- Node13 -->
<g id="node13" class="node"><title>Node13</title>
<g id="a_node13"><a doxygen="/usr/local/share/doc/SpaceVecAlg/doxygen-html/SpaceVecAlg.doxytag:/usr/local/share/doc/SpaceVecAlg/doxygen-html/" xlink:href="/usr/local/share/doc/SpaceVecAlg/doxygen-html/a00014.html" target="_top" xlink:title="PTransform.h">
<polygon fill="white" stroke="black" points="625,-0.5 625,-19.5 701,-19.5 701,-0.5 625,-0.5"/>
<text text-anchor="middle" x="663" y="-7.5" font-family="Helvetica,sans-Serif" font-size="10.00">PTransform.h</text>
</a>
</g>
</g>
<!-- Node5&#45;&gt;Node13 -->
<g id="edge12" class="edge"><title>Node5&#45;&gt;Node13</title>
<path fill="none" stroke="midnightblue" d="M445.881,-56.4435C491.779,-46.837 566.184,-31.2637 614.857,-21.0763"/>
<polygon fill="midnightblue" stroke="midnightblue" points="615.763,-24.4628 624.834,-18.9883 614.329,-17.6113 615.763,-24.4628"/>
</g>
<!-- Node14 -->
<g id="node14" class="node"><title>Node14</title>
<g id="a_node14"><a doxygen="/usr/local/share/doc/SpaceVecAlg/doxygen-html/SpaceVecAlg.doxytag:/usr/local/share/doc/SpaceVecAlg/doxygen-html/" xlink:href="/usr/local/share/doc/SpaceVecAlg/doxygen-html/a00013.html" target="_top" xlink:title="Operators.h">
<polygon fill="white" stroke="black" points="719,-0.5 719,-19.5 787,-19.5 787,-0.5 719,-0.5"/>
<text text-anchor="middle" x="753" y="-7.5" font-family="Helvetica,sans-Serif" font-size="10.00">Operators.h</text>
</a>
</g>
</g>
<!-- Node5&#45;&gt;Node14 -->
<g id="edge13" class="edge"><title>Node5&#45;&gt;Node14</title>
<path fill="none" stroke="midnightblue" d="M470.63,-56.4727C530.285,-48.4584 620.956,-35.6223 708.892,-20.1129"/>
<polygon fill="midnightblue" stroke="midnightblue" points="709.535,-23.5535 718.768,-18.3575 708.31,-16.6615 709.535,-23.5535"/>
</g>
<!-- Node15&#45;&gt;Node5 -->
<g id="edge16" class="edge"><title>Node15&#45;&gt;Node5</title>
<path fill="none" stroke="midnightblue" d="M445.074,-112.083C438.154,-104.298 427.935,-92.8015 419.548,-83.3665"/>
<polygon fill="midnightblue" stroke="midnightblue" points="422.038,-80.8999 412.779,-75.7511 416.806,-85.5505 422.038,-80.8999"/>
</g>
<!-- Node16 -->
<g id="node16" class="node"><title>Node16</title>
<polygon fill="white" stroke="#bfbfbf" points="492.5,-56.5 492.5,-75.5 533.5,-75.5 533.5,-56.5 492.5,-56.5"/>
<text text-anchor="middle" x="513" y="-63.5" font-family="Helvetica,sans-Serif" font-size="10.00">string</text>
</g>
<!-- Node15&#45;&gt;Node16 -->
<g id="edge15" class="edge"><title>Node15&#45;&gt;Node16</title>
<path fill="none" stroke="midnightblue" d="M462.64,-112.324C471.51,-104.341 484.875,-92.3128 495.608,-82.6529"/>
<polygon fill="midnightblue" stroke="midnightblue" points="498.093,-85.1251 503.185,-75.8339 493.41,-79.922 498.093,-85.1251"/>
</g>
<!-- Node17&#45;&gt;Node4 -->
<g id="edge22" class="edge"><title>Node17&#45;&gt;Node4</title>
<path fill="none" stroke="midnightblue" d="M494.954,-114.581C491.62,-113.692 488.226,-112.807 485,-112 418.133,-95.272 398.401,-94.12 328.093,-76.1682"/>
<polygon fill="midnightblue" stroke="midnightblue" points="328.865,-72.753 318.308,-73.6457 327.118,-79.5313 328.865,-72.753"/>
</g>
<!-- Node17&#45;&gt;Node5 -->
<g id="edge23" class="edge"><title>Node17&#45;&gt;Node5</title>
<path fill="none" stroke="midnightblue" d="M500.095,-112.444C481.746,-103.675 452.995,-89.9355 431.906,-79.8579"/>
<polygon fill="midnightblue" stroke="midnightblue" points="433.353,-76.6703 422.821,-75.5164 430.335,-82.9862 433.353,-76.6703"/>
</g>
<!-- Node17&#45;&gt;Node16 -->
<g id="edge21" class="edge"><title>Node17&#45;&gt;Node16</title>
<path fill="none" stroke="midnightblue" d="M517.174,-112.083C516.519,-105.006 515.58,-94.8611 514.758,-85.9865"/>
<polygon fill="midnightblue" stroke="midnightblue" points="518.217,-85.3858 513.81,-75.7511 511.247,-86.0312 518.217,-85.3858"/>
</g>
<!-- Node18 -->
<g id="node18" class="node"><title>Node18</title>
<polygon fill="white" stroke="#bfbfbf" points="552,-56.5 552,-75.5 596,-75.5 596,-56.5 552,-56.5"/>
<text text-anchor="middle" x="574" y="-63.5" font-family="Helvetica,sans-Serif" font-size="10.00">cmath</text>
</g>
<!-- Node17&#45;&gt;Node18 -->
<g id="edge18" class="edge"><title>Node17&#45;&gt;Node18</title>
<path fill="none" stroke="midnightblue" d="M526.997,-112.324C535.194,-104.42 547.506,-92.5482 557.472,-82.9377"/>
<polygon fill="midnightblue" stroke="midnightblue" points="560.07,-85.2947 564.839,-75.8339 555.211,-80.2558 560.07,-85.2947"/>
</g>
<!-- Node19 -->
<g id="node19" class="node"><title>Node19</title>
<polygon fill="white" stroke="#bfbfbf" points="614,-56.5 614,-75.5 666,-75.5 666,-56.5 614,-56.5"/>
<text text-anchor="middle" x="640" y="-63.5" font-family="Helvetica,sans-Serif" font-size="10.00">sstream</text>
</g>
<!-- Node17&#45;&gt;Node19 -->
<g id="edge19" class="edge"><title>Node17&#45;&gt;Node19</title>
<path fill="none" stroke="midnightblue" d="M537.331,-112.444C557.32,-103.596 588.743,-89.6875 611.564,-79.5865"/>
<polygon fill="midnightblue" stroke="midnightblue" points="613.032,-82.7645 620.759,-75.5164 610.198,-76.3635 613.032,-82.7645"/>
</g>
<!-- Node20 -->
<g id="node20" class="node"><title>Node20</title>
<polygon fill="white" stroke="#bfbfbf" points="684.5,-56.5 684.5,-75.5 743.5,-75.5 743.5,-56.5 684.5,-56.5"/>
<text text-anchor="middle" x="714" y="-63.5" font-family="Helvetica,sans-Serif" font-size="10.00">stdexcept</text>
</g>
<!-- Node17&#45;&gt;Node20 -->
<g id="edge20" class="edge"><title>Node17&#45;&gt;Node20</title>
<path fill="none" stroke="midnightblue" d="M541.253,-114.593C574.159,-105.528 634.744,-88.8357 674.706,-77.826"/>
<polygon fill="midnightblue" stroke="midnightblue" points="675.68,-81.1879 684.391,-75.1575 673.821,-74.4394 675.68,-81.1879"/>
</g>
</g>
</svg>
