<?xml version="1.0" encoding="UTF-8" standalone="no"?>
<!DOCTYPE svg PUBLIC "-//W3C//DTD SVG 1.1//EN"
 "http://www.w3.org/Graphics/SVG/1.1/DTD/svg11.dtd">
<!-- Generated by graphviz version 2.36.0 (20140111.2315)
 -->
<!-- Title: IDIM.h Pages: 1 -->
<svg width="795pt" height="140pt"
 viewBox="0.00 0.00 795.00 140.00" xmlns="http://www.w3.org/2000/svg" xmlns:xlink="http://www.w3.org/1999/xlink">
<g id="graph0" class="graph" transform="scale(1 1) rotate(0) translate(4 136)">
<title>IDIM.h</title>
<polygon fill="white" stroke="none" points="-4,4 -4,-136 791,-136 791,4 -4,4"/>
<!-- Node1 -->
<g id="node1" class="node"><title>Node1</title>
<polygon fill="#bfbfbf" stroke="black" points="381.5,-112.5 381.5,-131.5 428.5,-131.5 428.5,-112.5 381.5,-112.5"/>
<text text-anchor="middle" x="405" y="-119.5" font-family="Helvetica,sans-Serif" font-size="10.00">IDIM.h</text>
</g>
<!-- Node2 -->
<g id="node2" class="node"><title>Node2</title>
<polygon fill="white" stroke="#bfbfbf" points="274,-56.5 274,-75.5 318,-75.5 318,-56.5 274,-56.5"/>
<text text-anchor="middle" x="296" y="-63.5" font-family="Helvetica,sans-Serif" font-size="10.00">vector</text>
</g>
<!-- Node1&#45;&gt;Node2 -->
<g id="edge1" class="edge"><title>Node1&#45;&gt;Node2</title>
<path fill="none" stroke="midnightblue" d="M387.487,-112.324C369.928,-103.625 342.669,-90.1202 322.469,-80.113"/>
<polygon fill="midnightblue" stroke="midnightblue" points="323.984,-76.9575 313.469,-75.6545 320.876,-83.23 323.984,-76.9575"/>
</g>
<!-- Node3 -->
<g id="node3" class="node"><title>Node3</title>
<g id="a_node3"><a doxygen="/usr/local/share/doc/SpaceVecAlg/doxygen-html/SpaceVecAlg.doxytag:/usr/local/share/doc/SpaceVecAlg/doxygen-html/" xlink:href="/usr/local/share/doc/SpaceVecAlg/doxygen-html/a00016.html" target="_top" xlink:title="SpaceVecAlg/SpaceVecAlg">
<polygon fill="white" stroke="black" points="336,-56.5 336,-75.5 474,-75.5 474,-56.5 336,-56.5"/>
<text text-anchor="middle" x="405" y="-63.5" font-family="Helvetica,sans-Serif" font-size="10.00">SpaceVecAlg/SpaceVecAlg</text>
</a>
</g>
</g>
<!-- Node1&#45;&gt;Node3 -->
<g id="edge2" class="edge"><title>Node1&#45;&gt;Node3</title>
<path fill="none" stroke="midnightblue" d="M405,-112.083C405,-105.006 405,-94.8611 405,-85.9865"/>
<polygon fill="midnightblue" stroke="midnightblue" points="408.5,-85.751 405,-75.7511 401.5,-85.7511 408.5,-85.751"/>
</g>
<!-- Node13 -->
<g id="node13" class="node"><title>Node13</title>
<polygon fill="white" stroke="#bfbfbf" points="492.5,-56.5 492.5,-75.5 575.5,-75.5 575.5,-56.5 492.5,-56.5"/>
<text text-anchor="middle" x="534" y="-63.5" font-family="Helvetica,sans-Serif" font-size="10.00">rbdyn/config.hh</text>
</g>
<!-- Node1&#45;&gt;Node13 -->
<g id="edge12" class="edge"><title>Node1&#45;&gt;Node13</title>
<path fill="none" stroke="midnightblue" d="M425.44,-112.444C446.67,-103.557 480.099,-89.5632 504.255,-79.4514"/>
<polygon fill="midnightblue" stroke="midnightblue" points="505.782,-82.6064 513.655,-75.5164 503.079,-76.1493 505.782,-82.6064"/>
</g>
<!-- Node4 -->
<g id="node4" class="node"><title>Node4</title>
<g id="a_node4"><a doxygen="/usr/local/share/doc/SpaceVecAlg/doxygen-html/SpaceVecAlg.doxytag:/usr/local/share/doc/SpaceVecAlg/doxygen-html/" xlink:href="/usr/local/share/doc/SpaceVecAlg/doxygen-html/a00008.html" target="_top" xlink:title="EigenTypedef.h">
<polygon fill="white" stroke="black" points="-0.5,-0.5 -0.5,-19.5 84.5,-19.5 84.5,-0.5 -0.5,-0.5"/>
<text text-anchor="middle" x="42" y="-7.5" font-family="Helvetica,sans-Serif" font-size="10.00">EigenTypedef.h</text>
</a>
</g>
</g>
<!-- Node3&#45;&gt;Node4 -->
<g id="edge3" class="edge"><title>Node3&#45;&gt;Node4</title>
<path fill="none" stroke="midnightblue" d="M341.867,-56.4872C280.998,-48.145 186.021,-34.7763 94.5436,-20.2104"/>
<polygon fill="midnightblue" stroke="midnightblue" points="94.9872,-16.737 84.5599,-18.6136 93.8816,-23.6491 94.9872,-16.737"/>
</g>
<!-- Node5 -->
<g id="node5" class="node"><title>Node5</title>
<g id="a_node5"><a doxygen="/usr/local/share/doc/SpaceVecAlg/doxygen-html/SpaceVecAlg.doxytag:/usr/local/share/doc/SpaceVecAlg/doxygen-html/" xlink:href="/usr/local/share/doc/SpaceVecAlg/doxygen-html/a00009.html" target="_top" xlink:title="EigenUtility.h">
<polygon fill="white" stroke="black" points="102.5,-0.5 102.5,-19.5 177.5,-19.5 177.5,-0.5 102.5,-0.5"/>
<text text-anchor="middle" x="140" y="-7.5" font-family="Helvetica,sans-Serif" font-size="10.00">EigenUtility.h</text>
</a>
</g>
</g>
<!-- Node3&#45;&gt;Node5 -->
<g id="edge4" class="edge"><title>Node3&#45;&gt;Node5</title>
<path fill="none" stroke="midnightblue" d="M363.01,-56.4435C315.222,-46.7057 237.346,-30.8366 187.412,-20.6614"/>
<polygon fill="midnightblue" stroke="midnightblue" points="188.006,-17.2106 177.509,-18.6433 186.609,-24.0696 188.006,-17.2106"/>
</g>
<!-- Node6 -->
<g id="node6" class="node"><title>Node6</title>
<g id="a_node6"><a doxygen="/usr/local/share/doc/SpaceVecAlg/doxygen-html/SpaceVecAlg.doxytag:/usr/local/share/doc/SpaceVecAlg/doxygen-html/" xlink:href="/usr/local/share/doc/SpaceVecAlg/doxygen-html/a00011.html" target="_top" xlink:title="MathFunc.h">
<polygon fill="white" stroke="black" points="196,-0.5 196,-19.5 264,-19.5 264,-0.5 196,-0.5"/>
<text text-anchor="middle" x="230" y="-7.5" font-family="Helvetica,sans-Serif" font-size="10.00">MathFunc.h</text>
</a>
</g>
</g>
<!-- Node3&#45;&gt;Node6 -->
<g id="edge5" class="edge"><title>Node3&#45;&gt;Node6</title>
<path fill="none" stroke="midnightblue" d="M377.271,-56.4435C347.574,-47.2801 300.284,-32.6876 267.331,-22.5192"/>
<polygon fill="midnightblue" stroke="midnightblue" points="268.187,-19.1206 257.6,-19.5164 266.123,-25.8094 268.187,-19.1206"/>
</g>
<!-- Node7 -->
<g id="node7" class="node"><title>Node7</title>
<g id="a_node7"><a doxygen="/usr/local/share/doc/SpaceVecAlg/doxygen-html/SpaceVecAlg.doxytag:/usr/local/share/doc/SpaceVecAlg/doxygen-html/" xlink:href="/usr/local/share/doc/SpaceVecAlg/doxygen-html/a00012.html" target="_top" xlink:title="MotionVec.h">
<polygon fill="white" stroke="black" points="282.5,-0.5 282.5,-19.5 353.5,-19.5 353.5,-0.5 282.5,-0.5"/>
<text text-anchor="middle" x="318" y="-7.5" font-family="Helvetica,sans-Serif" font-size="10.00">MotionVec.h</text>
</a>
</g>
</g>
<!-- Node3&#45;&gt;Node7 -->
<g id="edge6" class="edge"><title>Node3&#45;&gt;Node7</title>
<path fill="none" stroke="midnightblue" d="M391.022,-56.324C377.45,-47.9002 356.62,-34.9709 340.675,-25.0741"/>
<polygon fill="midnightblue" stroke="midnightblue" points="342.286,-21.9544 331.943,-19.6545 338.594,-27.9019 342.286,-21.9544"/>
</g>
<!-- Node8 -->
<g id="node8" class="node"><title>Node8</title>
<g id="a_node8"><a doxygen="/usr/local/share/doc/SpaceVecAlg/doxygen-html/SpaceVecAlg.doxytag:/usr/local/share/doc/SpaceVecAlg/doxygen-html/" xlink:href="/usr/local/share/doc/SpaceVecAlg/doxygen-html/a00010.html" target="_top" xlink:title="ForceVec.h">
<polygon fill="white" stroke="black" points="371.5,-0.5 371.5,-19.5 438.5,-19.5 438.5,-0.5 371.5,-0.5"/>
<text text-anchor="middle" x="405" y="-7.5" font-family="Helvetica,sans-Serif" font-size="10.00">ForceVec.h</text>
</a>
</g>
</g>
<!-- Node3&#45;&gt;Node8 -->
<g id="edge7" class="edge"><title>Node3&#45;&gt;Node8</title>
<path fill="none" stroke="midnightblue" d="M405,-56.083C405,-49.0059 405,-38.8611 405,-29.9865"/>
<polygon fill="midnightblue" stroke="midnightblue" points="408.5,-29.751 405,-19.7511 401.5,-29.7511 408.5,-29.751"/>
</g>
<!-- Node9 -->
<g id="node9" class="node"><title>Node9</title>
<g id="a_node9"><a doxygen="/usr/local/share/doc/SpaceVecAlg/doxygen-html/SpaceVecAlg.doxytag:/usr/local/share/doc/SpaceVecAlg/doxygen-html/" xlink:href="/usr/local/share/doc/SpaceVecAlg/doxygen-html/a00015.html" target="_top" xlink:title="RBInertia.h">
<polygon fill="white" stroke="black" points="457,-0.5 457,-19.5 523,-19.5 523,-0.5 457,-0.5"/>
<text text-anchor="middle" x="490" y="-7.5" font-family="Helvetica,sans-Serif" font-size="10.00">RBInertia.h</text>
</a>
</g>
</g>
<!-- Node3&#45;&gt;Node9 -->
<g id="edge8" class="edge"><title>Node3&#45;&gt;Node9</title>
<path fill="none" stroke="midnightblue" d="M418.657,-56.324C431.916,-47.9002 452.268,-34.9709 467.846,-25.0741"/>
<polygon fill="midnightblue" stroke="midnightblue" points="469.813,-27.9711 476.377,-19.6545 466.06,-22.0626 469.813,-27.9711"/>
</g>
<!-- Node10 -->
<g id="node10" class="node"><title>Node10</title>
<g id="a_node10"><a doxygen="/usr/local/share/doc/SpaceVecAlg/doxygen-html/SpaceVecAlg.doxytag:/usr/local/share/doc/SpaceVecAlg/doxygen-html/" xlink:href="/usr/local/share/doc/SpaceVecAlg/doxygen-html/a00006.html" target="_top" xlink:title="ABInertia.h">
<polygon fill="white" stroke="black" points="541.5,-0.5 541.5,-19.5 606.5,-19.5 606.5,-0.5 541.5,-0.5"/>
<text text-anchor="middle" x="574" y="-7.5" font-family="Helvetica,sans-Serif" font-size="10.00">ABInertia.h</text>
</a>
</g>
</g>
<!-- Node3&#45;&gt;Node10 -->
<g id="edge9" class="edge"><title>Node3&#45;&gt;Node10</title>
<path fill="none" stroke="midnightblue" d="M431.779,-56.4435C460.333,-47.3196 505.733,-32.8133 537.537,-22.6509"/>
<polygon fill="midnightblue" stroke="midnightblue" points="538.886,-25.8941 547.347,-19.5164 536.756,-19.2262 538.886,-25.8941"/>
</g>
<!-- Node11 -->
<g id="node11" class="node"><title>Node11</title>
<g id="a_node11"><a doxygen="/usr/local/share/doc/SpaceVecAlg/doxygen-html/SpaceVecAlg.doxytag:/usr/local/share/doc/SpaceVecAlg/doxygen-html/" xlink:href="/usr/local/share/doc/SpaceVecAlg/doxygen-html/a00014.html" target="_top" xlink:title="PTransform.h">
<polygon fill="white" stroke="black" points="625,-0.5 625,-19.5 701,-19.5 701,-0.5 625,-0.5"/>
<text text-anchor="middle" x="663" y="-7.5" font-family="Helvetica,sans-Serif" font-size="10.00">PTransform.h</text>
</a>
</g>
</g>
<!-- Node3&#45;&gt;Node11 -->
<g id="edge10" class="edge"><title>Node3&#45;&gt;Node11</title>
<path fill="none" stroke="midnightblue" d="M445.881,-56.4435C491.779,-46.837 566.184,-31.2637 614.857,-21.0763"/>
<polygon fill="midnightblue" stroke="midnightblue" points="615.763,-24.4628 624.834,-18.9883 614.329,-17.6113 615.763,-24.4628"/>
</g>
<!-- Node12 -->
<g id="node12" class="node"><title>Node12</title>
<g id="a_node12"><a doxygen="/usr/local/share/doc/SpaceVecAlg/doxygen-html/SpaceVecAlg.doxytag:/usr/local/share/doc/SpaceVecAlg/doxygen-html/" xlink:href="/usr/local/share/doc/SpaceVecAlg/doxygen-html/a00013.html" target="_top" xlink:title="Operators.h">
<polygon fill="white" stroke="black" points="719,-0.5 719,-19.5 787,-19.5 787,-0.5 719,-0.5"/>
<text text-anchor="middle" x="753" y="-7.5" font-family="Helvetica,sans-Serif" font-size="10.00">Operators.h</text>
</a>
</g>
</g>
<!-- Node3&#45;&gt;Node12 -->
<g id="edge11" class="edge"><title>Node3&#45;&gt;Node12</title>
<path fill="none" stroke="midnightblue" d="M470.63,-56.4727C530.285,-48.4584 620.956,-35.6223 708.892,-20.1129"/>
<polygon fill="midnightblue" stroke="midnightblue" points="709.535,-23.5535 718.768,-18.3575 708.31,-16.6615 709.535,-23.5535"/>
</g>
</g>
</svg>
