<?xml version="1.0" encoding="UTF-8" standalone="no"?>
<!DOCTYPE svg PUBLIC "-//W3C//DTD SVG 1.1//EN"
 "http://www.w3.org/Graphics/SVG/1.1/DTD/svg11.dtd">
<!-- Generated by graphviz version 2.36.0 (20140111.2315)
 -->
<!-- Title: EulerIntegration.h Pages: 1 -->
<svg width="477pt" height="140pt"
 viewBox="0.00 0.00 477.00 140.00" xmlns="http://www.w3.org/2000/svg" xmlns:xlink="http://www.w3.org/1999/xlink">
<g id="graph0" class="graph" transform="scale(1 1) rotate(0) translate(4 136)">
<title>EulerIntegration.h</title>
<polygon fill="white" stroke="none" points="-4,4 -4,-136 473,-136 473,4 -4,4"/>
<!-- Node1 -->
<g id="node1" class="node"><title>Node1</title>
<polygon fill="#bfbfbf" stroke="black" points="103.5,-112.5 103.5,-131.5 196.5,-131.5 196.5,-112.5 103.5,-112.5"/>
<text text-anchor="middle" x="150" y="-119.5" font-family="Helvetica,sans-Serif" font-size="10.00">EulerIntegration.h</text>
</g>
<!-- Node2 -->
<g id="node2" class="node"><title>Node2</title>
<polygon fill="white" stroke="#bfbfbf" points="0,-0.5 0,-19.5 44,-19.5 44,-0.5 0,-0.5"/>
<text text-anchor="middle" x="22" y="-7.5" font-family="Helvetica,sans-Serif" font-size="10.00">vector</text>
</g>
<!-- Node1&#45;&gt;Node2 -->
<g id="edge1" class="edge"><title>Node1&#45;&gt;Node2</title>
<path fill="none" stroke="midnightblue" d="M139.956,-112.368C118.272,-93.7334 66.8377,-49.5324 39.6103,-26.1338"/>
<polygon fill="midnightblue" stroke="midnightblue" points="41.8627,-23.4546 31.9973,-19.5914 37.3003,-28.7636 41.8627,-23.4546"/>
</g>
<!-- Node3 -->
<g id="node3" class="node"><title>Node3</title>
<g id="a_node3"><a xlink:href="a00030.html" target="_top" xlink:title="Joint.h">
<polygon fill="white" stroke="black" points="127,-56.5 127,-75.5 173,-75.5 173,-56.5 127,-56.5"/>
<text text-anchor="middle" x="150" y="-63.5" font-family="Helvetica,sans-Serif" font-size="10.00">Joint.h</text>
</a>
</g>
</g>
<!-- Node1&#45;&gt;Node3 -->
<g id="edge2" class="edge"><title>Node1&#45;&gt;Node3</title>
<path fill="none" stroke="midnightblue" d="M150,-112.083C150,-105.006 150,-94.8611 150,-85.9865"/>
<polygon fill="midnightblue" stroke="midnightblue" points="153.5,-85.751 150,-75.7511 146.5,-85.7511 153.5,-85.751"/>
</g>
<!-- Node9 -->
<g id="node9" class="node"><title>Node9</title>
<polygon fill="white" stroke="#bfbfbf" points="191.5,-56.5 191.5,-75.5 274.5,-75.5 274.5,-56.5 191.5,-56.5"/>
<text text-anchor="middle" x="233" y="-63.5" font-family="Helvetica,sans-Serif" font-size="10.00">rbdyn/config.hh</text>
</g>
<!-- Node1&#45;&gt;Node9 -->
<g id="edge9" class="edge"><title>Node1&#45;&gt;Node9</title>
<path fill="none" stroke="midnightblue" d="M163.335,-112.324C176.162,-103.979 195.785,-91.2122 210.94,-81.3524"/>
<polygon fill="midnightblue" stroke="midnightblue" points="213.224,-84.0417 219.698,-75.6545 209.407,-78.1742 213.224,-84.0417"/>
</g>
<!-- Node3&#45;&gt;Node2 -->
<g id="edge7" class="edge"><title>Node3&#45;&gt;Node2</title>
<path fill="none" stroke="midnightblue" d="M129.718,-56.4435C108.653,-47.5566 75.4832,-33.5632 51.5145,-23.4514"/>
<polygon fill="midnightblue" stroke="midnightblue" points="52.7612,-20.1787 42.1871,-19.5164 50.0403,-26.6283 52.7612,-20.1787"/>
</g>
<!-- Node4 -->
<g id="node4" class="node"><title>Node4</title>
<polygon fill="white" stroke="#bfbfbf" points="62,-0.5 62,-19.5 106,-19.5 106,-0.5 62,-0.5"/>
<text text-anchor="middle" x="84" y="-7.5" font-family="Helvetica,sans-Serif" font-size="10.00">cmath</text>
</g>
<!-- Node3&#45;&gt;Node4 -->
<g id="edge3" class="edge"><title>Node3&#45;&gt;Node4</title>
<path fill="none" stroke="midnightblue" d="M139.396,-56.324C129.544,-48.2631 114.649,-36.0765 102.785,-26.3695"/>
<polygon fill="midnightblue" stroke="midnightblue" points="104.753,-23.4575 94.797,-19.8339 100.32,-28.8752 104.753,-23.4575"/>
</g>
<!-- Node5 -->
<g id="node5" class="node"><title>Node5</title>
<polygon fill="white" stroke="#bfbfbf" points="124,-0.5 124,-19.5 176,-19.5 176,-0.5 124,-0.5"/>
<text text-anchor="middle" x="150" y="-7.5" font-family="Helvetica,sans-Serif" font-size="10.00">sstream</text>
</g>
<!-- Node3&#45;&gt;Node5 -->
<g id="edge4" class="edge"><title>Node3&#45;&gt;Node5</title>
<path fill="none" stroke="midnightblue" d="M150,-56.083C150,-49.0059 150,-38.8611 150,-29.9865"/>
<polygon fill="midnightblue" stroke="midnightblue" points="153.5,-29.751 150,-19.7511 146.5,-29.7511 153.5,-29.751"/>
</g>
<!-- Node6 -->
<g id="node6" class="node"><title>Node6</title>
<polygon fill="white" stroke="#bfbfbf" points="194.5,-0.5 194.5,-19.5 253.5,-19.5 253.5,-0.5 194.5,-0.5"/>
<text text-anchor="middle" x="224" y="-7.5" font-family="Helvetica,sans-Serif" font-size="10.00">stdexcept</text>
</g>
<!-- Node3&#45;&gt;Node6 -->
<g id="edge5" class="edge"><title>Node3&#45;&gt;Node6</title>
<path fill="none" stroke="midnightblue" d="M161.889,-56.324C173.15,-48.1066 190.287,-35.6017 203.709,-25.8069"/>
<polygon fill="midnightblue" stroke="midnightblue" points="205.88,-28.5559 211.894,-19.8339 201.753,-22.9014 205.88,-28.5559"/>
</g>
<!-- Node7 -->
<g id="node7" class="node"><title>Node7</title>
<polygon fill="white" stroke="#bfbfbf" points="271.5,-0.5 271.5,-19.5 312.5,-19.5 312.5,-0.5 271.5,-0.5"/>
<text text-anchor="middle" x="292" y="-7.5" font-family="Helvetica,sans-Serif" font-size="10.00">string</text>
</g>
<!-- Node3&#45;&gt;Node7 -->
<g id="edge6" class="edge"><title>Node3&#45;&gt;Node7</title>
<path fill="none" stroke="midnightblue" d="M172.5,-56.4435C196.632,-47.2666 235.083,-32.6446 261.827,-22.4744"/>
<polygon fill="midnightblue" stroke="midnightblue" points="263.346,-25.6411 271.449,-18.8151 260.858,-19.0982 263.346,-25.6411"/>
</g>
<!-- Node8 -->
<g id="node8" class="node"><title>Node8</title>
<polygon fill="white" stroke="#bfbfbf" points="331,-0.5 331,-19.5 469,-19.5 469,-0.5 331,-0.5"/>
<text text-anchor="middle" x="400" y="-7.5" font-family="Helvetica,sans-Serif" font-size="10.00">SpaceVecAlg/SpaceVecAlg</text>
</g>
<!-- Node3&#45;&gt;Node8 -->
<g id="edge8" class="edge"><title>Node3&#45;&gt;Node8</title>
<path fill="none" stroke="midnightblue" d="M173.032,-58.5236C176.368,-57.6424 179.766,-56.7755 183,-56 237.843,-42.8483 301.026,-30.0041 345.017,-21.4271"/>
<polygon fill="midnightblue" stroke="midnightblue" points="345.785,-24.8435 354.935,-19.5023 344.451,-17.9717 345.785,-24.8435"/>
</g>
</g>
</svg>
