<?xml version="1.0" encoding="UTF-8" standalone="no"?>
<!DOCTYPE svg PUBLIC "-//W3C//DTD SVG 1.1//EN"
 "http://www.w3.org/Graphics/SVG/1.1/DTD/svg11.dtd">
<!-- Generated by graphviz version 2.36.0 (20140111.2315)
 -->
<!-- Title: Joint.h Pages: 1 -->
<svg width="477pt" height="84pt"
 viewBox="0.00 0.00 477.00 84.00" xmlns="http://www.w3.org/2000/svg" xmlns:xlink="http://www.w3.org/1999/xlink">
<g id="graph0" class="graph" transform="scale(1 1) rotate(0) translate(4 80)">
<title>Joint.h</title>
<polygon fill="white" stroke="none" points="-4,4 -4,-80 473,-80 473,4 -4,4"/>
<!-- Node1 -->
<g id="node1" class="node"><title>Node1</title>
<polygon fill="#bfbfbf" stroke="black" points="173,-56.5 173,-75.5 219,-75.5 219,-56.5 173,-56.5"/>
<text text-anchor="middle" x="196" y="-63.5" font-family="Helvetica,sans-Serif" font-size="10.00">Joint.h</text>
</g>
<!-- Node2 -->
<g id="node2" class="node"><title>Node2</title>
<polygon fill="white" stroke="#bfbfbf" points="0,-0.5 0,-19.5 44,-19.5 44,-0.5 0,-0.5"/>
<text text-anchor="middle" x="22" y="-7.5" font-family="Helvetica,sans-Serif" font-size="10.00">cmath</text>
</g>
<!-- Node1&#45;&gt;Node2 -->
<g id="edge1" class="edge"><title>Node1&#45;&gt;Node2</title>
<path fill="none" stroke="midnightblue" d="M172.894,-57.8292C142.268,-48.3245 88.0976,-31.5131 53.6754,-20.8303"/>
<polygon fill="midnightblue" stroke="midnightblue" points="54.6887,-17.4802 44.1007,-17.8588 52.6139,-24.1656 54.6887,-17.4802"/>
</g>
<!-- Node3 -->
<g id="node3" class="node"><title>Node3</title>
<polygon fill="white" stroke="#bfbfbf" points="62,-0.5 62,-19.5 114,-19.5 114,-0.5 62,-0.5"/>
<text text-anchor="middle" x="88" y="-7.5" font-family="Helvetica,sans-Serif" font-size="10.00">sstream</text>
</g>
<!-- Node1&#45;&gt;Node3 -->
<g id="edge2" class="edge"><title>Node1&#45;&gt;Node3</title>
<path fill="none" stroke="midnightblue" d="M178.648,-56.324C161.328,-47.6641 134.485,-34.2424 114.498,-24.249"/>
<polygon fill="midnightblue" stroke="midnightblue" points="115.819,-20.9962 105.309,-19.6545 112.688,-27.2572 115.819,-20.9962"/>
</g>
<!-- Node4 -->
<g id="node4" class="node"><title>Node4</title>
<polygon fill="white" stroke="#bfbfbf" points="132.5,-0.5 132.5,-19.5 191.5,-19.5 191.5,-0.5 132.5,-0.5"/>
<text text-anchor="middle" x="162" y="-7.5" font-family="Helvetica,sans-Serif" font-size="10.00">stdexcept</text>
</g>
<!-- Node1&#45;&gt;Node4 -->
<g id="edge3" class="edge"><title>Node1&#45;&gt;Node4</title>
<path fill="none" stroke="midnightblue" d="M190.386,-56.083C185.633,-48.5341 178.682,-37.4948 172.848,-28.2298"/>
<polygon fill="midnightblue" stroke="midnightblue" points="175.8,-26.3486 167.51,-19.7511 169.876,-30.0783 175.8,-26.3486"/>
</g>
<!-- Node5 -->
<g id="node5" class="node"><title>Node5</title>
<polygon fill="white" stroke="#bfbfbf" points="209.5,-0.5 209.5,-19.5 250.5,-19.5 250.5,-0.5 209.5,-0.5"/>
<text text-anchor="middle" x="230" y="-7.5" font-family="Helvetica,sans-Serif" font-size="10.00">string</text>
</g>
<!-- Node1&#45;&gt;Node5 -->
<g id="edge4" class="edge"><title>Node1&#45;&gt;Node5</title>
<path fill="none" stroke="midnightblue" d="M201.614,-56.083C206.367,-48.5341 213.318,-37.4948 219.152,-28.2298"/>
<polygon fill="midnightblue" stroke="midnightblue" points="222.124,-30.0783 224.49,-19.7511 216.2,-26.3486 222.124,-30.0783"/>
</g>
<!-- Node6 -->
<g id="node6" class="node"><title>Node6</title>
<polygon fill="white" stroke="#bfbfbf" points="269,-0.5 269,-19.5 313,-19.5 313,-0.5 269,-0.5"/>
<text text-anchor="middle" x="291" y="-7.5" font-family="Helvetica,sans-Serif" font-size="10.00">vector</text>
</g>
<!-- Node1&#45;&gt;Node6 -->
<g id="edge5" class="edge"><title>Node1&#45;&gt;Node6</title>
<path fill="none" stroke="midnightblue" d="M211.263,-56.324C226.221,-47.8215 249.255,-34.7288 266.727,-24.7975"/>
<polygon fill="midnightblue" stroke="midnightblue" points="268.81,-27.639 275.774,-19.6545 265.351,-21.5534 268.81,-27.639"/>
</g>
<!-- Node7 -->
<g id="node7" class="node"><title>Node7</title>
<polygon fill="white" stroke="#bfbfbf" points="331,-0.5 331,-19.5 469,-19.5 469,-0.5 331,-0.5"/>
<text text-anchor="middle" x="400" y="-7.5" font-family="Helvetica,sans-Serif" font-size="10.00">SpaceVecAlg/SpaceVecAlg</text>
</g>
<!-- Node1&#45;&gt;Node7 -->
<g id="edge6" class="edge"><title>Node1&#45;&gt;Node7</title>
<path fill="none" stroke="midnightblue" d="M219.005,-58.9105C252.672,-49.9986 315.925,-33.2553 358.016,-22.1135"/>
<polygon fill="midnightblue" stroke="midnightblue" points="358.933,-25.4912 367.705,-19.5488 357.142,-18.7243 358.933,-25.4912"/>
</g>
</g>
</svg>
