<?xml version="1.0" encoding="UTF-8" standalone="no"?>
<!DOCTYPE svg PUBLIC "-//W3C//DTD SVG 1.1//EN"
 "http://www.w3.org/Graphics/SVG/1.1/DTD/svg11.dtd">
<!-- Generated by graphviz version 2.36.0 (20140111.2315)
 -->
<!-- Title: Jacobian.h Pages: 1 -->
<svg width="513pt" height="196pt"
 viewBox="0.00 0.00 513.00 196.00" xmlns="http://www.w3.org/2000/svg" xmlns:xlink="http://www.w3.org/1999/xlink">
<g id="graph0" class="graph" transform="scale(1 1) rotate(0) translate(4 192)">
<title>Jacobian.h</title>
<polygon fill="white" stroke="none" points="-4,4 -4,-192 509,-192 509,4 -4,4"/>
<!-- Node1 -->
<g id="node1" class="node"><title>Node1</title>
<polygon fill="#bfbfbf" stroke="black" points="351,-168.5 351,-187.5 415,-187.5 415,-168.5 351,-168.5"/>
<text text-anchor="middle" x="383" y="-175.5" font-family="Helvetica,sans-Serif" font-size="10.00">Jacobian.h</text>
</g>
<!-- Node2 -->
<g id="node2" class="node"><title>Node2</title>
<g id="a_node2"><a xlink:href="a00032.html" target="_top" xlink:title="MultiBody.h">
<polygon fill="white" stroke="black" points="294,-112.5 294,-131.5 362,-131.5 362,-112.5 294,-112.5"/>
<text text-anchor="middle" x="328" y="-119.5" font-family="Helvetica,sans-Serif" font-size="10.00">MultiBody.h</text>
</a>
</g>
</g>
<!-- Node1&#45;&gt;Node2 -->
<g id="edge1" class="edge"><title>Node1&#45;&gt;Node2</title>
<path fill="none" stroke="midnightblue" d="M373.918,-168.083C365.829,-160.141 353.805,-148.335 344.09,-138.797"/>
<polygon fill="midnightblue" stroke="midnightblue" points="346.501,-136.26 336.913,-131.751 341.597,-141.254 346.501,-136.26"/>
</g>
<!-- Node12 -->
<g id="node12" class="node"><title>Node12</title>
<polygon fill="white" stroke="#bfbfbf" points="421.5,-56.5 421.5,-75.5 504.5,-75.5 504.5,-56.5 421.5,-56.5"/>
<text text-anchor="middle" x="463" y="-63.5" font-family="Helvetica,sans-Serif" font-size="10.00">rbdyn/config.hh</text>
</g>
<!-- Node1&#45;&gt;Node12 -->
<g id="edge17" class="edge"><title>Node1&#45;&gt;Node12</title>
<path fill="none" stroke="midnightblue" d="M389.277,-168.368C402.48,-150.215 433.326,-107.802 450.644,-83.9902"/>
<polygon fill="midnightblue" stroke="midnightblue" points="453.701,-85.7374 456.752,-75.5914 448.039,-81.6202 453.701,-85.7374"/>
</g>
<!-- Node3 -->
<g id="node3" class="node"><title>Node3</title>
<polygon fill="white" stroke="#bfbfbf" points="348.5,-0.5 348.5,-19.5 407.5,-19.5 407.5,-0.5 348.5,-0.5"/>
<text text-anchor="middle" x="378" y="-7.5" font-family="Helvetica,sans-Serif" font-size="10.00">stdexcept</text>
</g>
<!-- Node2&#45;&gt;Node3 -->
<g id="edge2" class="edge"><title>Node2&#45;&gt;Node3</title>
<path fill="none" stroke="midnightblue" d="M331.923,-112.368C340.065,-94.4563 358.944,-52.9233 369.842,-28.9482"/>
<polygon fill="midnightblue" stroke="midnightblue" points="373.143,-30.1434 374.095,-19.5914 366.77,-27.2468 373.143,-30.1434"/>
</g>
<!-- Node4 -->
<g id="node4" class="node"><title>Node4</title>
<polygon fill="white" stroke="#bfbfbf" points="179.5,-56.5 179.5,-75.5 262.5,-75.5 262.5,-56.5 179.5,-56.5"/>
<text text-anchor="middle" x="221" y="-63.5" font-family="Helvetica,sans-Serif" font-size="10.00">unordered_map</text>
</g>
<!-- Node2&#45;&gt;Node4 -->
<g id="edge3" class="edge"><title>Node2&#45;&gt;Node4</title>
<path fill="none" stroke="midnightblue" d="M310.809,-112.324C293.649,-103.664 267.054,-90.2424 247.253,-80.249"/>
<polygon fill="midnightblue" stroke="midnightblue" points="248.653,-77.0354 238.149,-75.6545 245.499,-83.2847 248.653,-77.0354"/>
</g>
<!-- Node5 -->
<g id="node5" class="node"><title>Node5</title>
<polygon fill="white" stroke="#bfbfbf" points="426,-0.5 426,-19.5 470,-19.5 470,-0.5 426,-0.5"/>
<text text-anchor="middle" x="448" y="-7.5" font-family="Helvetica,sans-Serif" font-size="10.00">vector</text>
</g>
<!-- Node2&#45;&gt;Node5 -->
<g id="edge4" class="edge"><title>Node2&#45;&gt;Node5</title>
<path fill="none" stroke="midnightblue" d="M337.416,-112.368C357.658,-93.8137 405.55,-49.9129 431.159,-26.4376"/>
<polygon fill="midnightblue" stroke="midnightblue" points="433.621,-28.9287 438.628,-19.5914 428.891,-23.7686 433.621,-28.9287"/>
</g>
<!-- Node6 -->
<g id="node6" class="node"><title>Node6</title>
<polygon fill="white" stroke="#bfbfbf" points="0,-0.5 0,-19.5 138,-19.5 138,-0.5 0,-0.5"/>
<text text-anchor="middle" x="69" y="-7.5" font-family="Helvetica,sans-Serif" font-size="10.00">SpaceVecAlg/SpaceVecAlg</text>
</g>
<!-- Node2&#45;&gt;Node6 -->
<g id="edge5" class="edge"><title>Node2&#45;&gt;Node6</title>
<path fill="none" stroke="midnightblue" d="M293.746,-117.614C238.927,-111.623 134.635,-97.701 105,-76 89.4225,-64.5929 79.7543,-44.3058 74.4104,-29.4214"/>
<polygon fill="midnightblue" stroke="midnightblue" points="77.6834,-28.1685 71.2608,-19.7423 71.027,-30.3346 77.6834,-28.1685"/>
</g>
<!-- Node7 -->
<g id="node7" class="node"><title>Node7</title>
<g id="a_node7"><a xlink:href="a00018.html" target="_top" xlink:title="Body.h">
<polygon fill="white" stroke="black" points="114.5,-56.5 114.5,-75.5 161.5,-75.5 161.5,-56.5 114.5,-56.5"/>
<text text-anchor="middle" x="138" y="-63.5" font-family="Helvetica,sans-Serif" font-size="10.00">Body.h</text>
</a>
</g>
</g>
<!-- Node2&#45;&gt;Node7 -->
<g id="edge6" class="edge"><title>Node2&#45;&gt;Node7</title>
<path fill="none" stroke="midnightblue" d="M297.894,-112.444C263.513,-102.672 207.412,-86.7275 171.626,-76.5567"/>
<polygon fill="midnightblue" stroke="midnightblue" points="172.238,-73.0923 161.662,-73.7251 170.324,-79.8256 172.238,-73.0923"/>
</g>
<!-- Node9 -->
<g id="node9" class="node"><title>Node9</title>
<g id="a_node9"><a xlink:href="a00030.html" target="_top" xlink:title="Joint.h">
<polygon fill="white" stroke="black" points="281,-56.5 281,-75.5 327,-75.5 327,-56.5 281,-56.5"/>
<text text-anchor="middle" x="304" y="-63.5" font-family="Helvetica,sans-Serif" font-size="10.00">Joint.h</text>
</a>
</g>
</g>
<!-- Node2&#45;&gt;Node9 -->
<g id="edge9" class="edge"><title>Node2&#45;&gt;Node9</title>
<path fill="none" stroke="midnightblue" d="M324.037,-112.083C320.787,-104.77 316.081,-94.1814 312.046,-85.1034"/>
<polygon fill="midnightblue" stroke="midnightblue" points="315.149,-83.4677 307.889,-75.7511 308.752,-86.3107 315.149,-83.4677"/>
</g>
<!-- Node2&#45;&gt;Node12 -->
<g id="edge16" class="edge"><title>Node2&#45;&gt;Node12</title>
<path fill="none" stroke="midnightblue" d="M349.391,-112.444C371.707,-103.517 406.903,-89.4387 432.208,-79.3168"/>
<polygon fill="midnightblue" stroke="midnightblue" points="433.724,-82.4801 441.709,-75.5164 431.124,-75.9807 433.724,-82.4801"/>
</g>
<!-- Node7&#45;&gt;Node6 -->
<g id="edge8" class="edge"><title>Node7&#45;&gt;Node6</title>
<path fill="none" stroke="midnightblue" d="M126.914,-56.324C116.514,-48.1849 100.739,-35.8395 88.2784,-26.0874"/>
<polygon fill="midnightblue" stroke="midnightblue" points="90.3199,-23.2407 80.2878,-19.8339 86.0057,-28.7533 90.3199,-23.2407"/>
</g>
<!-- Node8 -->
<g id="node8" class="node"><title>Node8</title>
<polygon fill="white" stroke="#bfbfbf" points="156.5,-0.5 156.5,-19.5 197.5,-19.5 197.5,-0.5 156.5,-0.5"/>
<text text-anchor="middle" x="177" y="-7.5" font-family="Helvetica,sans-Serif" font-size="10.00">string</text>
</g>
<!-- Node7&#45;&gt;Node8 -->
<g id="edge7" class="edge"><title>Node7&#45;&gt;Node8</title>
<path fill="none" stroke="midnightblue" d="M144.44,-56.083C149.949,-48.4554 158.031,-37.2645 164.765,-27.9408"/>
<polygon fill="midnightblue" stroke="midnightblue" points="167.662,-29.9071 170.68,-19.7511 161.987,-25.8087 167.662,-29.9071"/>
</g>
<!-- Node9&#45;&gt;Node3 -->
<g id="edge12" class="edge"><title>Node9&#45;&gt;Node3</title>
<path fill="none" stroke="midnightblue" d="M315.889,-56.324C327.15,-48.1066 344.287,-35.6017 357.709,-25.8069"/>
<polygon fill="midnightblue" stroke="midnightblue" points="359.88,-28.5559 365.894,-19.8339 355.753,-22.9014 359.88,-28.5559"/>
</g>
<!-- Node9&#45;&gt;Node5 -->
<g id="edge14" class="edge"><title>Node9&#45;&gt;Node5</title>
<path fill="none" stroke="midnightblue" d="M326.817,-56.4435C350.973,-47.3851 389.276,-33.0213 416.345,-22.8705"/>
<polygon fill="midnightblue" stroke="midnightblue" points="417.628,-26.1274 425.763,-19.339 415.17,-19.5731 417.628,-26.1274"/>
</g>
<!-- Node9&#45;&gt;Node6 -->
<g id="edge15" class="edge"><title>Node9&#45;&gt;Node6</title>
<path fill="none" stroke="midnightblue" d="M280.957,-58.5671C277.623,-57.6795 274.228,-56.7993 271,-56 219.88,-43.3424 161.076,-30.4268 120.147,-21.6984"/>
<polygon fill="midnightblue" stroke="midnightblue" points="120.651,-18.2274 110.142,-19.5722 119.196,-25.0745 120.651,-18.2274"/>
</g>
<!-- Node9&#45;&gt;Node8 -->
<g id="edge13" class="edge"><title>Node9&#45;&gt;Node8</title>
<path fill="none" stroke="midnightblue" d="M283.876,-56.4435C262.976,-47.5566 230.065,-33.5632 206.284,-23.4514"/>
<polygon fill="midnightblue" stroke="midnightblue" points="207.602,-20.2085 197.029,-19.5164 204.862,-26.6504 207.602,-20.2085"/>
</g>
<!-- Node10 -->
<g id="node10" class="node"><title>Node10</title>
<polygon fill="white" stroke="#bfbfbf" points="216,-0.5 216,-19.5 260,-19.5 260,-0.5 216,-0.5"/>
<text text-anchor="middle" x="238" y="-7.5" font-family="Helvetica,sans-Serif" font-size="10.00">cmath</text>
</g>
<!-- Node9&#45;&gt;Node10 -->
<g id="edge10" class="edge"><title>Node9&#45;&gt;Node10</title>
<path fill="none" stroke="midnightblue" d="M293.396,-56.324C283.544,-48.2631 268.649,-36.0765 256.785,-26.3695"/>
<polygon fill="midnightblue" stroke="midnightblue" points="258.753,-23.4575 248.797,-19.8339 254.32,-28.8752 258.753,-23.4575"/>
</g>
<!-- Node11 -->
<g id="node11" class="node"><title>Node11</title>
<polygon fill="white" stroke="#bfbfbf" points="278,-0.5 278,-19.5 330,-19.5 330,-0.5 278,-0.5"/>
<text text-anchor="middle" x="304" y="-7.5" font-family="Helvetica,sans-Serif" font-size="10.00">sstream</text>
</g>
<!-- Node9&#45;&gt;Node11 -->
<g id="edge11" class="edge"><title>Node9&#45;&gt;Node11</title>
<path fill="none" stroke="midnightblue" d="M304,-56.083C304,-49.0059 304,-38.8611 304,-29.9865"/>
<polygon fill="midnightblue" stroke="midnightblue" points="307.5,-29.751 304,-19.7511 300.5,-29.7511 307.5,-29.751"/>
</g>
</g>
</svg>
