<?xml version="1.0" encoding="UTF-8" standalone="no"?>
<!DOCTYPE svg PUBLIC "-//W3C//DTD SVG 1.1//EN"
 "http://www.w3.org/Graphics/SVG/1.1/DTD/svg11.dtd">
<!-- Generated by graphviz version 2.36.0 (20140111.2315)
 -->
<!-- Title: CoM.h Pages: 1 -->
<svg width="583pt" height="252pt"
 viewBox="0.00 0.00 583.00 252.00" xmlns="http://www.w3.org/2000/svg" xmlns:xlink="http://www.w3.org/1999/xlink">
<g id="graph0" class="graph" transform="scale(1 1) rotate(0) translate(4 248)">
<title>CoM.h</title>
<polygon fill="white" stroke="none" points="-4,4 -4,-248 579,-248 579,4 -4,4"/>
<!-- Node1 -->
<g id="node1" class="node"><title>Node1</title>
<polygon fill="#bfbfbf" stroke="black" points="428,-224.5 428,-243.5 474,-243.5 474,-224.5 428,-224.5"/>
<text text-anchor="middle" x="451" y="-231.5" font-family="Helvetica,sans-Serif" font-size="10.00">CoM.h</text>
</g>
<!-- Node2 -->
<g id="node2" class="node"><title>Node2</title>
<polygon fill="white" stroke="#bfbfbf" points="0,-0.5 0,-19.5 44,-19.5 44,-0.5 0,-0.5"/>
<text text-anchor="middle" x="22" y="-7.5" font-family="Helvetica,sans-Serif" font-size="10.00">vector</text>
</g>
<!-- Node1&#45;&gt;Node2 -->
<g id="edge1" class="edge"><title>Node1&#45;&gt;Node2</title>
<path fill="none" stroke="midnightblue" d="M427.604,-224.795C370.064,-204.126 217.987,-146.504 103,-76 79.3956,-61.5272 54.9638,-41.0289 39.1907,-26.9417"/>
<polygon fill="midnightblue" stroke="midnightblue" points="41.1367,-23.9814 31.3789,-19.854 36.433,-29.1656 41.1367,-23.9814"/>
</g>
<!-- Node3 -->
<g id="node3" class="node"><title>Node3</title>
<polygon fill="white" stroke="#bfbfbf" points="509.5,-168.5 509.5,-187.5 574.5,-187.5 574.5,-168.5 509.5,-168.5"/>
<text text-anchor="middle" x="542" y="-175.5" font-family="Helvetica,sans-Serif" font-size="10.00">Eigen/Core</text>
</g>
<!-- Node1&#45;&gt;Node3 -->
<g id="edge2" class="edge"><title>Node1&#45;&gt;Node3</title>
<path fill="none" stroke="midnightblue" d="M465.621,-224.324C479.949,-215.822 502.013,-202.729 518.749,-192.797"/>
<polygon fill="midnightblue" stroke="midnightblue" points="520.602,-195.768 527.416,-187.655 517.03,-189.748 520.602,-195.768"/>
</g>
<!-- Node4 -->
<g id="node4" class="node"><title>Node4</title>
<g id="a_node4"><a xlink:href="a00029.html" target="_top" xlink:title="Jacobian.h">
<polygon fill="white" stroke="black" points="389,-168.5 389,-187.5 453,-187.5 453,-168.5 389,-168.5"/>
<text text-anchor="middle" x="421" y="-175.5" font-family="Helvetica,sans-Serif" font-size="10.00">Jacobian.h</text>
</a>
</g>
</g>
<!-- Node1&#45;&gt;Node4 -->
<g id="edge3" class="edge"><title>Node1&#45;&gt;Node4</title>
<path fill="none" stroke="midnightblue" d="M446.046,-224.083C441.896,-216.613 435.847,-205.724 430.733,-196.52"/>
<polygon fill="midnightblue" stroke="midnightblue" points="433.778,-194.793 425.862,-187.751 427.659,-198.192 433.778,-194.793"/>
</g>
<!-- Node14 -->
<g id="node14" class="node"><title>Node14</title>
<polygon fill="white" stroke="#bfbfbf" points="465.5,-56.5 465.5,-75.5 548.5,-75.5 548.5,-56.5 465.5,-56.5"/>
<text text-anchor="middle" x="507" y="-63.5" font-family="Helvetica,sans-Serif" font-size="10.00">rbdyn/config.hh</text>
</g>
<!-- Node1&#45;&gt;Node14 -->
<g id="edge21" class="edge"><title>Node1&#45;&gt;Node14</title>
<path fill="none" stroke="midnightblue" d="M454.011,-224.075C462.864,-197.832 488.937,-120.545 500.888,-85.1165"/>
<polygon fill="midnightblue" stroke="midnightblue" points="504.229,-86.1623 504.11,-75.5681 497.597,-83.9247 504.229,-86.1623"/>
</g>
<!-- Node5 -->
<g id="node5" class="node"><title>Node5</title>
<g id="a_node5"><a xlink:href="a00032.html" target="_top" xlink:title="MultiBody.h">
<polygon fill="white" stroke="black" points="275,-112.5 275,-131.5 343,-131.5 343,-112.5 275,-112.5"/>
<text text-anchor="middle" x="309" y="-119.5" font-family="Helvetica,sans-Serif" font-size="10.00">MultiBody.h</text>
</a>
</g>
</g>
<!-- Node4&#45;&gt;Node5 -->
<g id="edge4" class="edge"><title>Node4&#45;&gt;Node5</title>
<path fill="none" stroke="midnightblue" d="M403.005,-168.324C384.962,-159.625 356.953,-146.12 336.197,-136.113"/>
<polygon fill="midnightblue" stroke="midnightblue" points="337.478,-132.845 326.95,-131.655 334.438,-139.15 337.478,-132.845"/>
</g>
<!-- Node4&#45;&gt;Node14 -->
<g id="edge20" class="edge"><title>Node4&#45;&gt;Node14</title>
<path fill="none" stroke="midnightblue" d="M426.663,-168.367C435.069,-155.705 451.523,-131.486 467,-112 474.802,-102.178 484.078,-91.6765 491.733,-83.2906"/>
<polygon fill="midnightblue" stroke="midnightblue" points="494.518,-85.434 498.732,-75.7134 489.376,-80.6842 494.518,-85.434"/>
</g>
<!-- Node5&#45;&gt;Node2 -->
<g id="edge7" class="edge"><title>Node5&#45;&gt;Node2</title>
<path fill="none" stroke="midnightblue" d="M274.959,-113.508C242.123,-105.798 191.312,-92.5873 149,-76 111.376,-61.2506 70.1239,-38.8994 45.1506,-24.6271"/>
<polygon fill="midnightblue" stroke="midnightblue" points="46.8282,-21.5543 36.4179,-19.5854 43.3283,-27.6165 46.8282,-21.5543"/>
</g>
<!-- Node6 -->
<g id="node6" class="node"><title>Node6</title>
<polygon fill="white" stroke="#bfbfbf" points="194.5,-0.5 194.5,-19.5 253.5,-19.5 253.5,-0.5 194.5,-0.5"/>
<text text-anchor="middle" x="224" y="-7.5" font-family="Helvetica,sans-Serif" font-size="10.00">stdexcept</text>
</g>
<!-- Node5&#45;&gt;Node6 -->
<g id="edge5" class="edge"><title>Node5&#45;&gt;Node6</title>
<path fill="none" stroke="midnightblue" d="M293.883,-112.376C281.002,-104.372 262.759,-91.3945 251,-76 240.348,-62.0547 233.15,-43.3003 228.883,-29.5209"/>
<polygon fill="midnightblue" stroke="midnightblue" points="232.196,-28.3748 226.08,-19.7235 225.466,-30.3006 232.196,-28.3748"/>
</g>
<!-- Node7 -->
<g id="node7" class="node"><title>Node7</title>
<polygon fill="white" stroke="#bfbfbf" points="364.5,-56.5 364.5,-75.5 447.5,-75.5 447.5,-56.5 364.5,-56.5"/>
<text text-anchor="middle" x="406" y="-63.5" font-family="Helvetica,sans-Serif" font-size="10.00">unordered_map</text>
</g>
<!-- Node5&#45;&gt;Node7 -->
<g id="edge6" class="edge"><title>Node5&#45;&gt;Node7</title>
<path fill="none" stroke="midnightblue" d="M324.585,-112.324C339.999,-103.743 363.812,-90.486 381.71,-80.5224"/>
<polygon fill="midnightblue" stroke="midnightblue" points="383.419,-83.5767 390.454,-75.6545 380.014,-77.4606 383.419,-83.5767"/>
</g>
<!-- Node8 -->
<g id="node8" class="node"><title>Node8</title>
<polygon fill="white" stroke="#bfbfbf" points="331,-0.5 331,-19.5 469,-19.5 469,-0.5 331,-0.5"/>
<text text-anchor="middle" x="400" y="-7.5" font-family="Helvetica,sans-Serif" font-size="10.00">SpaceVecAlg/SpaceVecAlg</text>
</g>
<!-- Node5&#45;&gt;Node8 -->
<g id="edge8" class="edge"><title>Node5&#45;&gt;Node8</title>
<path fill="none" stroke="midnightblue" d="M314.514,-112.245C322.733,-99.4296 338.957,-75.0225 355,-56 363.726,-45.6538 374.405,-34.9053 383.169,-26.5085"/>
<polygon fill="midnightblue" stroke="midnightblue" points="385.691,-28.9419 390.57,-19.5373 380.891,-23.8466 385.691,-28.9419"/>
</g>
<!-- Node9 -->
<g id="node9" class="node"><title>Node9</title>
<g id="a_node9"><a xlink:href="a00018.html" target="_top" xlink:title="Body.h">
<polygon fill="white" stroke="black" points="260.5,-56.5 260.5,-75.5 307.5,-75.5 307.5,-56.5 260.5,-56.5"/>
<text text-anchor="middle" x="284" y="-63.5" font-family="Helvetica,sans-Serif" font-size="10.00">Body.h</text>
</a>
</g>
</g>
<!-- Node5&#45;&gt;Node9 -->
<g id="edge9" class="edge"><title>Node5&#45;&gt;Node9</title>
<path fill="none" stroke="midnightblue" d="M304.872,-112.083C301.486,-104.77 296.584,-94.1814 292.381,-85.1034"/>
<polygon fill="midnightblue" stroke="midnightblue" points="295.429,-83.3553 288.051,-75.7511 289.077,-86.2962 295.429,-83.3553"/>
</g>
<!-- Node11 -->
<g id="node11" class="node"><title>Node11</title>
<g id="a_node11"><a xlink:href="a00030.html" target="_top" xlink:title="Joint.h">
<polygon fill="white" stroke="black" points="158,-56.5 158,-75.5 204,-75.5 204,-56.5 158,-56.5"/>
<text text-anchor="middle" x="181" y="-63.5" font-family="Helvetica,sans-Serif" font-size="10.00">Joint.h</text>
</a>
</g>
</g>
<!-- Node5&#45;&gt;Node11 -->
<g id="edge12" class="edge"><title>Node5&#45;&gt;Node11</title>
<path fill="none" stroke="midnightblue" d="M288.718,-112.444C267.653,-103.557 234.483,-89.5632 210.514,-79.4514"/>
<polygon fill="midnightblue" stroke="midnightblue" points="211.761,-76.1787 201.187,-75.5164 209.04,-82.6283 211.761,-76.1787"/>
</g>
<!-- Node5&#45;&gt;Node14 -->
<g id="edge19" class="edge"><title>Node5&#45;&gt;Node14</title>
<path fill="none" stroke="midnightblue" d="M340.374,-112.444C374.263,-103.201 428.403,-88.4356 465.724,-78.2572"/>
<polygon fill="midnightblue" stroke="midnightblue" points="467.046,-81.5243 475.773,-75.5164 465.205,-74.771 467.046,-81.5243"/>
</g>
<!-- Node9&#45;&gt;Node8 -->
<g id="edge11" class="edge"><title>Node9&#45;&gt;Node8</title>
<path fill="none" stroke="midnightblue" d="M302.381,-56.4435C321.216,-47.6751 350.731,-33.9355 372.379,-23.8579"/>
<polygon fill="midnightblue" stroke="midnightblue" points="374.117,-26.9098 381.705,-19.5164 371.162,-20.5637 374.117,-26.9098"/>
</g>
<!-- Node10 -->
<g id="node10" class="node"><title>Node10</title>
<polygon fill="white" stroke="#bfbfbf" points="271.5,-0.5 271.5,-19.5 312.5,-19.5 312.5,-0.5 271.5,-0.5"/>
<text text-anchor="middle" x="292" y="-7.5" font-family="Helvetica,sans-Serif" font-size="10.00">string</text>
</g>
<!-- Node9&#45;&gt;Node10 -->
<g id="edge10" class="edge"><title>Node9&#45;&gt;Node10</title>
<path fill="none" stroke="midnightblue" d="M285.321,-56.083C286.381,-48.9272 287.906,-38.6353 289.231,-29.6911"/>
<polygon fill="midnightblue" stroke="midnightblue" points="292.7,-30.1561 290.704,-19.7511 285.776,-29.1302 292.7,-30.1561"/>
</g>
<!-- Node11&#45;&gt;Node2 -->
<g id="edge17" class="edge"><title>Node11&#45;&gt;Node2</title>
<path fill="none" stroke="midnightblue" d="M157.88,-57.1479C130.487,-47.8446 84.694,-32.2923 53.9309,-21.8444"/>
<polygon fill="midnightblue" stroke="midnightblue" points="54.717,-18.4152 44.1226,-18.5133 52.4659,-25.0433 54.717,-18.4152"/>
</g>
<!-- Node11&#45;&gt;Node6 -->
<g id="edge15" class="edge"><title>Node11&#45;&gt;Node6</title>
<path fill="none" stroke="midnightblue" d="M188.101,-56.083C194.237,-48.3768 203.27,-37.0333 210.739,-27.6531"/>
<polygon fill="midnightblue" stroke="midnightblue" points="213.54,-29.7542 217.032,-19.7511 208.064,-25.3936 213.54,-29.7542"/>
</g>
<!-- Node11&#45;&gt;Node8 -->
<g id="edge18" class="edge"><title>Node11&#45;&gt;Node8</title>
<path fill="none" stroke="midnightblue" d="M204.023,-59.3231C239.859,-50.4868 309.623,-33.2848 355.51,-21.9701"/>
<polygon fill="midnightblue" stroke="midnightblue" points="356.615,-25.3025 365.487,-19.5102 354.939,-18.5061 356.615,-25.3025"/>
</g>
<!-- Node11&#45;&gt;Node10 -->
<g id="edge16" class="edge"><title>Node11&#45;&gt;Node10</title>
<path fill="none" stroke="midnightblue" d="M198.834,-56.324C216.716,-47.6247 244.475,-34.1202 265.046,-24.113"/>
<polygon fill="midnightblue" stroke="midnightblue" points="266.749,-27.1765 274.21,-19.6545 263.687,-20.8819 266.749,-27.1765"/>
</g>
<!-- Node12 -->
<g id="node12" class="node"><title>Node12</title>
<polygon fill="white" stroke="#bfbfbf" points="132,-0.5 132,-19.5 176,-19.5 176,-0.5 132,-0.5"/>
<text text-anchor="middle" x="154" y="-7.5" font-family="Helvetica,sans-Serif" font-size="10.00">cmath</text>
</g>
<!-- Node11&#45;&gt;Node12 -->
<g id="edge13" class="edge"><title>Node11&#45;&gt;Node12</title>
<path fill="none" stroke="midnightblue" d="M176.541,-56.083C172.846,-48.6913 167.477,-37.9533 162.906,-28.8111"/>
<polygon fill="midnightblue" stroke="midnightblue" points="165.978,-27.1301 158.376,-19.7511 159.717,-30.2606 165.978,-27.1301"/>
</g>
<!-- Node13 -->
<g id="node13" class="node"><title>Node13</title>
<polygon fill="white" stroke="#bfbfbf" points="62,-0.5 62,-19.5 114,-19.5 114,-0.5 62,-0.5"/>
<text text-anchor="middle" x="88" y="-7.5" font-family="Helvetica,sans-Serif" font-size="10.00">sstream</text>
</g>
<!-- Node11&#45;&gt;Node13 -->
<g id="edge14" class="edge"><title>Node11&#45;&gt;Node13</title>
<path fill="none" stroke="midnightblue" d="M166.058,-56.324C151.415,-47.8215 128.866,-34.7288 111.762,-24.7975"/>
<polygon fill="midnightblue" stroke="midnightblue" points="113.31,-21.6491 102.905,-19.6545 109.795,-27.7027 113.31,-21.6491"/>
</g>
</g>
</svg>
