<?xml version="1.0" encoding="UTF-8" standalone="no"?>
<!DOCTYPE svg PUBLIC "-//W3C//DTD SVG 1.1//EN"
 "http://www.w3.org/Graphics/SVG/1.1/DTD/svg11.dtd">
<!-- Generated by graphviz version 2.36.0 (20140111.2315)
 -->
<!-- Title: MultiBody.h Pages: 1 -->
<svg width="564pt" height="140pt"
 viewBox="0.00 0.00 564.00 140.00" xmlns="http://www.w3.org/2000/svg" xmlns:xlink="http://www.w3.org/1999/xlink">
<g id="graph0" class="graph" transform="scale(1 1) rotate(0) translate(4 136)">
<title>MultiBody.h</title>
<polygon fill="white" stroke="none" points="-4,4 -4,-136 560,-136 560,4 -4,4"/>
<!-- Node1 -->
<g id="node1" class="node"><title>Node1</title>
<polygon fill="#bfbfbf" stroke="black" points="258,-112.5 258,-131.5 326,-131.5 326,-112.5 258,-112.5"/>
<text text-anchor="middle" x="292" y="-119.5" font-family="Helvetica,sans-Serif" font-size="10.00">MultiBody.h</text>
</g>
<!-- Node2 -->
<g id="node2" class="node"><title>Node2</title>
<polygon fill="white" stroke="#bfbfbf" points="-0.5,-0.5 -0.5,-19.5 58.5,-19.5 58.5,-0.5 -0.5,-0.5"/>
<text text-anchor="middle" x="29" y="-7.5" font-family="Helvetica,sans-Serif" font-size="10.00">stdexcept</text>
</g>
<!-- Node1&#45;&gt;Node2 -->
<g id="edge1" class="edge"><title>Node1&#45;&gt;Node2</title>
<path fill="none" stroke="midnightblue" d="M263.039,-112.463C235.809,-104.141 194.099,-90.6313 159,-76 121.206,-60.2454 79.0926,-38.3474 53.3206,-24.4241"/>
<polygon fill="midnightblue" stroke="midnightblue" points="54.7431,-21.2135 44.2865,-19.5077 51.3971,-27.362 54.7431,-21.2135"/>
</g>
<!-- Node3 -->
<g id="node3" class="node"><title>Node3</title>
<polygon fill="white" stroke="#bfbfbf" points="372.5,-56.5 372.5,-75.5 455.5,-75.5 455.5,-56.5 372.5,-56.5"/>
<text text-anchor="middle" x="414" y="-63.5" font-family="Helvetica,sans-Serif" font-size="10.00">unordered_map</text>
</g>
<!-- Node1&#45;&gt;Node3 -->
<g id="edge2" class="edge"><title>Node1&#45;&gt;Node3</title>
<path fill="none" stroke="midnightblue" d="M311.331,-112.444C331.32,-103.596 362.743,-89.6875 385.564,-79.5865"/>
<polygon fill="midnightblue" stroke="midnightblue" points="387.032,-82.7645 394.759,-75.5164 384.198,-76.3635 387.032,-82.7645"/>
</g>
<!-- Node4 -->
<g id="node4" class="node"><title>Node4</title>
<polygon fill="white" stroke="#bfbfbf" points="77,-0.5 77,-19.5 121,-19.5 121,-0.5 77,-0.5"/>
<text text-anchor="middle" x="99" y="-7.5" font-family="Helvetica,sans-Serif" font-size="10.00">vector</text>
</g>
<!-- Node1&#45;&gt;Node4 -->
<g id="edge3" class="edge"><title>Node1&#45;&gt;Node4</title>
<path fill="none" stroke="midnightblue" d="M271.082,-112.454C251.104,-104.024 220.369,-90.3496 195,-76 167.474,-60.4303 137.575,-39.4882 118.584,-25.6328"/>
<polygon fill="midnightblue" stroke="midnightblue" points="120.562,-22.7433 110.434,-19.6327 116.412,-28.3802 120.562,-22.7433"/>
</g>
<!-- Node5 -->
<g id="node5" class="node"><title>Node5</title>
<polygon fill="white" stroke="#bfbfbf" points="331,-0.5 331,-19.5 469,-19.5 469,-0.5 331,-0.5"/>
<text text-anchor="middle" x="400" y="-7.5" font-family="Helvetica,sans-Serif" font-size="10.00">SpaceVecAlg/SpaceVecAlg</text>
</g>
<!-- Node1&#45;&gt;Node5 -->
<g id="edge4" class="edge"><title>Node1&#45;&gt;Node5</title>
<path fill="none" stroke="midnightblue" d="M300.475,-112.368C318.613,-93.8941 361.422,-50.2926 384.543,-26.7436"/>
<polygon fill="midnightblue" stroke="midnightblue" points="387.056,-29.1792 391.565,-19.5914 382.061,-24.275 387.056,-29.1792"/>
</g>
<!-- Node6 -->
<g id="node6" class="node"><title>Node6</title>
<g id="a_node6"><a xlink:href="a00018.html" target="_top" xlink:title="Body.h">
<polygon fill="white" stroke="black" points="268.5,-56.5 268.5,-75.5 315.5,-75.5 315.5,-56.5 268.5,-56.5"/>
<text text-anchor="middle" x="292" y="-63.5" font-family="Helvetica,sans-Serif" font-size="10.00">Body.h</text>
</a>
</g>
</g>
<!-- Node1&#45;&gt;Node6 -->
<g id="edge5" class="edge"><title>Node1&#45;&gt;Node6</title>
<path fill="none" stroke="midnightblue" d="M292,-112.083C292,-105.006 292,-94.8611 292,-85.9865"/>
<polygon fill="midnightblue" stroke="midnightblue" points="295.5,-85.751 292,-75.7511 288.5,-85.7511 295.5,-85.751"/>
</g>
<!-- Node8 -->
<g id="node8" class="node"><title>Node8</title>
<g id="a_node8"><a xlink:href="a00030.html" target="_top" xlink:title="Joint.h">
<polygon fill="white" stroke="black" points="204,-56.5 204,-75.5 250,-75.5 250,-56.5 204,-56.5"/>
<text text-anchor="middle" x="227" y="-63.5" font-family="Helvetica,sans-Serif" font-size="10.00">Joint.h</text>
</a>
</g>
</g>
<!-- Node1&#45;&gt;Node8 -->
<g id="edge8" class="edge"><title>Node1&#45;&gt;Node8</title>
<path fill="none" stroke="midnightblue" d="M281.557,-112.324C271.854,-104.263 257.185,-92.0765 245.5,-82.3695"/>
<polygon fill="midnightblue" stroke="midnightblue" points="247.562,-79.532 237.633,-75.8339 243.089,-84.9163 247.562,-79.532"/>
</g>
<!-- Node11 -->
<g id="node11" class="node"><title>Node11</title>
<polygon fill="white" stroke="#bfbfbf" points="473.5,-56.5 473.5,-75.5 556.5,-75.5 556.5,-56.5 473.5,-56.5"/>
<text text-anchor="middle" x="515" y="-63.5" font-family="Helvetica,sans-Serif" font-size="10.00">rbdyn/config.hh</text>
</g>
<!-- Node1&#45;&gt;Node11 -->
<g id="edge15" class="edge"><title>Node1&#45;&gt;Node11</title>
<path fill="none" stroke="midnightblue" d="M326.355,-112.681C364.924,-103.341 427.65,-88.1521 470.079,-77.8777"/>
<polygon fill="midnightblue" stroke="midnightblue" points="470.974,-81.2622 479.87,-75.5069 469.327,-74.4588 470.974,-81.2622"/>
</g>
<!-- Node6&#45;&gt;Node5 -->
<g id="edge7" class="edge"><title>Node6&#45;&gt;Node5</title>
<path fill="none" stroke="midnightblue" d="M309.352,-56.324C326.672,-47.6641 353.515,-34.2424 373.502,-24.249"/>
<polygon fill="midnightblue" stroke="midnightblue" points="375.312,-27.2572 382.691,-19.6545 372.181,-20.9962 375.312,-27.2572"/>
</g>
<!-- Node7 -->
<g id="node7" class="node"><title>Node7</title>
<polygon fill="white" stroke="#bfbfbf" points="271.5,-0.5 271.5,-19.5 312.5,-19.5 312.5,-0.5 271.5,-0.5"/>
<text text-anchor="middle" x="292" y="-7.5" font-family="Helvetica,sans-Serif" font-size="10.00">string</text>
</g>
<!-- Node6&#45;&gt;Node7 -->
<g id="edge6" class="edge"><title>Node6&#45;&gt;Node7</title>
<path fill="none" stroke="midnightblue" d="M292,-56.083C292,-49.0059 292,-38.8611 292,-29.9865"/>
<polygon fill="midnightblue" stroke="midnightblue" points="295.5,-29.751 292,-19.7511 288.5,-29.7511 295.5,-29.751"/>
</g>
<!-- Node8&#45;&gt;Node2 -->
<g id="edge11" class="edge"><title>Node8&#45;&gt;Node2</title>
<path fill="none" stroke="midnightblue" d="M203.899,-58.6998C170.702,-49.6461 109.05,-32.8318 68.5247,-21.7795"/>
<polygon fill="midnightblue" stroke="midnightblue" points="69.2756,-18.3565 58.707,-19.1019 67.4337,-25.1098 69.2756,-18.3565"/>
</g>
<!-- Node8&#45;&gt;Node4 -->
<g id="edge13" class="edge"><title>Node8&#45;&gt;Node4</title>
<path fill="none" stroke="midnightblue" d="M206.718,-56.4435C185.653,-47.5566 152.483,-33.5632 128.514,-23.4514"/>
<polygon fill="midnightblue" stroke="midnightblue" points="129.761,-20.1787 119.187,-19.5164 127.04,-26.6283 129.761,-20.1787"/>
</g>
<!-- Node8&#45;&gt;Node5 -->
<g id="edge14" class="edge"><title>Node8&#45;&gt;Node5</title>
<path fill="none" stroke="midnightblue" d="M250.332,-57.7173C279.208,-48.7038 328.736,-33.2443 362.86,-22.5929"/>
<polygon fill="midnightblue" stroke="midnightblue" points="363.977,-25.9107 372.48,-19.59 361.891,-19.2287 363.977,-25.9107"/>
</g>
<!-- Node8&#45;&gt;Node7 -->
<g id="edge12" class="edge"><title>Node8&#45;&gt;Node7</title>
<path fill="none" stroke="midnightblue" d="M237.443,-56.324C247.146,-48.2631 261.815,-36.0765 273.5,-26.3695"/>
<polygon fill="midnightblue" stroke="midnightblue" points="275.911,-28.9163 281.367,-19.8339 271.438,-23.532 275.911,-28.9163"/>
</g>
<!-- Node9 -->
<g id="node9" class="node"><title>Node9</title>
<polygon fill="white" stroke="#bfbfbf" points="139,-0.5 139,-19.5 183,-19.5 183,-0.5 139,-0.5"/>
<text text-anchor="middle" x="161" y="-7.5" font-family="Helvetica,sans-Serif" font-size="10.00">cmath</text>
</g>
<!-- Node8&#45;&gt;Node9 -->
<g id="edge9" class="edge"><title>Node8&#45;&gt;Node9</title>
<path fill="none" stroke="midnightblue" d="M216.396,-56.324C206.544,-48.2631 191.649,-36.0765 179.785,-26.3695"/>
<polygon fill="midnightblue" stroke="midnightblue" points="181.753,-23.4575 171.797,-19.8339 177.32,-28.8752 181.753,-23.4575"/>
</g>
<!-- Node10 -->
<g id="node10" class="node"><title>Node10</title>
<polygon fill="white" stroke="#bfbfbf" points="201,-0.5 201,-19.5 253,-19.5 253,-0.5 201,-0.5"/>
<text text-anchor="middle" x="227" y="-7.5" font-family="Helvetica,sans-Serif" font-size="10.00">sstream</text>
</g>
<!-- Node8&#45;&gt;Node10 -->
<g id="edge10" class="edge"><title>Node8&#45;&gt;Node10</title>
<path fill="none" stroke="midnightblue" d="M227,-56.083C227,-49.0059 227,-38.8611 227,-29.9865"/>
<polygon fill="midnightblue" stroke="midnightblue" points="230.5,-29.751 227,-19.7511 223.5,-29.7511 230.5,-29.751"/>
</g>
</g>
</svg>
