<?xml version="1.0" encoding="UTF-8" standalone="no"?>
<!DOCTYPE svg PUBLIC "-//W3C//DTD SVG 1.1//EN"
 "http://www.w3.org/Graphics/SVG/1.1/DTD/svg11.dtd">
<!-- Generated by graphviz version 2.36.0 (20140111.2315)
 -->
<!-- Title: MultiBodyConfig.h Pages: 1 -->
<svg width="603pt" height="196pt"
 viewBox="0.00 0.00 603.14 196.00" xmlns="http://www.w3.org/2000/svg" xmlns:xlink="http://www.w3.org/1999/xlink">
<g id="graph0" class="graph" transform="scale(1 1) rotate(0) translate(4 192)">
<title>MultiBodyConfig.h</title>
<polygon fill="white" stroke="none" points="-4,4 -4,-192 599.14,-192 599.14,4 -4,4"/>
<!-- Node1 -->
<g id="node1" class="node"><title>Node1</title>
<polygon fill="#bfbfbf" stroke="black" points="448.5,-168.5 448.5,-187.5 545.5,-187.5 545.5,-168.5 448.5,-168.5"/>
<text text-anchor="middle" x="497" y="-175.5" font-family="Helvetica,sans-Serif" font-size="10.00">MultiBodyConfig.h</text>
</g>
<!-- Node2 -->
<g id="node2" class="node"><title>Node2</title>
<polygon fill="white" stroke="#bfbfbf" points="348,-0.5 348,-19.5 392,-19.5 392,-0.5 348,-0.5"/>
<text text-anchor="middle" x="370" y="-7.5" font-family="Helvetica,sans-Serif" font-size="10.00">vector</text>
</g>
<!-- Node1&#45;&gt;Node2 -->
<g id="edge1" class="edge"><title>Node1&#45;&gt;Node2</title>
<path fill="none" stroke="midnightblue" d="M506.201,-168.259C527.342,-147.125 575.455,-92.3231 547,-56 507.718,-5.85491 469.323,-34.3294 402.404,-20.0323"/>
<polygon fill="midnightblue" stroke="midnightblue" points="402.863,-16.5425 392.321,-17.5981 401.22,-23.347 402.863,-16.5425"/>
</g>
<!-- Node3 -->
<g id="node3" class="node"><title>Node3</title>
<polygon fill="white" stroke="#bfbfbf" points="410.5,-0.5 410.5,-19.5 469.5,-19.5 469.5,-0.5 410.5,-0.5"/>
<text text-anchor="middle" x="440" y="-7.5" font-family="Helvetica,sans-Serif" font-size="10.00">stdexcept</text>
</g>
<!-- Node1&#45;&gt;Node3 -->
<g id="edge2" class="edge"><title>Node1&#45;&gt;Node3</title>
<path fill="none" stroke="midnightblue" d="M529.986,-168.438C548.463,-161.769 569.952,-150.453 581,-132 598.352,-103.02 600.925,-83.2748 581,-56 558.022,-24.5464 512.815,-14.5645 479.762,-11.6543"/>
<polygon fill="midnightblue" stroke="midnightblue" points="479.721,-8.14302 469.502,-10.9397 479.234,-15.1261 479.721,-8.14302"/>
</g>
<!-- Node4 -->
<g id="node4" class="node"><title>Node4</title>
<polygon fill="white" stroke="#bfbfbf" points="0,-0.5 0,-19.5 138,-19.5 138,-0.5 0,-0.5"/>
<text text-anchor="middle" x="69" y="-7.5" font-family="Helvetica,sans-Serif" font-size="10.00">SpaceVecAlg/SpaceVecAlg</text>
</g>
<!-- Node1&#45;&gt;Node4 -->
<g id="edge3" class="edge"><title>Node1&#45;&gt;Node4</title>
<path fill="none" stroke="midnightblue" d="M448.19,-176.784C368.276,-173.956 208.298,-157.625 107,-76 91.7657,-63.7244 81.3558,-43.5843 75.3365,-28.9719"/>
<polygon fill="midnightblue" stroke="midnightblue" points="78.5577,-27.596 71.7233,-19.5002 72.0174,-30.091 78.5577,-27.596"/>
</g>
<!-- Node5 -->
<g id="node5" class="node"><title>Node5</title>
<g id="a_node5"><a xlink:href="a00032.html" target="_top" xlink:title="MultiBody.h">
<polygon fill="white" stroke="black" points="288,-112.5 288,-131.5 356,-131.5 356,-112.5 288,-112.5"/>
<text text-anchor="middle" x="322" y="-119.5" font-family="Helvetica,sans-Serif" font-size="10.00">MultiBody.h</text>
</a>
</g>
</g>
<!-- Node1&#45;&gt;Node5 -->
<g id="edge4" class="edge"><title>Node1&#45;&gt;Node5</title>
<path fill="none" stroke="midnightblue" d="M469.271,-168.444C439.574,-159.28 392.284,-144.688 359.331,-134.519"/>
<polygon fill="midnightblue" stroke="midnightblue" points="360.187,-131.121 349.6,-131.516 358.123,-137.809 360.187,-131.121"/>
</g>
<!-- Node12 -->
<g id="node12" class="node"><title>Node12</title>
<polygon fill="white" stroke="#bfbfbf" points="455.5,-56.5 455.5,-75.5 538.5,-75.5 538.5,-56.5 455.5,-56.5"/>
<text text-anchor="middle" x="497" y="-63.5" font-family="Helvetica,sans-Serif" font-size="10.00">rbdyn/config.hh</text>
</g>
<!-- Node1&#45;&gt;Node12 -->
<g id="edge20" class="edge"><title>Node1&#45;&gt;Node12</title>
<path fill="none" stroke="midnightblue" d="M497,-168.368C497,-150.617 497,-109.666 497,-85.5974"/>
<polygon fill="midnightblue" stroke="midnightblue" points="500.5,-85.5914 497,-75.5914 493.5,-85.5915 500.5,-85.5914"/>
</g>
<!-- Node5&#45;&gt;Node2 -->
<g id="edge7" class="edge"><title>Node5&#45;&gt;Node2</title>
<path fill="none" stroke="midnightblue" d="M316.058,-112.124C308.186,-99.1578 296.359,-74.5647 306,-56 313.153,-42.2262 326.671,-31.783 339.447,-24.4413"/>
<polygon fill="midnightblue" stroke="midnightblue" points="341.317,-27.412 348.517,-19.6403 338.042,-21.2252 341.317,-27.412"/>
</g>
<!-- Node5&#45;&gt;Node3 -->
<g id="edge5" class="edge"><title>Node5&#45;&gt;Node3</title>
<path fill="none" stroke="midnightblue" d="M347.279,-112.39C365.701,-105.073 390.261,-93.0276 407,-76 420.009,-62.7667 428.941,-43.3692 434.2,-29.2098"/>
<polygon fill="midnightblue" stroke="midnightblue" points="437.565,-30.1866 437.511,-19.5919 430.946,-27.9077 437.565,-30.1866"/>
</g>
<!-- Node5&#45;&gt;Node4 -->
<g id="edge8" class="edge"><title>Node5&#45;&gt;Node4</title>
<path fill="none" stroke="midnightblue" d="M287.898,-117.931C249.474,-113.313 186.112,-102.141 138,-76 115.516,-63.7837 94.8904,-42.4291 82.16,-27.5432"/>
<polygon fill="midnightblue" stroke="midnightblue" points="84.6948,-25.1163 75.6225,-19.644 79.3021,-29.5794 84.6948,-25.1163"/>
</g>
<!-- Node6 -->
<g id="node6" class="node"><title>Node6</title>
<polygon fill="white" stroke="#bfbfbf" points="315.5,-56.5 315.5,-75.5 398.5,-75.5 398.5,-56.5 315.5,-56.5"/>
<text text-anchor="middle" x="357" y="-63.5" font-family="Helvetica,sans-Serif" font-size="10.00">unordered_map</text>
</g>
<!-- Node5&#45;&gt;Node6 -->
<g id="edge6" class="edge"><title>Node5&#45;&gt;Node6</title>
<path fill="none" stroke="midnightblue" d="M327.78,-112.083C332.672,-104.534 339.827,-93.4948 345.833,-84.2298"/>
<polygon fill="midnightblue" stroke="midnightblue" points="348.826,-86.0463 351.328,-75.7511 342.952,-82.239 348.826,-86.0463"/>
</g>
<!-- Node7 -->
<g id="node7" class="node"><title>Node7</title>
<g id="a_node7"><a xlink:href="a00018.html" target="_top" xlink:title="Body.h">
<polygon fill="white" stroke="black" points="147.5,-56.5 147.5,-75.5 194.5,-75.5 194.5,-56.5 147.5,-56.5"/>
<text text-anchor="middle" x="171" y="-63.5" font-family="Helvetica,sans-Serif" font-size="10.00">Body.h</text>
</a>
</g>
</g>
<!-- Node5&#45;&gt;Node7 -->
<g id="edge9" class="edge"><title>Node5&#45;&gt;Node7</title>
<path fill="none" stroke="midnightblue" d="M298.074,-112.444C272.781,-103.399 232.698,-89.064 204.32,-78.9158"/>
<polygon fill="midnightblue" stroke="midnightblue" points="205.409,-75.5882 194.814,-75.5164 203.052,-82.1794 205.409,-75.5882"/>
</g>
<!-- Node9 -->
<g id="node9" class="node"><title>Node9</title>
<g id="a_node9"><a xlink:href="a00030.html" target="_top" xlink:title="Joint.h">
<polygon fill="white" stroke="black" points="213,-56.5 213,-75.5 259,-75.5 259,-56.5 213,-56.5"/>
<text text-anchor="middle" x="236" y="-63.5" font-family="Helvetica,sans-Serif" font-size="10.00">Joint.h</text>
</a>
</g>
</g>
<!-- Node5&#45;&gt;Node9 -->
<g id="edge12" class="edge"><title>Node5&#45;&gt;Node9</title>
<path fill="none" stroke="midnightblue" d="M308.183,-112.324C294.767,-103.9 274.176,-90.9709 258.414,-81.0741"/>
<polygon fill="midnightblue" stroke="midnightblue" points="260.113,-78.0081 249.783,-75.6545 256.391,-83.9364 260.113,-78.0081"/>
</g>
<!-- Node5&#45;&gt;Node12 -->
<g id="edge19" class="edge"><title>Node5&#45;&gt;Node12</title>
<path fill="none" stroke="midnightblue" d="M349.729,-112.444C379.426,-103.28 426.716,-88.6876 459.669,-78.5192"/>
<polygon fill="midnightblue" stroke="midnightblue" points="460.877,-81.8094 469.4,-75.5164 458.813,-75.1206 460.877,-81.8094"/>
</g>
<!-- Node7&#45;&gt;Node4 -->
<g id="edge11" class="edge"><title>Node7&#45;&gt;Node4</title>
<path fill="none" stroke="midnightblue" d="M154.612,-56.324C138.329,-47.7034 113.133,-34.3643 94.2837,-24.3855"/>
<polygon fill="midnightblue" stroke="midnightblue" points="95.8229,-21.2402 85.3474,-19.6545 92.5477,-27.4267 95.8229,-21.2402"/>
</g>
<!-- Node8 -->
<g id="node8" class="node"><title>Node8</title>
<polygon fill="white" stroke="#bfbfbf" points="156.5,-0.5 156.5,-19.5 197.5,-19.5 197.5,-0.5 156.5,-0.5"/>
<text text-anchor="middle" x="177" y="-7.5" font-family="Helvetica,sans-Serif" font-size="10.00">string</text>
</g>
<!-- Node7&#45;&gt;Node8 -->
<g id="edge10" class="edge"><title>Node7&#45;&gt;Node8</title>
<path fill="none" stroke="midnightblue" d="M171.991,-56.083C172.786,-48.9272 173.929,-38.6353 174.923,-29.6911"/>
<polygon fill="midnightblue" stroke="midnightblue" points="178.402,-30.0765 176.028,-19.7511 171.445,-29.3034 178.402,-30.0765"/>
</g>
<!-- Node9&#45;&gt;Node2 -->
<g id="edge17" class="edge"><title>Node9&#45;&gt;Node2</title>
<path fill="none" stroke="midnightblue" d="M257.233,-56.4435C279.384,-47.5171 314.319,-33.4387 339.436,-23.3168"/>
<polygon fill="midnightblue" stroke="midnightblue" points="340.9,-26.5006 348.867,-19.5164 338.283,-20.0079 340.9,-26.5006"/>
</g>
<!-- Node9&#45;&gt;Node3 -->
<g id="edge15" class="edge"><title>Node9&#45;&gt;Node3</title>
<path fill="none" stroke="midnightblue" d="M259.005,-58.9105C293.275,-49.839 358.199,-32.6532 400.256,-21.5205"/>
<polygon fill="midnightblue" stroke="midnightblue" points="401.391,-24.8406 410.163,-18.8981 399.6,-18.0737 401.391,-24.8406"/>
</g>
<!-- Node9&#45;&gt;Node4 -->
<g id="edge18" class="edge"><title>Node9&#45;&gt;Node4</title>
<path fill="none" stroke="midnightblue" d="M212.779,-57.4915C184.839,-48.457 137.619,-33.1881 104.956,-22.6263"/>
<polygon fill="midnightblue" stroke="midnightblue" points="105.915,-19.2583 95.3235,-19.5118 103.762,-25.9188 105.915,-19.2583"/>
</g>
<!-- Node9&#45;&gt;Node8 -->
<g id="edge16" class="edge"><title>Node9&#45;&gt;Node8</title>
<path fill="none" stroke="midnightblue" d="M226.521,-56.324C217.799,-48.3414 204.657,-36.3128 194.102,-26.6529"/>
<polygon fill="midnightblue" stroke="midnightblue" points="196.392,-24.0036 186.652,-19.8339 191.666,-29.1674 196.392,-24.0036"/>
</g>
<!-- Node10 -->
<g id="node10" class="node"><title>Node10</title>
<polygon fill="white" stroke="#bfbfbf" points="216,-0.5 216,-19.5 260,-19.5 260,-0.5 216,-0.5"/>
<text text-anchor="middle" x="238" y="-7.5" font-family="Helvetica,sans-Serif" font-size="10.00">cmath</text>
</g>
<!-- Node9&#45;&gt;Node10 -->
<g id="edge13" class="edge"><title>Node9&#45;&gt;Node10</title>
<path fill="none" stroke="midnightblue" d="M236.33,-56.083C236.592,-49.0059 236.968,-38.8611 237.297,-29.9865"/>
<polygon fill="midnightblue" stroke="midnightblue" points="240.803,-29.8738 237.676,-19.7511 233.808,-29.6147 240.803,-29.8738"/>
</g>
<!-- Node11 -->
<g id="node11" class="node"><title>Node11</title>
<polygon fill="white" stroke="#bfbfbf" points="278,-0.5 278,-19.5 330,-19.5 330,-0.5 278,-0.5"/>
<text text-anchor="middle" x="304" y="-7.5" font-family="Helvetica,sans-Serif" font-size="10.00">sstream</text>
</g>
<!-- Node9&#45;&gt;Node11 -->
<g id="edge14" class="edge"><title>Node9&#45;&gt;Node11</title>
<path fill="none" stroke="midnightblue" d="M246.925,-56.324C257.175,-48.1849 272.721,-35.8395 285.001,-26.0874"/>
<polygon fill="midnightblue" stroke="midnightblue" points="287.221,-28.7937 292.876,-19.8339 282.868,-23.3119 287.221,-28.7937"/>
</g>
</g>
</svg>
