<?xml version="1.0" encoding="UTF-8" standalone="no"?>
<!DOCTYPE svg PUBLIC "-//W3C//DTD SVG 1.1//EN"
 "http://www.w3.org/Graphics/SVG/1.1/DTD/svg11.dtd">
<!-- Generated by graphviz version 2.36.0 (20140111.2315)
 -->
<!-- Title: MultiBodyGraph.h Pages: 1 -->
<svg width="521pt" height="140pt"
 viewBox="0.00 0.00 521.00 140.00" xmlns="http://www.w3.org/2000/svg" xmlns:xlink="http://www.w3.org/1999/xlink">
<g id="graph0" class="graph" transform="scale(1 1) rotate(0) translate(4 136)">
<title>MultiBodyGraph.h</title>
<polygon fill="white" stroke="none" points="-4,4 -4,-136 517,-136 517,4 -4,4"/>
<!-- Node1 -->
<g id="node1" class="node"><title>Node1</title>
<polygon fill="#bfbfbf" stroke="black" points="123.5,-112.5 123.5,-131.5 218.5,-131.5 218.5,-112.5 123.5,-112.5"/>
<text text-anchor="middle" x="171" y="-119.5" font-family="Helvetica,sans-Serif" font-size="10.00">MultiBodyGraph.h</text>
</g>
<!-- Node2 -->
<g id="node2" class="node"><title>Node2</title>
<polygon fill="white" stroke="#bfbfbf" points="-0.5,-56.5 -0.5,-75.5 34.5,-75.5 34.5,-56.5 -0.5,-56.5"/>
<text text-anchor="middle" x="17" y="-63.5" font-family="Helvetica,sans-Serif" font-size="10.00">map</text>
</g>
<!-- Node1&#45;&gt;Node2 -->
<g id="edge1" class="edge"><title>Node1&#45;&gt;Node2</title>
<path fill="none" stroke="midnightblue" d="M146.598,-112.444C118.679,-102.654 73.0879,-86.6672 44.0901,-76.4991"/>
<polygon fill="midnightblue" stroke="midnightblue" points="45.1762,-73.1711 34.5814,-73.1649 42.8599,-79.7768 45.1762,-73.1711"/>
</g>
<!-- Node3 -->
<g id="node3" class="node"><title>Node3</title>
<polygon fill="white" stroke="#bfbfbf" points="53,-56.5 53,-75.5 105,-75.5 105,-56.5 53,-56.5"/>
<text text-anchor="middle" x="79" y="-63.5" font-family="Helvetica,sans-Serif" font-size="10.00">memory</text>
</g>
<!-- Node1&#45;&gt;Node3 -->
<g id="edge2" class="edge"><title>Node1&#45;&gt;Node3</title>
<path fill="none" stroke="midnightblue" d="M156.219,-112.324C141.733,-103.822 119.427,-90.7288 102.507,-80.7975"/>
<polygon fill="midnightblue" stroke="midnightblue" points="104.141,-77.6981 93.7447,-75.6545 100.597,-83.735 104.141,-77.6981"/>
</g>
<!-- Node4 -->
<g id="node4" class="node"><title>Node4</title>
<polygon fill="white" stroke="#bfbfbf" points="44,-0.5 44,-19.5 88,-19.5 88,-0.5 44,-0.5"/>
<text text-anchor="middle" x="66" y="-7.5" font-family="Helvetica,sans-Serif" font-size="10.00">vector</text>
</g>
<!-- Node1&#45;&gt;Node4 -->
<g id="edge3" class="edge"><title>Node1&#45;&gt;Node4</title>
<path fill="none" stroke="midnightblue" d="M163.878,-112.349C153.333,-99.6646 132.783,-75.4182 114,-56 104.172,-45.8399 92.6294,-34.9872 83.3263,-26.4857"/>
<polygon fill="midnightblue" stroke="midnightblue" points="85.5892,-23.813 75.8268,-19.6964 80.8912,-29.0024 85.5892,-23.813"/>
</g>
<!-- Node5 -->
<g id="node5" class="node"><title>Node5</title>
<polygon fill="white" stroke="#bfbfbf" points="106,-0.5 106,-19.5 244,-19.5 244,-0.5 106,-0.5"/>
<text text-anchor="middle" x="175" y="-7.5" font-family="Helvetica,sans-Serif" font-size="10.00">SpaceVecAlg/SpaceVecAlg</text>
</g>
<!-- Node1&#45;&gt;Node5 -->
<g id="edge4" class="edge"><title>Node1&#45;&gt;Node5</title>
<path fill="none" stroke="midnightblue" d="M171.314,-112.368C171.959,-94.617 173.448,-53.6664 174.324,-29.5974"/>
<polygon fill="midnightblue" stroke="midnightblue" points="177.822,-29.712 174.688,-19.5914 170.826,-29.4576 177.822,-29.712"/>
</g>
<!-- Node6 -->
<g id="node6" class="node"><title>Node6</title>
<g id="a_node6"><a xlink:href="a00018.html" target="_top" xlink:title="Body.h">
<polygon fill="white" stroke="black" points="199.5,-56.5 199.5,-75.5 246.5,-75.5 246.5,-56.5 199.5,-56.5"/>
<text text-anchor="middle" x="223" y="-63.5" font-family="Helvetica,sans-Serif" font-size="10.00">Body.h</text>
</a>
</g>
</g>
<!-- Node1&#45;&gt;Node6 -->
<g id="edge5" class="edge"><title>Node1&#45;&gt;Node6</title>
<path fill="none" stroke="midnightblue" d="M179.587,-112.083C187.159,-104.22 198.378,-92.5688 207.514,-83.0813"/>
<polygon fill="midnightblue" stroke="midnightblue" points="210.158,-85.3821 214.573,-75.7511 205.115,-80.5266 210.158,-85.3821"/>
</g>
<!-- Node8 -->
<g id="node8" class="node"><title>Node8</title>
<g id="a_node8"><a xlink:href="a00030.html" target="_top" xlink:title="Joint.h">
<polygon fill="white" stroke="black" points="265,-56.5 265,-75.5 311,-75.5 311,-56.5 265,-56.5"/>
<text text-anchor="middle" x="288" y="-63.5" font-family="Helvetica,sans-Serif" font-size="10.00">Joint.h</text>
</a>
</g>
</g>
<!-- Node1&#45;&gt;Node8 -->
<g id="edge8" class="edge"><title>Node1&#45;&gt;Node8</title>
<path fill="none" stroke="midnightblue" d="M189.539,-112.444C208.623,-103.636 238.575,-89.8116 260.436,-79.722"/>
<polygon fill="midnightblue" stroke="midnightblue" points="261.935,-82.8849 269.548,-75.5164 259.001,-76.5292 261.935,-82.8849"/>
</g>
<!-- Node12 -->
<g id="node12" class="node"><title>Node12</title>
<polygon fill="white" stroke="#bfbfbf" points="329.5,-56.5 329.5,-75.5 412.5,-75.5 412.5,-56.5 329.5,-56.5"/>
<text text-anchor="middle" x="371" y="-63.5" font-family="Helvetica,sans-Serif" font-size="10.00">rbdyn/config.hh</text>
</g>
<!-- Node1&#45;&gt;Node12 -->
<g id="edge15" class="edge"><title>Node1&#45;&gt;Node12</title>
<path fill="none" stroke="midnightblue" d="M202.691,-112.444C237.068,-103.162 292.077,-88.3093 329.789,-78.127"/>
<polygon fill="midnightblue" stroke="midnightblue" points="330.716,-81.5022 339.458,-75.5164 328.891,-74.7442 330.716,-81.5022"/>
</g>
<!-- Node6&#45;&gt;Node5 -->
<g id="edge7" class="edge"><title>Node6&#45;&gt;Node5</title>
<path fill="none" stroke="midnightblue" d="M215.074,-56.083C208.154,-48.2982 197.935,-36.8015 189.548,-27.3665"/>
<polygon fill="midnightblue" stroke="midnightblue" points="192.038,-24.8999 182.779,-19.7511 186.806,-29.5505 192.038,-24.8999"/>
</g>
<!-- Node7 -->
<g id="node7" class="node"><title>Node7</title>
<polygon fill="white" stroke="#bfbfbf" points="262.5,-0.5 262.5,-19.5 303.5,-19.5 303.5,-0.5 262.5,-0.5"/>
<text text-anchor="middle" x="283" y="-7.5" font-family="Helvetica,sans-Serif" font-size="10.00">string</text>
</g>
<!-- Node6&#45;&gt;Node7 -->
<g id="edge6" class="edge"><title>Node6&#45;&gt;Node7</title>
<path fill="none" stroke="midnightblue" d="M232.64,-56.324C241.51,-48.3414 254.875,-36.3128 265.608,-26.6529"/>
<polygon fill="midnightblue" stroke="midnightblue" points="268.093,-29.1251 273.185,-19.8339 263.41,-23.922 268.093,-29.1251"/>
</g>
<!-- Node8&#45;&gt;Node4 -->
<g id="edge13" class="edge"><title>Node8&#45;&gt;Node4</title>
<path fill="none" stroke="midnightblue" d="M264.954,-58.5814C261.62,-57.6917 258.226,-56.8071 255,-56 188.133,-39.272 168.401,-38.12 98.0928,-20.1682"/>
<polygon fill="midnightblue" stroke="midnightblue" points="98.8652,-16.753 88.308,-17.6457 97.1176,-23.5313 98.8652,-16.753"/>
</g>
<!-- Node8&#45;&gt;Node5 -->
<g id="edge14" class="edge"><title>Node8&#45;&gt;Node5</title>
<path fill="none" stroke="midnightblue" d="M270.095,-56.4435C251.746,-47.6751 222.995,-33.9355 201.906,-23.8579"/>
<polygon fill="midnightblue" stroke="midnightblue" points="203.353,-20.6703 192.821,-19.5164 200.335,-26.9862 203.353,-20.6703"/>
</g>
<!-- Node8&#45;&gt;Node7 -->
<g id="edge12" class="edge"><title>Node8&#45;&gt;Node7</title>
<path fill="none" stroke="midnightblue" d="M287.174,-56.083C286.519,-49.0059 285.58,-38.8611 284.758,-29.9865"/>
<polygon fill="midnightblue" stroke="midnightblue" points="288.217,-29.3858 283.81,-19.7511 281.247,-30.0312 288.217,-29.3858"/>
</g>
<!-- Node9 -->
<g id="node9" class="node"><title>Node9</title>
<polygon fill="white" stroke="#bfbfbf" points="322,-0.5 322,-19.5 366,-19.5 366,-0.5 322,-0.5"/>
<text text-anchor="middle" x="344" y="-7.5" font-family="Helvetica,sans-Serif" font-size="10.00">cmath</text>
</g>
<!-- Node8&#45;&gt;Node9 -->
<g id="edge9" class="edge"><title>Node8&#45;&gt;Node9</title>
<path fill="none" stroke="midnightblue" d="M296.997,-56.324C305.194,-48.4196 317.506,-36.5482 327.472,-26.9377"/>
<polygon fill="midnightblue" stroke="midnightblue" points="330.07,-29.2947 334.839,-19.8339 325.211,-24.2558 330.07,-29.2947"/>
</g>
<!-- Node10 -->
<g id="node10" class="node"><title>Node10</title>
<polygon fill="white" stroke="#bfbfbf" points="384,-0.5 384,-19.5 436,-19.5 436,-0.5 384,-0.5"/>
<text text-anchor="middle" x="410" y="-7.5" font-family="Helvetica,sans-Serif" font-size="10.00">sstream</text>
</g>
<!-- Node8&#45;&gt;Node10 -->
<g id="edge10" class="edge"><title>Node8&#45;&gt;Node10</title>
<path fill="none" stroke="midnightblue" d="M307.331,-56.4435C327.32,-47.5961 358.743,-33.6875 381.564,-23.5865"/>
<polygon fill="midnightblue" stroke="midnightblue" points="383.032,-26.7645 390.759,-19.5164 380.198,-20.3635 383.032,-26.7645"/>
</g>
<!-- Node11 -->
<g id="node11" class="node"><title>Node11</title>
<polygon fill="white" stroke="#bfbfbf" points="454.5,-0.5 454.5,-19.5 513.5,-19.5 513.5,-0.5 454.5,-0.5"/>
<text text-anchor="middle" x="484" y="-7.5" font-family="Helvetica,sans-Serif" font-size="10.00">stdexcept</text>
</g>
<!-- Node8&#45;&gt;Node11 -->
<g id="edge11" class="edge"><title>Node8&#45;&gt;Node11</title>
<path fill="none" stroke="midnightblue" d="M311.253,-58.5934C344.159,-49.5277 404.744,-32.8357 444.706,-21.826"/>
<polygon fill="midnightblue" stroke="midnightblue" points="445.68,-25.1879 454.391,-19.1575 443.821,-18.4394 445.68,-25.1879"/>
</g>
</g>
</svg>
