<?xml version="1.0" encoding="UTF-8" standalone="no"?>
<!DOCTYPE svg PUBLIC "-//W3C//DTD SVG 1.1//EN"
 "http://www.w3.org/Graphics/SVG/1.1/DTD/svg11.dtd">
<!-- Generated by graphviz version 2.36.0 (20140111.2315)
 -->
<!-- Title: IK.h Pages: 1 -->
<svg width="507pt" height="252pt"
 viewBox="0.00 0.00 506.56 252.00" xmlns="http://www.w3.org/2000/svg" xmlns:xlink="http://www.w3.org/1999/xlink">
<g id="graph0" class="graph" transform="scale(1 1) rotate(0) translate(4 248)">
<title>IK.h</title>
<polygon fill="white" stroke="none" points="-4,4 -4,-248 502.564,-248 502.564,4 -4,4"/>
<!-- Node1 -->
<g id="node1" class="node"><title>Node1</title>
<polygon fill="#bfbfbf" stroke="black" points="336.5,-224.5 336.5,-243.5 371.5,-243.5 371.5,-224.5 336.5,-224.5"/>
<text text-anchor="middle" x="354" y="-231.5" font-family="Helvetica,sans-Serif" font-size="10.00">IK.h</text>
</g>
<!-- Node2 -->
<g id="node2" class="node"><title>Node2</title>
<polygon fill="white" stroke="#bfbfbf" points="426,-0.5 426,-19.5 470,-19.5 470,-0.5 426,-0.5"/>
<text text-anchor="middle" x="448" y="-7.5" font-family="Helvetica,sans-Serif" font-size="10.00">vector</text>
</g>
<!-- Node1&#45;&gt;Node2 -->
<g id="edge1" class="edge"><title>Node1&#45;&gt;Node2</title>
<path fill="none" stroke="midnightblue" d="M366.734,-224.24C396.353,-202.986 469.369,-145.298 496,-76 499.189,-67.7027 499.534,-64.1564 496,-56 490.732,-43.8399 480.38,-33.4594 470.635,-25.7429"/>
<polygon fill="midnightblue" stroke="midnightblue" points="472.501,-22.7707 462.37,-19.6698 468.356,-28.4116 472.501,-22.7707"/>
</g>
<!-- Node3 -->
<g id="node3" class="node"><title>Node3</title>
<polygon fill="white" stroke="#bfbfbf" points="0,-0.5 0,-19.5 138,-19.5 138,-0.5 0,-0.5"/>
<text text-anchor="middle" x="69" y="-7.5" font-family="Helvetica,sans-Serif" font-size="10.00">SpaceVecAlg/SpaceVecAlg</text>
</g>
<!-- Node1&#45;&gt;Node3 -->
<g id="edge2" class="edge"><title>Node1&#45;&gt;Node3</title>
<path fill="none" stroke="midnightblue" d="M336.327,-229.388C284.741,-217.798 134.1,-176.282 72,-76 63.5433,-62.3439 63.5552,-43.8056 65.2372,-30.0212"/>
<polygon fill="midnightblue" stroke="midnightblue" points="68.7533,-30.2024 66.8937,-19.772 61.843,-29.0855 68.7533,-30.2024"/>
</g>
<!-- Node4 -->
<g id="node4" class="node"><title>Node4</title>
<g id="a_node4"><a xlink:href="a00029.html" target="_top" xlink:title="Jacobian.h">
<polygon fill="white" stroke="black" points="322,-168.5 322,-187.5 386,-187.5 386,-168.5 322,-168.5"/>
<text text-anchor="middle" x="354" y="-175.5" font-family="Helvetica,sans-Serif" font-size="10.00">Jacobian.h</text>
</a>
</g>
</g>
<!-- Node1&#45;&gt;Node4 -->
<g id="edge3" class="edge"><title>Node1&#45;&gt;Node4</title>
<path fill="none" stroke="midnightblue" d="M354,-224.083C354,-217.006 354,-206.861 354,-197.986"/>
<polygon fill="midnightblue" stroke="midnightblue" points="357.5,-197.751 354,-187.751 350.5,-197.751 357.5,-197.751"/>
</g>
<!-- Node5 -->
<g id="node5" class="node"><title>Node5</title>
<g id="a_node5"><a xlink:href="a00032.html" target="_top" xlink:title="MultiBody.h">
<polygon fill="white" stroke="black" points="277,-112.5 277,-131.5 345,-131.5 345,-112.5 277,-112.5"/>
<text text-anchor="middle" x="311" y="-119.5" font-family="Helvetica,sans-Serif" font-size="10.00">MultiBody.h</text>
</a>
</g>
</g>
<!-- Node4&#45;&gt;Node5 -->
<g id="edge4" class="edge"><title>Node4&#45;&gt;Node5</title>
<path fill="none" stroke="midnightblue" d="M346.899,-168.083C340.763,-160.377 331.73,-149.033 324.261,-139.653"/>
<polygon fill="midnightblue" stroke="midnightblue" points="326.936,-137.394 317.968,-131.751 321.46,-141.754 326.936,-137.394"/>
</g>
<!-- Node13 -->
<g id="node13" class="node"><title>Node13</title>
<polygon fill="white" stroke="#bfbfbf" points="404.5,-56.5 404.5,-75.5 487.5,-75.5 487.5,-56.5 404.5,-56.5"/>
<text text-anchor="middle" x="446" y="-63.5" font-family="Helvetica,sans-Serif" font-size="10.00">rbdyn/config.hh</text>
</g>
<!-- Node4&#45;&gt;Node13 -->
<g id="edge20" class="edge"><title>Node4&#45;&gt;Node13</title>
<path fill="none" stroke="midnightblue" d="M361.219,-168.368C376.536,-150.055 412.505,-107.049 432.315,-83.3624"/>
<polygon fill="midnightblue" stroke="midnightblue" points="435.084,-85.5077 438.814,-75.5914 429.714,-81.0168 435.084,-85.5077"/>
</g>
<!-- Node5&#45;&gt;Node2 -->
<g id="edge7" class="edge"><title>Node5&#45;&gt;Node2</title>
<path fill="none" stroke="midnightblue" d="M321.75,-112.368C344.959,-93.7334 400.01,-49.5324 429.151,-26.1338"/>
<polygon fill="midnightblue" stroke="midnightblue" points="431.693,-28.5814 437.3,-19.5914 427.311,-23.1231 431.693,-28.5814"/>
</g>
<!-- Node5&#45;&gt;Node3 -->
<g id="edge8" class="edge"><title>Node5&#45;&gt;Node3</title>
<path fill="none" stroke="midnightblue" d="M276.615,-118.358C221.084,-113.408 115.129,-100.909 88,-76 75.164,-64.2143 70.8224,-44.2868 69.4419,-29.5962"/>
<polygon fill="midnightblue" stroke="midnightblue" points="72.9359,-29.3889 68.8718,-19.6046 65.9473,-29.7877 72.9359,-29.3889"/>
</g>
<!-- Node6 -->
<g id="node6" class="node"><title>Node6</title>
<polygon fill="white" stroke="#bfbfbf" points="348.5,-0.5 348.5,-19.5 407.5,-19.5 407.5,-0.5 348.5,-0.5"/>
<text text-anchor="middle" x="378" y="-7.5" font-family="Helvetica,sans-Serif" font-size="10.00">stdexcept</text>
</g>
<!-- Node5&#45;&gt;Node6 -->
<g id="edge5" class="edge"><title>Node5&#45;&gt;Node6</title>
<path fill="none" stroke="midnightblue" d="M316.257,-112.368C327.265,-94.2957 352.92,-52.1764 367.458,-28.3074"/>
<polygon fill="midnightblue" stroke="midnightblue" points="370.554,-29.9526 372.767,-19.5914 364.576,-26.3112 370.554,-29.9526"/>
</g>
<!-- Node7 -->
<g id="node7" class="node"><title>Node7</title>
<polygon fill="white" stroke="#bfbfbf" points="97.5,-56.5 97.5,-75.5 180.5,-75.5 180.5,-56.5 97.5,-56.5"/>
<text text-anchor="middle" x="139" y="-63.5" font-family="Helvetica,sans-Serif" font-size="10.00">unordered_map</text>
</g>
<!-- Node5&#45;&gt;Node7 -->
<g id="edge6" class="edge"><title>Node5&#45;&gt;Node7</title>
<path fill="none" stroke="midnightblue" d="M283.746,-112.444C254.559,-103.28 208.079,-88.6876 175.691,-78.5192"/>
<polygon fill="midnightblue" stroke="midnightblue" points="176.716,-75.1726 166.126,-75.5164 174.619,-81.8512 176.716,-75.1726"/>
</g>
<!-- Node8 -->
<g id="node8" class="node"><title>Node8</title>
<g id="a_node8"><a xlink:href="a00018.html" target="_top" xlink:title="Body.h">
<polygon fill="white" stroke="black" points="198.5,-56.5 198.5,-75.5 245.5,-75.5 245.5,-56.5 198.5,-56.5"/>
<text text-anchor="middle" x="222" y="-63.5" font-family="Helvetica,sans-Serif" font-size="10.00">Body.h</text>
</a>
</g>
</g>
<!-- Node5&#45;&gt;Node8 -->
<g id="edge9" class="edge"><title>Node5&#45;&gt;Node8</title>
<path fill="none" stroke="midnightblue" d="M296.701,-112.324C282.817,-103.9 261.508,-90.9709 245.196,-81.0741"/>
<polygon fill="midnightblue" stroke="midnightblue" points="246.629,-77.8495 236.264,-75.6545 242.998,-83.8341 246.629,-77.8495"/>
</g>
<!-- Node10 -->
<g id="node10" class="node"><title>Node10</title>
<g id="a_node10"><a xlink:href="a00030.html" target="_top" xlink:title="Joint.h">
<polygon fill="white" stroke="black" points="264,-56.5 264,-75.5 310,-75.5 310,-56.5 264,-56.5"/>
<text text-anchor="middle" x="287" y="-63.5" font-family="Helvetica,sans-Serif" font-size="10.00">Joint.h</text>
</a>
</g>
</g>
<!-- Node5&#45;&gt;Node10 -->
<g id="edge12" class="edge"><title>Node5&#45;&gt;Node10</title>
<path fill="none" stroke="midnightblue" d="M307.037,-112.083C303.787,-104.77 299.081,-94.1814 295.046,-85.1034"/>
<polygon fill="midnightblue" stroke="midnightblue" points="298.149,-83.4677 290.889,-75.7511 291.752,-86.3107 298.149,-83.4677"/>
</g>
<!-- Node5&#45;&gt;Node13 -->
<g id="edge19" class="edge"><title>Node5&#45;&gt;Node13</title>
<path fill="none" stroke="midnightblue" d="M332.391,-112.444C354.707,-103.517 389.903,-89.4387 415.208,-79.3168"/>
<polygon fill="midnightblue" stroke="midnightblue" points="416.724,-82.4801 424.709,-75.5164 414.124,-75.9807 416.724,-82.4801"/>
</g>
<!-- Node8&#45;&gt;Node3 -->
<g id="edge11" class="edge"><title>Node8&#45;&gt;Node3</title>
<path fill="none" stroke="midnightblue" d="M198.429,-56.6808C172.86,-47.6564 131.817,-33.1709 102.814,-22.9345"/>
<polygon fill="midnightblue" stroke="midnightblue" points="103.698,-19.5347 93.1029,-19.5069 101.368,-26.1356 103.698,-19.5347"/>
</g>
<!-- Node9 -->
<g id="node9" class="node"><title>Node9</title>
<polygon fill="white" stroke="#bfbfbf" points="156.5,-0.5 156.5,-19.5 197.5,-19.5 197.5,-0.5 156.5,-0.5"/>
<text text-anchor="middle" x="177" y="-7.5" font-family="Helvetica,sans-Serif" font-size="10.00">string</text>
</g>
<!-- Node8&#45;&gt;Node9 -->
<g id="edge10" class="edge"><title>Node8&#45;&gt;Node9</title>
<path fill="none" stroke="midnightblue" d="M214.569,-56.083C208.147,-48.3768 198.694,-37.0333 190.878,-27.6531"/>
<polygon fill="midnightblue" stroke="midnightblue" points="193.383,-25.1927 184.293,-19.7511 188.006,-29.674 193.383,-25.1927"/>
</g>
<!-- Node10&#45;&gt;Node2 -->
<g id="edge17" class="edge"><title>Node10&#45;&gt;Node2</title>
<path fill="none" stroke="midnightblue" d="M310.067,-57.2631C337.92,-47.9213 384.912,-32.1598 416.193,-21.6683"/>
<polygon fill="midnightblue" stroke="midnightblue" points="417.384,-24.9603 425.752,-18.4619 415.158,-18.3236 417.384,-24.9603"/>
</g>
<!-- Node10&#45;&gt;Node3 -->
<g id="edge18" class="edge"><title>Node10&#45;&gt;Node3</title>
<path fill="none" stroke="midnightblue" d="M263.943,-58.6244C260.611,-57.7284 257.22,-56.8306 254,-56 206.897,-43.8506 152.814,-30.7988 115.341,-21.8969"/>
<polygon fill="midnightblue" stroke="midnightblue" points="115.77,-18.4016 105.232,-19.5004 114.155,-25.2128 115.77,-18.4016"/>
</g>
<!-- Node10&#45;&gt;Node6 -->
<g id="edge15" class="edge"><title>Node10&#45;&gt;Node6</title>
<path fill="none" stroke="midnightblue" d="M301.621,-56.324C315.949,-47.8215 338.013,-34.7288 354.749,-24.7975"/>
<polygon fill="midnightblue" stroke="midnightblue" points="356.602,-27.7677 363.416,-19.6545 353.03,-21.7478 356.602,-27.7677"/>
</g>
<!-- Node10&#45;&gt;Node9 -->
<g id="edge16" class="edge"><title>Node10&#45;&gt;Node9</title>
<path fill="none" stroke="midnightblue" d="M269.327,-56.324C251.606,-47.6247 224.097,-34.1202 203.712,-24.113"/>
<polygon fill="midnightblue" stroke="midnightblue" points="205.149,-20.9195 194.63,-19.6545 202.064,-27.2031 205.149,-20.9195"/>
</g>
<!-- Node11 -->
<g id="node11" class="node"><title>Node11</title>
<polygon fill="white" stroke="#bfbfbf" points="286,-0.5 286,-19.5 330,-19.5 330,-0.5 286,-0.5"/>
<text text-anchor="middle" x="308" y="-7.5" font-family="Helvetica,sans-Serif" font-size="10.00">cmath</text>
</g>
<!-- Node10&#45;&gt;Node11 -->
<g id="edge13" class="edge"><title>Node10&#45;&gt;Node11</title>
<path fill="none" stroke="midnightblue" d="M290.468,-56.083C293.312,-48.77 297.429,-38.1814 300.96,-29.1034"/>
<polygon fill="midnightblue" stroke="midnightblue" points="304.234,-30.3397 304.597,-19.7511 297.71,-27.8025 304.234,-30.3397"/>
</g>
<!-- Node12 -->
<g id="node12" class="node"><title>Node12</title>
<polygon fill="white" stroke="#bfbfbf" points="216,-0.5 216,-19.5 268,-19.5 268,-0.5 216,-0.5"/>
<text text-anchor="middle" x="242" y="-7.5" font-family="Helvetica,sans-Serif" font-size="10.00">sstream</text>
</g>
<!-- Node10&#45;&gt;Node12 -->
<g id="edge14" class="edge"><title>Node10&#45;&gt;Node12</title>
<path fill="none" stroke="midnightblue" d="M279.569,-56.083C273.147,-48.3768 263.694,-37.0333 255.878,-27.6531"/>
<polygon fill="midnightblue" stroke="midnightblue" points="258.383,-25.1927 249.293,-19.7511 253.006,-29.674 258.383,-25.1927"/>
</g>
</g>
</svg>
