<?xml version="1.0" encoding="UTF-8" standalone="no"?>
<!DOCTYPE svg PUBLIC "-//W3C//DTD SVG 1.1//EN"
 "http://www.w3.org/Graphics/SVG/1.1/DTD/svg11.dtd">
<!-- Generated by graphviz version 2.36.0 (20140111.2315)
 -->
<!-- Title: MultiBody.h Pages: 1 -->
<svg width="237pt" height="140pt"
 viewBox="0.00 0.00 237.00 140.00" xmlns="http://www.w3.org/2000/svg" xmlns:xlink="http://www.w3.org/1999/xlink">
<g id="graph0" class="graph" transform="scale(1 1) rotate(0) translate(4 136)">
<title>MultiBody.h</title>
<polygon fill="white" stroke="none" points="-4,4 -4,-136 233,-136 233,4 -4,4"/>
<!-- Node1 -->
<g id="node1" class="node"><title>Node1</title>
<polygon fill="#bfbfbf" stroke="black" points="97,-112.5 97,-131.5 165,-131.5 165,-112.5 97,-112.5"/>
<text text-anchor="middle" x="131" y="-119.5" font-family="Helvetica,sans-Serif" font-size="10.00">MultiBody.h</text>
</g>
<!-- Node2 -->
<g id="node2" class="node"><title>Node2</title>
<g id="a_node2"><a xlink:href="a00029.html" target="_top" xlink:title="Jacobian.h">
<polygon fill="white" stroke="black" points="50,-56.5 50,-75.5 114,-75.5 114,-56.5 50,-56.5"/>
<text text-anchor="middle" x="82" y="-63.5" font-family="Helvetica,sans-Serif" font-size="10.00">Jacobian.h</text>
</a>
</g>
</g>
<!-- Node1&#45;&gt;Node2 -->
<g id="edge1" class="edge"><title>Node1&#45;&gt;Node2</title>
<path fill="none" stroke="midnightblue" d="M115.966,-104.431C107.378,-94.9673 96.9565,-83.4827 89.9408,-75.7511"/>
<polygon fill="midnightblue" stroke="midnightblue" points="113.597,-107.029 122.909,-112.083 118.781,-102.325 113.597,-107.029"/>
</g>
<!-- Node6 -->
<g id="node6" class="node"><title>Node6</title>
<g id="a_node6"><a xlink:href="a00033.html" target="_top" xlink:title="MultiBodyConfig.h">
<polygon fill="white" stroke="black" points="132.5,-56.5 132.5,-75.5 229.5,-75.5 229.5,-56.5 132.5,-56.5"/>
<text text-anchor="middle" x="181" y="-63.5" font-family="Helvetica,sans-Serif" font-size="10.00">MultiBodyConfig.h</text>
</a>
</g>
</g>
<!-- Node1&#45;&gt;Node6 -->
<g id="edge5" class="edge"><title>Node1&#45;&gt;Node6</title>
<path fill="none" stroke="midnightblue" d="M146.076,-104.718C154.889,-95.1997 165.666,-83.5608 172.897,-75.7511"/>
<polygon fill="midnightblue" stroke="midnightblue" points="143.482,-102.367 139.256,-112.083 148.619,-107.123 143.482,-102.367"/>
</g>
<!-- Node3 -->
<g id="node3" class="node"><title>Node3</title>
<g id="a_node3"><a xlink:href="a00019.html" target="_top" xlink:title="CoM.h">
<polygon fill="white" stroke="black" points="0,-0.5 0,-19.5 46,-19.5 46,-0.5 0,-0.5"/>
<text text-anchor="middle" x="23" y="-7.5" font-family="Helvetica,sans-Serif" font-size="10.00">CoM.h</text>
</a>
</g>
</g>
<!-- Node2&#45;&gt;Node3 -->
<g id="edge2" class="edge"><title>Node2&#45;&gt;Node3</title>
<path fill="none" stroke="midnightblue" d="M65.1055,-49.5372C54.5855,-39.9087 41.4313,-27.8694 32.6519,-19.8339"/>
<polygon fill="midnightblue" stroke="midnightblue" points="62.7808,-52.1542 72.5206,-56.324 67.5069,-46.9905 62.7808,-52.1542"/>
</g>
<!-- Node4 -->
<g id="node4" class="node"><title>Node4</title>
<g id="a_node4"><a xlink:href="a00027.html" target="_top" xlink:title="IK.h">
<polygon fill="white" stroke="black" points="64.5,-0.5 64.5,-19.5 99.5,-19.5 99.5,-0.5 64.5,-0.5"/>
<text text-anchor="middle" x="82" y="-7.5" font-family="Helvetica,sans-Serif" font-size="10.00">IK.h</text>
</a>
</g>
</g>
<!-- Node2&#45;&gt;Node4 -->
<g id="edge3" class="edge"><title>Node2&#45;&gt;Node4</title>
<path fill="none" stroke="midnightblue" d="M82,-45.8045C82,-36.9102 82,-26.7798 82,-19.7511"/>
<polygon fill="midnightblue" stroke="midnightblue" points="78.5001,-46.083 82,-56.083 85.5001,-46.083 78.5001,-46.083"/>
</g>
<!-- Node5 -->
<g id="node5" class="node"><title>Node5</title>
<g id="a_node5"><a xlink:href="a00028.html" target="_top" xlink:title="IS.h">
<polygon fill="white" stroke="black" points="117.5,-0.5 117.5,-19.5 152.5,-19.5 152.5,-0.5 117.5,-0.5"/>
<text text-anchor="middle" x="135" y="-7.5" font-family="Helvetica,sans-Serif" font-size="10.00">IS.h</text>
</a>
</g>
</g>
<!-- Node2&#45;&gt;Node5 -->
<g id="edge4" class="edge"><title>Node2&#45;&gt;Node5</title>
<path fill="none" stroke="midnightblue" d="M97.9809,-48.7175C107.322,-39.1997 118.746,-27.5608 126.411,-19.7511"/>
<polygon fill="midnightblue" stroke="midnightblue" points="95.2587,-46.4945 90.7519,-56.083 100.254,-51.3978 95.2587,-46.4945"/>
</g>
</g>
</svg>
